{
.appVersion = "3112";
.formatVersion = 3;
DisplayStrings = (
"!",
j,
x,
".",
":",
";",
",",
"4",
"'",
"-",
"©",
c
);
customParameters = (
{
name = panose;
value = (
0,
0,
7,
0,
0,
0,
0,
0,
0,
0
);
},
{
name = unicodeRanges;
value = (
0,
1,
2,
3,
5,
6,
7,
9,
29,
31,
32,
33,
35,
36,
37,
38,
45,
62
);
},
{
name = codePageRanges;
value = (
"1252",
"1250",
"1251",
"1254",
"1257",
"bit 29"
);
},
{
name = fsType;
value = (
);
},
{
name = glyphOrder;
value = (
.notdef,
.null,
CR,
space,
exclam,
quotedbl,
numbersign,
dollar,
percent,
ampersand,
quotesingle,
parenleft,
parenright,
asterisk,
plus,
comma,
hyphen,
period,
slash,
zero,
one,
two,
three,
four,
five,
six,
seven,
eight,
nine,
colon,
semicolon,
less,
equal,
greater,
question,
at,
A,
B,
C,
D,
E,
F,
G,
H,
I,
J,
K,
L,
M,
N,
O,
P,
Q,
R,
S,
T,
U,
V,
W,
X,
Y,
Z,
bracketleft,
backslash,
bracketright,
asciicircum,
underscore,
grave,
a,
b,
c,
d,
e,
f,
g,
h,
i,
j,
k,
l,
m,
n,
o,
p,
q,
r,
s,
t,
u,
v,
w,
x,
y,
z,
braceleft,
bar,
braceright,
asciitilde,
exclamdown,
cent,
sterling,
currency,
yen,
brokenbar,
section,
dieresis,
copyright,
guillemotleft,
logicalnot,
registered,
macron,
degree,
plusminus,
acute,
mu,
paragraph,
periodcentered,
cedilla,
guillemotright,
onequarter,
onehalf,
threequarters,
questiondown,
Agrave,
Aacute,
Acircumflex,
Atilde,
Adieresis,
Aring,
AE,
Ccedilla,
Egrave,
Eacute,
Ecircumflex,
Edieresis,
Igrave,
Iacute,
Icircumflex,
Idieresis,
Eth,
Ntilde,
Ograve,
Oacute,
Ocircumflex,
Otilde,
Odieresis,
multiply,
Oslash,
Ugrave,
Uacute,
Ucircumflex,
Udieresis,
Yacute,
Thorn,
germandbls,
agrave,
aacute,
acircumflex,
atilde,
adieresis,
aring,
ae,
ccedilla,
egrave,
eacute,
ecircumflex,
edieresis,
igrave,
iacute,
icircumflex,
idieresis,
eth,
ntilde,
ograve,
oacute,
ocircumflex,
otilde,
odieresis,
divide,
oslash,
ugrave,
uacute,
ucircumflex,
udieresis,
yacute,
thorn,
ydieresis,
Amacron,
amacron,
Abreve,
abreve,
Aogonek,
aogonek,
Cacute,
cacute,
Cdotaccent,
cdotaccent,
Ccaron,
ccaron,
Dcaron,
dcaron,
Dcroat,
dcroat,

glyphs = (
{
glyphname = .notdef;
kernRight = .notdef;
layers = (
{
layerId = m01;
shapes = (
{
closed = 1;
nodes = (
(540,336,l),
(540,480,l),
(280,480,l),
(223,364,l),
(425,364,l),
(425,336,l),
(280,336,l),
(223,220,l),
(367,220,l),
(425,336,l),
(425,220,l),
(540,220,l),
(597,336,l)
);
},
{
closed = 1;
nodes = (
(602,710,o),
(686,626,qs),
(770,542,o),
(770,350,qs),
(770,158,o),
(686,74,qs),
(602,-10,o),
(410,-10,qs),
(218,-10,o),
(134,74,qs),
(50,158,o),
(50,350,qs),
(50,542,o),
(134,626,qs),
(218,710,o),
(410,710,qs)
);
}
);
width = 820;
}
);
note = ".notdef";
},
{
glyphname = exclam;
lastChange = "2022-02-25 00:18:45 +0000";
layers = (
{
layerId = m01;
shapes = (
{
closed = 1;
nodes = (
(60,171,l),
(35,757,l),
(169,757,l),
(144,171,l)
);
},
{
closed = 1;
nodes = (
(102,129,l),
(169,62,l),
(102,-5,l),
(35,62,l)
);
}
);
width = 204;
}
);
note = exclam;
unicode = 33;
},
{
glyphname = quotedbl;
kernRight = quotedbl;
layers = (
{
layerId = m01;
shapes = (
{
closed = 1;
nodes = (
(872,264,o),
(893,243,qs),
(914,222,o),
(914,190,qs),
(914,158,o),
(893,137,qs),
(872,116,o),
(840,116,qs),
(808,116,o),
(787,137,qs),
(766,158,o),
(766,190,qs),
(766,222,o),
(787,243,qs),
(808,264,o),
(840,264,qs)
);
},
{
closed = 1;
nodes = (
(267,261,o),
(287,241,qs),
(306,221,o),
(306,190,qs),
(306,158,o),
(287,138,qs),
(267,118,o),
(236,118,qs),
(188,118,l),
(188,261,l),
(236,261,ls)
);
},
{
closed = 1;
nodes = (
(776,612,l),
(776,360,l),
(942,360,l),
(942,394,l),
(812,394,l),
(812,470,l),
(931,470,l),
(931,504,l),
(812,504,l),
(812,577,l),
(942,577,l),
(942,612,l)
);
},
{
closed = 1;
nodes = (
(942,146,o),
(942,190,qs),
(942,234,o),
(913,262,qs),
(884,291,o),
(840,291,qs),
(796,291,o),
(767,262,qs),
(738,234,o),
(738,190,qs),
(738,146,o),
(767,117,qs),
(796,89,o),
(840,89,qs),
(884,89,o),
(913,117,qs)
);
},
{
closed = 1;
nodes = (
(688,288,l),
(615,178,l),
(542,288,l),
(523,288,l),
(523,91,l),
(551,91,l),
(551,226,l),
(615,129,l),
(680,226,l),
(680,91,l),
(708,91,l),
(708,288,l)
);
},
{
closed = 1;
nodes = (
(537,360,l),
(473,455,l),
(501,461,o),
(518,482,qs),
(534,503,o),
(534,531,qs),
(534,567,o),
(511,589,qs),
(488,612,o),
(450,612,qs),
(354,612,l),
(354,360,l),
(390,360,l),
(390,577,l),
(450,577,ls),
(470,577,o),
(484,564,qs),
(498,551,o),
(498,530,qs),
(498,509,o),
(484,496,qs),
(470,482,o),
(450,482,qs),
(415,482,l),
(498,360,l)
);
},
{
closed = 1;
nodes = (
(364,288,l),
(364,91,l),
(493,91,l),
(493,118,l),
(392,118,l),
(392,177,l),
(485,177,l),
(485,204,l),
(392,204,l),
(392,261,l),
(493,261,l),
(493,288,l)
);
},
{
closed = 1;
nodes = (
(334,147,o),
(334,190,qs),
(334,233,o),
(307,260,qs),
(278,288,o),
(234,288,qs),
(160,288,l),
(160,91,l),
(234,91,ls),
(279,91,o),
(307,119,qs)
);
},
{
closed = 1;
nodes = (
(196,360,l),
(196,462,l),
(314,462,l),
(314,497,l),
(196,497,l),
(196,577,l),
(318,577,l),
(318,612,l),
(160,612,l),
(160,360,l)
);
},
{
closed = 1;
nodes = (
(739,360,l),
(739,394,l),
(609,394,l),
(609,470,l),
(728,470,l),
(728,504,l),
(609,504,l),
(609,577,l),
(739,577,l),
(739,612,l),
(573,612,l),
(573,360,l)
);
},
{
closed = 1;
nodes = (
(1032,700,l),
(1032,0,l),
(70,0,l),
(70,700,l)
);
}
);
width = 1102;
}
);
note = quotedbl;
unicode = 34;
},
{
glyphname = numbersign;
kernRight = numbersign;
layers = (
{
layerId = m01;
shapes = (
{
closed = 1;
nodes = (
(872,264,o),
(893,243,qs),
(914,222,o),
(914,190,qs),
(914,158,o),
(893,137,qs),
(872,116,o),
(840,116,qs),
(808,116,o),
(787,137,qs),
(766,158,o),
(766,190,qs),
(766,222,o),
(787,243,qs),
(808,264,o),
(840,264,qs)
);
},
{
closed = 1;
nodes = (
(267,261,o),
(287,241,qs),
(306,221,o),
(306,190,qs),
(306,158,o),
(287,138,qs),
(267,118,o),
(236,118,qs),
(188,118,l),
(188,261,l),
(236,261,ls)
);
},
{
closed = 1;
nodes = (
(776,612,l),
(776,360,l),
(942,360,l),
(942,394,l),
(812,394,l),
(812,470,l),
(931,470,l),
(931,504,l),
(812,504,l),
(812,577,l),
(942,577,l),
(942,612,l)
);
},
{
closed = 1;
nodes = (
(942,146,o),
(942,190,qs),
(942,234,o),
(913,262,qs),
(884,291,o),
(840,291,qs),
(796,291,o),
(767,262,qs),
(738,234,o),
(738,190,qs),
(738,146,o),
(767,117,qs),
(796,89,o),
(840,89,qs),
(884,89,o),
(913,117,qs)
);
},
{
closed = 1;
nodes = (
(688,288,l),
(615,178,l),
(542,288,l),
(523,288,l),
(523,91,l),
(551,91,l),
(551,226,l),
(615,129,l),
(680,226,l),
(680,91,l),
(708,91,l),
(708,288,l)
);
},
{
closed = 1;
nodes = (
(537,360,l),
(473,455,l),
(501,461,o),
(518,482,qs),
(534,503,o),
(534,531,qs),
(534,567,o),
(511,589,qs),
(488,612,o),
(450,612,qs),
(354,612,l),
(354,360,l),
(390,360,l),
(390,577,l),
(450,577,ls),
(470,577,o),
(484,564,qs),
(498,551,o),
(498,530,qs),
(498,509,o),
(484,496,qs),
(470,482,o),
(450,482,qs),
(415,482,l),
(498,360,l)
);
},
{
closed = 1;
nodes = (
(364,288,l),
(364,91,l),
(493,91,l),
(493,118,l),
(392,118,l),
(392,177,l),
(485,177,l),
(485,204,l),
(392,204,l),
(392,261,l),
(493,261,l),
(493,288,l)
);
},
{
closed = 1;
nodes = (
(334,147,o),
(334,190,qs),
(334,233,o),
(307,260,qs),
(278,288,o),
(234,288,qs),
(160,288,l),
(160,91,l),
(234,91,ls),
(279,91,o),
(307,119,qs)
);
},
{
closed = 1;
nodes = (
(196,360,l),
(196,462,l),
(314,462,l),
(314,497,l),
(196,497,l),
(196,577,l),
(318,577,l),
(318,612,l),
(160,612,l),
(160,360,l)
);
},
{
closed = 1;
nodes = (
(739,360,l),
(739,394,l),
(609,394,l),
(609,470,l),
(728,470,l),
(728,504,l),
(609,504,l),
(609,577,l),
(739,577,l),
(739,612,l),
(573,612,l),
(573,360,l)
);
},
{
closed = 1;
nodes = (
(1032,700,l),
(1032,0,l),
(70,0,l),
(70,700,l)
);
}
);
width = 1102;
}
);
note = numbersign;
unicode = 35;
},
{
glyphname = dollar;
kernRight = dollar;
layers = (
{
layerId = m01;
shapes = (
{
closed = 1;
nodes = (
(872,264,o),
(893,243,qs),
(914,222,o),
(914,190,qs),
(914,158,o),
(893,137,qs),
(872,116,o),
(840,116,qs),
(808,116,o),
(787,137,qs),
(766,158,o),
(766,190,qs),
(766,222,o),
(787,243,qs),
(808,264,o),
(840,264,qs)
);
},
{
closed = 1;
nodes = (
(267,261,o),
(287,241,qs),
(306,221,o),
(306,190,qs),
(306,158,o),
(287,138,qs),
(267,118,o),
(236,118,qs),
(188,118,l),
(188,261,l),
(236,261,ls)
);
},
{
closed = 1;
nodes = (
(776,612,l),
(776,360,l),
(942,360,l),
(942,394,l),
(812,394,l),
(812,470,l),
(931,470,l),
(931,504,l),
(812,504,l),
(812,577,l),
(942,577,l),
(942,612,l)
);
},
{
closed = 1;
nodes = (
(942,146,o),
(942,190,qs),
(942,234,o),
(913,262,qs),
(884,291,o),
(840,291,qs),
(796,291,o),
(767,262,qs),
(738,234,o),
(738,190,qs),
(738,146,o),
(767,117,qs),
(796,89,o),
(840,89,qs),
(884,89,o),
(913,117,qs)
);
},
{
closed = 1;
nodes = (
(688,288,l),
(615,178,l),
(542,288,l),
(523,288,l),
(523,91,l),
(551,91,l),
(551,226,l),
(615,129,l),
(680,226,l),
(680,91,l),
(708,91,l),
(708,288,l)
);
},
{
closed = 1;
nodes = (
(537,360,l),
(473,455,l),
(501,461,o),
(518,482,qs),
(534,503,o),
(534,531,qs),
(534,567,o),
(511,589,qs),
(488,612,o),
(450,612,qs),
(354,612,l),
(354,360,l),
(390,360,l),
(390,577,l),
(450,577,ls),
(470,577,o),
(484,564,qs),
(498,551,o),
(498,530,qs),
(498,509,o),
(484,496,qs),
(470,482,o),
(450,482,qs),
(415,482,l),
(498,360,l)
);
},
{
closed = 1;
nodes = (
(364,288,l),
(364,91,l),
(493,91,l),
(493,118,l),
(392,118,l),
(392,177,l),
(485,177,l),
(485,204,l),
(392,204,l),
(392,261,l),
(493,261,l),
(493,288,l)
);
},
{
closed = 1;
nodes = (
(334,147,o),
(334,190,qs),
(334,233,o),
(307,260,qs),
(278,288,o),
(234,288,qs),
(160,288,l),
(160,91,l),
(234,91,ls),
(279,91,o),
(307,119,qs)
);
},
{
closed = 1;
nodes = (
(196,360,l),
(196,462,l),
(314,462,l),
(314,497,l),
(196,497,l),
(196,577,l),
(318,577,l),
(318,612,l),
(160,612,l),
(160,360,l)
);
},
{
closed = 1;
nodes = (
(739,360,l),
(739,394,l),
(609,394,l),
(609,470,l),
(728,470,l),
(728,504,l),
(609,504,l),
(609,577,l),
(739,577,l),
(739,612,l),
(573,612,l),
(573,360,l)
);
},
{
closed = 1;
nodes = (
(1032,700,l),
(1032,0,l),
(70,0,l),
(70,700,l)
);
}
);
width = 1102;
}
);
note = dollar;
unicode = 36;
},
{
glyphname = percent;
kernRight = percent;
layers = (
{
layerId = m01;
shapes = (
{
closed = 1;
nodes = (
(872,264,o),
(893,243,qs),
(914,222,o),
(914,190,qs),
(914,158,o),
(893,137,qs),
(872,116,o),
(840,116,qs),
(808,116,o),
(787,137,qs),
(766,158,o),
(766,190,qs),
(766,222,o),
(787,243,qs),
(808,264,o),
(840,264,qs)
);
},
{
closed = 1;
nodes = (
(267,261,o),
(287,241,qs),
(306,221,o),
(306,190,qs),
(306,158,o),
(287,138,qs),
(267,118,o),
(236,118,qs),
(188,118,l),
(188,261,l),
(236,261,ls)
);
},
{
closed = 1;
nodes = (
(776,612,l),
(776,360,l),
(942,360,l),
(942,394,l),
(812,394,l),
(812,470,l),
(931,470,l),
(931,504,l),
(812,504,l),
(812,577,l),
(942,577,l),
(942,612,l)
);
},
{
closed = 1;
nodes = (
(942,146,o),
(942,190,qs),
(942,234,o),
(913,262,qs),
(884,291,o),
(840,291,qs),
(796,291,o),
(767,262,qs),
(738,234,o),
(738,190,qs),
(738,146,o),
(767,117,qs),
(796,89,o),
(840,89,qs),
(884,89,o),
(913,117,qs)
);
},
{
closed = 1;
nodes = (
(688,288,l),
(615,178,l),
(542,288,l),
(523,288,l),
(523,91,l),
(551,91,l),
(551,226,l),
(615,129,l),
(680,226,l),
(680,91,l),
(708,91,l),
(708,288,l)
);
},
{
closed = 1;
nodes = (
(537,360,l),
(473,455,l),
(501,461,o),
(518,482,qs),
(534,503,o),
(534,531,qs),
(534,567,o),
(511,589,qs),
(488,612,o),
(450,612,qs),
(354,612,l),
(354,360,l),
(390,360,l),
(390,577,l),
(450,577,ls),
(470,577,o),
(484,564,qs),
(498,551,o),
(498,530,qs),
(498,509,o),
(484,496,qs),
(470,482,o),
(450,482,qs),
(415,482,l),
(498,360,l)
);
},
{
closed = 1;
nodes = (
(364,288,l),
(364,91,l),
(493,91,l),
(493,118,l),
(392,118,l),
(392,177,l),
(485,177,l),
(485,204,l),
(392,204,l),
(392,261,l),
(493,261,l),
(493,288,l)
);
},
{
closed = 1;
nodes = (
(334,147,o),
(334,190,qs),
(334,233,o),
(307,260,qs),
(278,288,o),
(234,288,qs),
(160,288,l),
(160,91,l),
(234,91,ls),
(279,91,o),
(307,119,qs)
);
},
{
closed = 1;
nodes = (
(196,360,l),
(196,462,l),
(314,462,l),
(314,497,l),
(196,497,l),
(196,577,l),
(318,577,l),
(318,612,l),
(160,612,l),
(160,360,l)
);
},
{
closed = 1;
nodes = (
(739,360,l),
(739,394,l),
(609,394,l),
(609,470,l),
(728,470,l),
(728,504,l),
(609,504,l),
(609,577,l),
(739,577,l),
(739,612,l),
(573,612,l),
(573,360,l)
);
},
{
closed = 1;
nodes = (
(1032,700,l),
(1032,0,l),
(70,0,l),
(70,700,l)
);
}
);
width = 1102;
}
);
note = percent;
unicode = 37;
},
{
glyphname = ampersand;
kernRight = ampersand;
layers = (
{
layerId = m01;
shapes = (
{
closed = 1;
nodes = (
(872,264,o),
(893,243,qs),
(914,222,o),
(914,190,qs),
(914,158,o),
(893,137,qs),
(872,116,o),
(840,116,qs),
(808,116,o),
(787,137,qs),
(766,158,o),
(766,190,qs),
(766,222,o),
(787,243,qs),
(808,264,o),
(840,264,qs)
);
},
{
closed = 1;
nodes = (
(267,261,o),
(287,241,qs),
(306,221,o),
(306,190,qs),
(306,158,o),
(287,138,qs),
(267,118,o),
(236,118,qs),
(188,118,l),
(188,261,l),
(236,261,ls)
);
},
{
closed = 1;
nodes = (
(776,612,l),
(776,360,l),
(942,360,l),
(942,394,l),
(812,394,l),
(812,470,l),
(931,470,l),
(931,504,l),
(812,504,l),
(812,577,l),
(942,577,l),
(942,612,l)
);
},
{
closed = 1;
nodes = (
(942,146,o),
(942,190,qs),
(942,234,o),
(913,262,qs),
(884,291,o),
(840,291,qs),
(796,291,o),
(767,262,qs),
(738,234,o),
(738,190,qs),
(738,146,o),
(767,117,qs),
(796,89,o),
(840,89,qs),
(884,89,o),
(913,117,qs)
);
},
{
closed = 1;
nodes = (
(688,288,l),
(615,178,l),
(542,288,l),
(523,288,l),
(523,91,l),
(551,91,l),
(551,226,l),
(615,129,l),
(680,226,l),
(680,91,l),
(708,91,l),
(708,288,l)
);
},
{
closed = 1;
nodes = (
(537,360,l),
(473,455,l),
(501,461,o),
(518,482,qs),
(534,503,o),
(534,531,qs),
(534,567,o),
(511,589,qs),
(488,612,o),
(450,612,qs),
(354,612,l),
(354,360,l),
(390,360,l),
(390,577,l),
(450,577,ls),
(470,577,o),
(484,564,qs),
(498,551,o),
(498,530,qs),
(498,509,o),
(484,496,qs),
(470,482,o),
(450,482,qs),
(415,482,l),
(498,360,l)
);
},
{
closed = 1;
nodes = (
(364,288,l),
(364,91,l),
(493,91,l),
(493,118,l),
(392,118,l),
(392,177,l),
(485,177,l),
(485,204,l),
(392,204,l),
(392,261,l),
(493,261,l),
(493,288,l)
);
},
{
closed = 1;
nodes = (
(334,147,o),
(334,190,qs),
(334,233,o),
(307,260,qs),
(278,288,o),
(234,288,qs),
(160,288,l),
(160,91,l),
(234,91,ls),
(279,91,o),
(307,119,qs)
);
},
{
closed = 1;
nodes = (
(196,360,l),
(196,462,l),
(314,462,l),
(314,497,l),
(196,497,l),
(196,577,l),
(318,577,l),
(318,612,l),
(160,612,l),
(160,360,l)
);
},
{
closed = 1;
nodes = (
(739,360,l),
(739,394,l),
(609,394,l),
(609,470,l),
(728,470,l),
(728,504,l),
(609,504,l),
(609,577,l),
(739,577,l),
(739,612,l),
(573,612,l),
(573,360,l)
);
},
{
closed = 1;
nodes = (
(1032,700,l),
(1032,0,l),
(70,0,l),
(70,700,l)
);
}
);
width = 1102;
}
);
note = ampersand;
unicode = 38;
},
{
glyphname = quotesingle;
kernRight = quotedbl;
lastChange = "2022-02-25 02:16:35 +0000";
layers = (
{
layerId = m01;
shapes = (
{
closed = 1;
nodes = (
(45,491,l),
(87,714,l),
(173,711,l),
(127,475,l)
);
}
);
width = 218;
}
);
note = quotesingle;
unicode = 39;
},
{
glyphname = parenleft;
layers = (
{
layerId = m01;
shapes = (
{
closed = 1;
nodes = (
(872,264,o),
(893,243,qs),
(914,222,o),
(914,190,qs),
(914,158,o),
(893,137,qs),
(872,116,o),
(840,116,qs),
(808,116,o),
(787,137,qs),
(766,158,o),
(766,190,qs),
(766,222,o),
(787,243,qs),
(808,264,o),
(840,264,qs)
);
},
{
closed = 1;
nodes = (
(267,261,o),
(287,241,qs),
(306,221,o),
(306,190,qs),
(306,158,o),
(287,138,qs),
(267,118,o),
(236,118,qs),
(188,118,l),
(188,261,l),
(236,261,ls)
);
},
{
closed = 1;
nodes = (
(776,612,l),
(776,360,l),
(942,360,l),
(942,394,l),
(812,394,l),
(812,470,l),
(931,470,l),
(931,504,l),
(812,504,l),
(812,577,l),
(942,577,l),
(942,612,l)
);
},
{
closed = 1;
nodes = (
(942,146,o),
(942,190,qs),
(942,234,o),
(913,262,qs),
(884,291,o),
(840,291,qs),
(796,291,o),
(767,262,qs),
(738,234,o),
(738,190,qs),
(738,146,o),
(767,117,qs),
(796,89,o),
(840,89,qs),
(884,89,o),
(913,117,qs)
);
},
{
closed = 1;
nodes = (
(688,288,l),
(615,178,l),
(542,288,l),
(523,288,l),
(523,91,l),
(551,91,l),
(551,226,l),
(615,129,l),
(680,226,l),
(680,91,l),
(708,91,l),
(708,288,l)
);
},
{
closed = 1;
nodes = (
(537,360,l),
(473,455,l),
(501,461,o),
(518,482,qs),
(534,503,o),
(534,531,qs),
(534,567,o),
(511,589,qs),
(488,612,o),
(450,612,qs),
(354,612,l),
(354,360,l),
(390,360,l),
(390,577,l),
(450,577,ls),
(470,577,o),
(484,564,qs),
(498,551,o),
(498,530,qs),
(498,509,o),
(484,496,qs),
(470,482,o),
(450,482,qs),
(415,482,l),
(498,360,l)
);
},
{
closed = 1;
nodes = (
(364,288,l),
(364,91,l),
(493,91,l),
(493,118,l),
(392,118,l),
(392,177,l),
(485,177,l),
(485,204,l),
(392,204,l),
(392,261,l),
(493,261,l),
(493,288,l)
);
},
{
closed = 1;
nodes = (
(334,147,o),
(334,190,qs),
(334,233,o),
(307,260,qs),
(278,288,o),
(234,288,qs),
(160,288,l),
(160,91,l),
(234,91,ls),
(279,91,o),
(307,119,qs)
);
},
{
closed = 1;
nodes = (
(196,360,l),
(196,462,l),
(314,462,l),
(314,497,l),
(196,497,l),
(196,577,l),
(318,577,l),
(318,612,l),
(160,612,l),
(160,360,l)
);
},
{
closed = 1;
nodes = (
(739,360,l),
(739,394,l),
(609,394,l),
(609,470,l),
(728,470,l),
(728,504,l),
(609,504,l),
(609,577,l),
(739,577,l),
(739,612,l),
(573,612,l),
(573,360,l)
);
},
{
closed = 1;
nodes = (
(1032,700,l),
(1032,0,l),
(70,0,l),
(70,700,l)
);
}
);
width = 1102;
}
);
note = parenleft;
unicode = 40;
},
{
glyphname = parenright;
layers = (
{
layerId = m01;
shapes = (
{
closed = 1;
nodes = (
(872,264,o),
(893,243,qs),
(914,222,o),
(914,190,qs),
(914,158,o),
(893,137,qs),
(872,116,o),
(840,116,qs),
(808,116,o),
(787,137,qs),
(766,158,o),
(766,190,qs),
(766,222,o),
(787,243,qs),
(808,264,o),
(840,264,qs)
);
},
{
closed = 1;
nodes = (
(267,261,o),
(287,241,qs),
(306,221,o),
(306,190,qs),
(306,158,o),
(287,138,qs),
(267,118,o),
(236,118,qs),
(188,118,l),
(188,261,l),
(236,261,ls)
);
},
{
closed = 1;
nodes = (
(776,612,l),
(776,360,l),
(942,360,l),
(942,394,l),
(812,394,l),
(812,470,l),
(931,470,l),
(931,504,l),
(812,504,l),
(812,577,l),
(942,577,l),
(942,612,l)
);
},
{
closed = 1;
nodes = (
(942,146,o),
(942,190,qs),
(942,234,o),
(913,262,qs),
(884,291,o),
(840,291,qs),
(796,291,o),
(767,262,qs),
(738,234,o),
(738,190,qs),
(738,146,o),
(767,117,qs),
(796,89,o),
(840,89,qs),
(884,89,o),
(913,117,qs)
);
},
{
closed = 1;
nodes = (
(688,288,l),
(615,178,l),
(542,288,l),
(523,288,l),
(523,91,l),
(551,91,l),
(551,226,l),
(615,129,l),
(680,226,l),
(680,91,l),
(708,91,l),
(708,288,l)
);
},
{
closed = 1;
nodes = (
(537,360,l),
(473,455,l),
(501,461,o),
(518,482,qs),
(534,503,o),
(534,531,qs),
(534,567,o),
(511,589,qs),
(488,612,o),
(450,612,qs),
(354,612,l),
(354,360,l),
(390,360,l),
(390,577,l),
(450,577,ls),
(470,577,o),
(484,564,qs),
(498,551,o),
(498,530,qs),
(498,509,o),
(484,496,qs),
(470,482,o),
(450,482,qs),
(415,482,l),
(498,360,l)
);
},
{
closed = 1;
nodes = (
(364,288,l),
(364,91,l),
(493,91,l),
(493,118,l),
(392,118,l),
(392,177,l),
(485,177,l),
(485,204,l),
(392,204,l),
(392,261,l),
(493,261,l),
(493,288,l)
);
},
{
closed = 1;
nodes = (
(334,147,o),
(334,190,qs),
(334,233,o),
(307,260,qs),
(278,288,o),
(234,288,qs),
(160,288,l),
(160,91,l),
(234,91,ls),
(279,91,o),
(307,119,qs)
);
},
{
closed = 1;
nodes = (
(196,360,l),
(196,462,l),
(314,462,l),
(314,497,l),
(196,497,l),
(196,577,l),
(318,577,l),
(318,612,l),
(160,612,l),
(160,360,l)
);
},
{
closed = 1;
nodes = (
(739,360,l),
(739,394,l),
(609,394,l),
(609,470,l),
(728,470,l),
(728,504,l),
(609,504,l),
(609,577,l),
(739,577,l),
(739,612,l),
(573,612,l),
(573,360,l)
);
},
{
closed = 1;
nodes = (
(1032,700,l),
(1032,0,l),
(70,0,l),
(70,700,l)
);
}
);
width = 1102;
}
);
note = parenright;
unicode = 41;
},
{
glyphname = asterisk;
kernRight = asterisk;
layers = (
{
layerId = m01;
shapes = (
{
closed = 1;
nodes = (
(872,264,o),
(893,243,qs),
(914,222,o),
(914,190,qs),
(914,158,o),
(893,137,qs),
(872,116,o),
(840,116,qs),
(808,116,o),
(787,137,qs),
(766,158,o),
(766,190,qs),
(766,222,o),
(787,243,qs),
(808,264,o),
(840,264,qs)
);
},
{
closed = 1;
nodes = (
(267,261,o),
(287,241,qs),
(306,221,o),
(306,190,qs),
(306,158,o),
(287,138,qs),
(267,118,o),
(236,118,qs),
(188,118,l),
(188,261,l),
(236,261,ls)
);
},
{
closed = 1;
nodes = (
(776,612,l),
(776,360,l),
(942,360,l),
(942,394,l),
(812,394,l),
(812,470,l),
(931,470,l),
(931,504,l),
(812,504,l),
(812,577,l),
(942,577,l),
(942,612,l)
);
},
{
closed = 1;
nodes = (
(942,146,o),
(942,190,qs),
(942,234,o),
(913,262,qs),
(884,291,o),
(840,291,qs),
(796,291,o),
(767,262,qs),
(738,234,o),
(738,190,qs),
(738,146,o),
(767,117,qs),
(796,89,o),
(840,89,qs),
(884,89,o),
(913,117,qs)
);
},
{
closed = 1;
nodes = (
(688,288,l),
(615,178,l),
(542,288,l),
(523,288,l),
(523,91,l),
(551,91,l),
(551,226,l),
(615,129,l),
(680,226,l),
(680,91,l),
(708,91,l),
(708,288,l)
);
},
{
closed = 1;
nodes = (
(537,360,l),
(473,455,l),
(501,461,o),
(518,482,qs),
(534,503,o),
(534,531,qs),
(534,567,o),
(511,589,qs),
(488,612,o),
(450,612,qs),
(354,612,l),
(354,360,l),
(390,360,l),
(390,577,l),
(450,577,ls),
(470,577,o),
(484,564,qs),
(498,551,o),
(498,530,qs),
(498,509,o),
(484,496,qs),
(470,482,o),
(450,482,qs),
(415,482,l),
(498,360,l)
);
},
{
closed = 1;
nodes = (
(364,288,l),
(364,91,l),
(493,91,l),
(493,118,l),
(392,118,l),
(392,177,l),
(485,177,l),
(485,204,l),
(392,204,l),
(392,261,l),
(493,261,l),
(493,288,l)
);
},
{
closed = 1;
nodes = (
(334,147,o),
(334,190,qs),
(334,233,o),
(307,260,qs),
(278,288,o),
(234,288,qs),
(160,288,l),
(160,91,l),
(234,91,ls),
(279,91,o),
(307,119,qs)
);
},
{
closed = 1;
nodes = (
(196,360,l),
(196,462,l),
(314,462,l),
(314,497,l),
(196,497,l),
(196,577,l),
(318,577,l),
(318,612,l),
(160,612,l),
(160,360,l)
);
},
{
closed = 1;
nodes = (
(739,360,l),
(739,394,l),
(609,394,l),
(609,470,l),
(728,470,l),
(728,504,l),
(609,504,l),
(609,577,l),
(739,577,l),
(739,612,l),
(573,612,l),
(573,360,l)
);
},
{
closed = 1;
nodes = (
(1032,700,l),
(1032,0,l),
(70,0,l),
(70,700,l)
);
}
);
width = 1102;
}
);
note = asterisk;
unicode = 42;
},
{
glyphname = plus;
kernRight = plus;
layers = (
{
layerId = m01;
shapes = (
{
closed = 1;
nodes = (
(872,264,o),
(893,243,qs),
(914,222,o),
(914,190,qs),
(914,158,o),
(893,137,qs),
(872,116,o),
(840,116,qs),
(808,116,o),
(787,137,qs),
(766,158,o),
(766,190,qs),
(766,222,o),
(787,243,qs),
(808,264,o),
(840,264,qs)
);
},
{
closed = 1;
nodes = (
(267,261,o),
(287,241,qs),
(306,221,o),
(306,190,qs),
(306,158,o),
(287,138,qs),
(267,118,o),
(236,118,qs),
(188,118,l),
(188,261,l),
(236,261,ls)
);
},
{
closed = 1;
nodes = (
(776,612,l),
(776,360,l),
(942,360,l),
(942,394,l),
(812,394,l),
(812,470,l),
(931,470,l),
(931,504,l),
(812,504,l),
(812,577,l),
(942,577,l),
(942,612,l)
);
},
{
closed = 1;
nodes = (
(942,146,o),
(942,190,qs),
(942,234,o),
(913,262,qs),
(884,291,o),
(840,291,qs),
(796,291,o),
(767,262,qs),
(738,234,o),
(738,190,qs),
(738,146,o),
(767,117,qs),
(796,89,o),
(840,89,qs),
(884,89,o),
(913,117,qs)
);
},
{
closed = 1;
nodes = (
(688,288,l),
(615,178,l),
(542,288,l),
(523,288,l),
(523,91,l),
(551,91,l),
(551,226,l),
(615,129,l),
(680,226,l),
(680,91,l),
(708,91,l),
(708,288,l)
);
},
{
closed = 1;
nodes = (
(537,360,l),
(473,455,l),
(501,461,o),
(518,482,qs),
(534,503,o),
(534,531,qs),
(534,567,o),
(511,589,qs),
(488,612,o),
(450,612,qs),
(354,612,l),
(354,360,l),
(390,360,l),
(390,577,l),
(450,577,ls),
(470,577,o),
(484,564,qs),
(498,551,o),
(498,530,qs),
(498,509,o),
(484,496,qs),
(470,482,o),
(450,482,qs),
(415,482,l),
(498,360,l)
);
},
{
closed = 1;
nodes = (
(364,288,l),
(364,91,l),
(493,91,l),
(493,118,l),
(392,118,l),
(392,177,l),
(485,177,l),
(485,204,l),
(392,204,l),
(392,261,l),
(493,261,l),
(493,288,l)
);
},
{
closed = 1;
nodes = (
(334,147,o),
(334,190,qs),
(334,233,o),
(307,260,qs),
(278,288,o),
(234,288,qs),
(160,288,l),
(160,91,l),
(234,91,ls),
(279,91,o),
(307,119,qs)
);
},
{
closed = 1;
nodes = (
(196,360,l),
(196,462,l),
(314,462,l),
(314,497,l),
(196,497,l),
(196,577,l),
(318,577,l),
(318,612,l),
(160,612,l),
(160,360,l)
);
},
{
closed = 1;
nodes = (
(739,360,l),
(739,394,l),
(609,394,l),
(609,470,l),
(728,470,l),
(728,504,l),
(609,504,l),
(609,577,l),
(739,577,l),
(739,612,l),
(573,612,l),
(573,360,l)
);
},
{
closed = 1;
nodes = (
(1032,700,l),
(1032,0,l),
(70,0,l),
(70,700,l)
);
}
);
width = 1102;
}
);
note = plus;
unicode = 43;
},
{
glyphname = comma;
kernRight = comma;
lastChange = "2022-02-25 00:27:30 +0000";
layers = (
{
layerId = m01;
shapes = (
{
closed = 1;
nodes = (
(35,-120,l),
(80,103,l),
(165,100,l),
(117,-136,l)
);
}
);
width = 200;
}
);
note = comma;
unicode = 44;
},
{
glyphname = hyphen;
kernRight = hyphen;
lastChange = "2022-02-25 02:22:32 +0000";
layers = (
{
layerId = m01;
shapes = (
{
closed = 1;
nodes = (
(45,244,l),
(378,244,l),
(378,329,l),
(45,329,l)
);
}
);
width = 423;
}
);
note = hyphen;
unicode = 45;
},
{
glyphname = period;
kernRight = comma;
lastChange = "2022-02-25 00:13:54 +0000";
layers = (
{
layerId = m01;
shapes = (
{
closed = 1;
nodes = (
(115,4,l),
(35,84,l),
(115,164,l),
(195,84,l)
);
}
);
width = 230;
}
);
note = period;
unicode = 46;
},
{
glyphname = slash;
layers = (
{
layerId = m01;
shapes = (
{
closed = 1;
nodes = (
(872,264,o),
(893,243,qs),
(914,222,o),
(914,190,qs),
(914,158,o),
(893,137,qs),
(872,116,o),
(840,116,qs),
(808,116,o),
(787,137,qs),
(766,158,o),
(766,190,qs),
(766,222,o),
(787,243,qs),
(808,264,o),
(840,264,qs)
);
},
{
closed = 1;
nodes = (
(267,261,o),
(287,241,qs),
(306,221,o),
(306,190,qs),
(306,158,o),
(287,138,qs),
(267,118,o),
(236,118,qs),
(188,118,l),
(188,261,l),
(236,261,ls)
);
},
{
closed = 1;
nodes = (
(776,612,l),
(776,360,l),
(942,360,l),
(942,394,l),
(812,394,l),
(812,470,l),
(931,470,l),
(931,504,l),
(812,504,l),
(812,577,l),
(942,577,l),
(942,612,l)
);
},
{
closed = 1;
nodes = (
(942,146,o),
(942,190,qs),
(942,234,o),
(913,262,qs),
(884,291,o),
(840,291,qs),
(796,291,o),
(767,262,qs),
(738,234,o),
(738,190,qs),
(738,146,o),
(767,117,qs),
(796,89,o),
(840,89,qs),
(884,89,o),
(913,117,qs)
);
},
{
closed = 1;
nodes = (
(688,288,l),
(615,178,l),
(542,288,l),
(523,288,l),
(523,91,l),
(551,91,l),
(551,226,l),
(615,129,l),
(680,226,l),
(680,91,l),
(708,91,l),
(708,288,l)
);
},
{
closed = 1;
nodes = (
(537,360,l),
(473,455,l),
(501,461,o),
(518,482,qs),
(534,503,o),
(534,531,qs),
(534,567,o),
(511,589,qs),
(488,612,o),
(450,612,qs),
(354,612,l),
(354,360,l),
(390,360,l),
(390,577,l),
(450,577,ls),
(470,577,o),
(484,564,qs),
(498,551,o),
(498,530,qs),
(498,509,o),
(484,496,qs),
(470,482,o),
(450,482,qs),
(415,482,l),
(498,360,l)
);
},
{
closed = 1;
nodes = (
(364,288,l),
(364,91,l),
(493,91,l),
(493,118,l),
(392,118,l),
(392,177,l),
(485,177,l),
(485,204,l),
(392,204,l),
(392,261,l),
(493,261,l),
(493,288,l)
);
},
{
closed = 1;
nodes = (
(334,147,o),
(334,190,qs),
(334,233,o),
(307,260,qs),
(278,288,o),
(234,288,qs),
(160,288,l),
(160,91,l),
(234,91,ls),
(279,91,o),
(307,119,qs)
);
},
{
closed = 1;
nodes = (
(196,360,l),
(196,462,l),
(314,462,l),
(314,497,l),
(196,497,l),
(196,577,l),
(318,577,l),
(318,612,l),
(160,612,l),
(160,360,l)
);
},
{
closed = 1;
nodes = (
(739,360,l),
(739,394,l),
(609,394,l),
(609,470,l),
(728,470,l),
(728,504,l),
(609,504,l),
(609,577,l),
(739,577,l),
(739,612,l),
(573,612,l),
(573,360,l)
);
},
{
closed = 1;
nodes = (
(1032,700,l),
(1032,0,l),
(70,0,l),
(70,700,l)
);
}
);
width = 1102;
}
);
note = slash;
unicode = 47;
},
{
glyphname = zero;
kernLeft = zero;
layers = (
{
layerId = m01;
shapes = (
{
closed = 1;
nodes = (
(456,526,o),
(413,570,qs),
(369,613,o),
(303,613,qs),
(237,613,o),
(193,570,qs),
(150,526,o),
(150,460,qs),
(150,240,ls),
(150,174,o),
(193,130,qs),
(237,87,o),
(303,87,qs),
(369,87,o),
(413,130,qs),
(456,174,o),
(456,240,qs),
(456,460,ls)
);
},
{
closed = 1;
nodes = (
(413,710,o),
(484,639,qs),
(556,568,o),
(556,460,qs),
(556,240,ls),
(556,132,o),
(484,61,qs),
(413,-10,o),
(303,-10,qs),
(193,-10,o),
(122,61,qs),
(50,132,o),
(50,240,qs),
(50,460,ls),
(50,568,o),
(122,639,qs),
(193,710,o),
(303,710,qs)
);
}
);
width = 606;
}
);
note = zero;
unicode = 48;
},
{
glyphname = one;
kernLeft = one;
layers = (
{
layerId = m01;
shapes = (
{
closed = 1;
nodes = (
(240,0,l),
(140,0,l),
(140,605,l),
(20,605,l),
(60,700,l),
(240,700,l)
);
}
);
width = 310;
}
);
note = one;
unicode = 49;
},
{
glyphname = two;
kernLeft = two;
layers = (
{
layerId = m01;
shapes = (
{
closed = 1;
nodes = (
(135,394,o),
(178,350,qs),
(222,307,o),
(288,307,qs),
(354,307,o),
(398,350,qs),
(441,394,o),
(441,460,qs),
(441,526,o),
(398,570,qs),
(354,613,o),
(288,613,qs),
(222,613,o),
(178,570,qs),
(135,526,o),
(135,460,qs)
);
},
{
closed = 1;
nodes = (
(518,95,l),
(518,0,l),
(58,0,l),
(58,73,l),
(233,215,l),
(145,233,o),
(90,299,qs),
(35,366,o),
(35,460,qs),
(35,568,o),
(107,639,qs),
(178,710,o),
(288,710,qs),
(398,710,o),
(469,639,qs),
(541,568,o),
(541,460,qs),
(541,336,o),
(450,264,qs),
(242,95,l)
);
}
);
width = 576;
}
);
note = two;
unicode = 50;
},
{
glyphname = three;
kernLeft = three;
layers = (
{
layerId = m01;
shapes = (
{
closed = 1;
nodes = (
(422,467,o),
(476,401,qs),
(531,333,o),
(531,240,qs),
(531,132,o),
(459,61,qs),
(388,-10,o),
(278,-10,qs),
(168,-10,o),
(97,61,qs),
(25,132,o),
(25,240,q),
(125,240,l),
(125,174,o),
(168,130,qs),
(212,87,o),
(278,87,qs),
(344,87,o),
(388,130,qs),
(431,174,o),
(431,240,qs),
(431,306,o),
(388,350,qs),
(344,393,o),
(278,393,qs),
(221,393,o),
(179,359,q),
(116,436,l),
(116,437,l),
(317,600,l),
(48,600,l),
(48,700,l),
(508,700,l),
(508,626,l),
(334,485,l)
);
}
);
width = 566;
}
);
note = three;
unicode = 51;
},
{
glyphname = four;
kernLeft = four;
layers = (
{
layerId = m01;
shapes = (
{
closed = 1;
nodes = (
(141,195,l),
(370,195,l),
(370,400,l),
(470,400,l),
(470,195,l),
(550,195,l),
(550,100,l),
(470,100,l),
(470,0,l),
(370,0,l),
(370,100,l),
(20,100,l),
(20,175,l),
(300,700,l),
(410,700,l)
);
}
);
width = 565;
}
);
note = four;
unicode = 52;
},
{
glyphname = five;
kernLeft = five;
layers = (
{
layerId = m01;
shapes = (
{
closed = 1;
nodes = (
(399,490,o),
(467,419,qs),
(534,348,o),
(534,240,qs),
(534,132,o),
(463,61,qs),
(391,-10,o),
(281,-10,qs),
(177,-10,o),
(107,55,qs),
(37,119,o),
(30,220,q),
(130,220,l),
(137,161,o),
(178,124,qs),
(220,87,o),
(281,87,qs),
(347,87,o),
(391,130,qs),
(434,174,o),
(434,240,qs),
(434,306,o),
(391,350,qs),
(347,393,o),
(281,393,qs),
(170,393,o),
(134,300,q),
(33,300,l),
(71,700,l),
(491,700,l),
(491,605,l),
(162,605,l),
(147,438,l),
(210,490,o),
(296,490,qs)
);
}
);
width = 569;
}
);
note = five;
unicode = 53;
},
{
glyphname = six;
kernLeft = six;
layers = (
{
layerId = m01;
shapes = (
{
closed = 1;
nodes = (
(344,87,o),
(388,130,qs),
(431,174,o),
(431,240,qs),
(431,306,o),
(388,350,qs),
(344,393,o),
(278,393,qs),
(212,393,o),
(168,350,qs),
(125,306,o),
(125,240,qs),
(125,174,o),
(168,130,qs),
(212,87,o),
(278,87,qs)
);
},
{
closed = 1;
nodes = (
(388,490,o),
(459,419,qs),
(531,348,o),
(531,240,qs),
(531,132,o),
(459,61,qs),
(388,-10,o),
(278,-10,qs),
(168,-10,o),
(97,61,qs),
(25,132,o),
(25,240,qs),
(25,336,o),
(83,404,q),
(83,404,l),
(315,700,l),
(442,700,l),
(277,490,l),
(278,490,ls)
);
}
);
width = 556;
}
);
note = six;
unicode = 54;
},
{
glyphname = seven;
kernLeft = seven;
layers = (
{
layerId = m01;
shapes = (
{
closed = 1;
nodes = (
(465,625,l),
(215,0,l),
(110,0,l),
(352,605,l),
(15,605,l),
(15,700,l),
(465,700,l)
);
}
);
width = 495;
}
);
note = seven;
unicode = 55;
},
{
glyphname = eight;
kernLeft = eight;
layers = (
{
layerId = m01;
shapes = (
{
closed = 1;
nodes = (
(352,87,o),
(394,121,qs),
(435,155,o),
(435,210,qs),
(435,265,o),
(394,299,qs),
(352,333,o),
(285,333,qs),
(218,333,o),
(176,299,qs),
(135,265,o),
(135,210,qs),
(135,155,o),
(176,121,qs),
(218,87,o),
(285,87,qs)
);
},
{
closed = 1;
nodes = (
(230,613,o),
(198,588,qs),
(165,562,o),
(165,520,qs),
(165,478,o),
(198,452,qs),
(230,427,o),
(285,427,qs),
(340,427,o),
(372,452,qs),
(405,478,o),
(405,520,qs),
(405,562,o),
(372,588,qs),
(340,613,o),
(285,613,qs)
);
},
{
closed = 1;
nodes = (
(535,322,o),
(535,203,qs),
(535,110,o),
(464,50,qs),
(394,-10,o),
(285,-10,qs),
(176,-10,o),
(106,50,qs),
(35,110,o),
(35,203,qs),
(35,322,o),
(146,382,q),
(65,434,o),
(65,528,qs),
(65,608,o),
(126,659,qs),
(188,710,o),
(285,710,qs),
(382,710,o),
(444,659,qs),
(505,608,o),
(505,528,qs),
(505,434,o),
(424,382,q)
);
}
);
width = 570;
}
);
note = eight;
unicode = 56;
},
{
glyphname = nine;
kernLeft = nine;
layers = (
{
layerId = m01;
shapes = (
{
closed = 1;
nodes = (
(212,613,o),
(168,570,qs),
(125,526,o),
(125,460,qs),
(125,394,o),
(168,350,qs),
(212,307,o),
(278,307,qs),
(344,307,o),
(388,350,qs),
(431,394,o),
(431,460,qs),
(431,526,o),
(388,570,qs),
(344,613,o),
(278,613,qs)
);
},
{
closed = 1;
nodes = (
(168,210,o),
(97,281,qs),
(25,352,o),
(25,460,qs),
(25,568,o),
(97,639,qs),
(168,710,o),
(278,710,qs),
(388,710,o),
(459,639,qs),
(531,568,o),
(531,460,qs),
(531,364,o),
(473,296,q),
(473,296,l),
(241,0,l),
(115,0,l),
(280,210,l),
(278,210,ls)
);
}
);
width = 556;
}
);
note = nine;
unicode = 57;
},
{
glyphname = colon;
lastChange = "2022-02-25 00:16:46 +0000";
layers = (
{
layerId = m01;
shapes = (
{
closed = 1;
nodes = (
(115,33,l),
(35,113,l),
(115,193,l),
(195,113,l)
);
},
{
closed = 1;
nodes = (
(115,313,l),
(35,393,l),
(115,473,l),
(195,393,l)
);
}
);
width = 230;
}
);
note = colon;
unicode = 58;
},
{
glyphname = less;
kernRight = plus;
layers = (
{
layerId = m01;
shapes = (
{
closed = 1;
nodes = (
(872,264,o),
(893,243,qs),
(914,222,o),
(914,190,qs),
(914,158,o),
(893,137,qs),
(872,116,o),
(840,116,qs),
(808,116,o),
(787,137,qs),
(766,158,o),
(766,190,qs),
(766,222,o),
(787,243,qs),
(808,264,o),
(840,264,qs)
);
},
{
closed = 1;
nodes = (
(267,261,o),
(287,241,qs),
(306,221,o),
(306,190,qs),
(306,158,o),
(287,138,qs),
(267,118,o),
(236,118,qs),
(188,118,l),
(188,261,l),
(236,261,ls)
);
},
{
closed = 1;
nodes = (
(776,612,l),
(776,360,l),
(942,360,l),
(942,394,l),
(812,394,l),
(812,470,l),
(931,470,l),
(931,504,l),
(812,504,l),
(812,577,l),
(942,577,l),
(942,612,l)
);
},
{
closed = 1;
nodes = (
(942,146,o),
(942,190,qs),
(942,234,o),
(913,262,qs),
(884,291,o),
(840,291,qs),
(796,291,o),
(767,262,qs),
(738,234,o),
(738,190,qs),
(738,146,o),
(767,117,qs),
(796,89,o),
(840,89,qs),
(884,89,o),
(913,117,qs)
);
},
{
closed = 1;
nodes = (
(688,288,l),
(615,178,l),
(542,288,l),
(523,288,l),
(523,91,l),
(551,91,l),
(551,226,l),
(615,129,l),
(680,226,l),
(680,91,l),
(708,91,l),
(708,288,l)
);
},
{
closed = 1;
nodes = (
(537,360,l),
(473,455,l),
(501,461,o),
(518,482,qs),
(534,503,o),
(534,531,qs),
(534,567,o),
(511,589,qs),
(488,612,o),
(450,612,qs),
(354,612,l),
(354,360,l),
(390,360,l),
(390,577,l),
(450,577,ls),
(470,577,o),
(484,564,qs),
(498,551,o),
(498,530,qs),
(498,509,o),
(484,496,qs),
(470,482,o),
(450,482,qs),
(415,482,l),
(498,360,l)
);
},
{
closed = 1;
nodes = (
(364,288,l),
(364,91,l),
(493,91,l),
(493,118,l),
(392,118,l),
(392,177,l),
(485,177,l),
(485,204,l),
(392,204,l),
(392,261,l),
(493,261,l),
(493,288,l)
);
},
{
closed = 1;
nodes = (
(334,147,o),
(334,190,qs),
(334,233,o),
(307,260,qs),
(278,288,o),
(234,288,qs),
(160,288,l),
(160,91,l),
(234,91,ls),
(279,91,o),
(307,119,qs)
);
},
{
closed = 1;
nodes = (
(196,360,l),
(196,462,l),
(314,462,l),
(314,497,l),
(196,497,l),
(196,577,l),
(318,577,l),
(318,612,l),
(160,612,l),
(160,360,l)
);
},
{
closed = 1;
nodes = (
(739,360,l),
(739,394,l),
(609,394,l),
(609,470,l),
(728,470,l),
(728,504,l),
(609,504,l),
(609,577,l),
(739,577,l),
(739,612,l),
(573,612,l),
(573,360,l)
);
},
{
closed = 1;
nodes = (
(1032,700,l),
(1032,0,l),
(70,0,l),
(70,700,l)
);
}
);
width = 1102;
}
);
note = less;
unicode = 60;
},
{
glyphname = equal;
kernRight = plus;
layers = (
{
layerId = m01;
shapes = (
{
closed = 1;
nodes = (
(872,264,o),
(893,243,qs),
(914,222,o),
(914,190,qs),
(914,158,o),
(893,137,qs),
(872,116,o),
(840,116,qs),
(808,116,o),
(787,137,qs),
(766,158,o),
(766,190,qs),
(766,222,o),
(787,243,qs),
(808,264,o),
(840,264,qs)
);
},
{
closed = 1;
nodes = (
(267,261,o),
(287,241,qs),
(306,221,o),
(306,190,qs),
(306,158,o),
(287,138,qs),
(267,118,o),
(236,118,qs),
(188,118,l),
(188,261,l),
(236,261,ls)
);
},
{
closed = 1;
nodes = (
(776,612,l),
(776,360,l),
(942,360,l),
(942,394,l),
(812,394,l),
(812,470,l),
(931,470,l),
(931,504,l),
(812,504,l),
(812,577,l),
(942,577,l),
(942,612,l)
);
},
{
closed = 1;
nodes = (
(942,146,o),
(942,190,qs),
(942,234,o),
(913,262,qs),
(884,291,o),
(840,291,qs),
(796,291,o),
(767,262,qs),
(738,234,o),
(738,190,qs),
(738,146,o),
(767,117,qs),
(796,89,o),
(840,89,qs),
(884,89,o),
(913,117,qs)
);
},
{
closed = 1;
nodes = (
(688,288,l),
(615,178,l),
(542,288,l),
(523,288,l),
(523,91,l),
(551,91,l),
(551,226,l),
(615,129,l),
(680,226,l),
(680,91,l),
(708,91,l),
(708,288,l)
);
},
{
closed = 1;
nodes = (
(537,360,l),
(473,455,l),
(501,461,o),
(518,482,qs),
(534,503,o),
(534,531,qs),
(534,567,o),
(511,589,qs),
(488,612,o),
(450,612,qs),
(354,612,l),
(354,360,l),
(390,360,l),
(390,577,l),
(450,577,ls),
(470,577,o),
(484,564,qs),
(498,551,o),
(498,530,qs),
(498,509,o),
(484,496,qs),
(470,482,o),
(450,482,qs),
(415,482,l),
(498,360,l)
);
},
{
closed = 1;
nodes = (
(364,288,l),
(364,91,l),
(493,91,l),
(493,118,l),
(392,118,l),
(392,177,l),
(485,177,l),
(485,204,l),
(392,204,l),
(392,261,l),
(493,261,l),
(493,288,l)
);
},
{
closed = 1;
nodes = (
(334,147,o),
(334,190,qs),
(334,233,o),
(307,260,qs),
(278,288,o),
(234,288,qs),
(160,288,l),
(160,91,l),
(234,91,ls),
(279,91,o),
(307,119,qs)
);
},
{
closed = 1;
nodes = (
(196,360,l),
(196,462,l),
(314,462,l),
(314,497,l),
(196,497,l),
(196,577,l),
(318,577,l),
(318,612,l),
(160,612,l),
(160,360,l)
);
},
{
closed = 1;
nodes = (
(739,360,l),
(739,394,l),
(609,394,l),
(609,470,l),
(728,470,l),
(728,504,l),
(609,504,l),
(609,577,l),
(739,577,l),
(739,612,l),
(573,612,l),
(573,360,l)
);
},
{
closed = 1;
nodes = (
(1032,700,l),
(1032,0,l),
(70,0,l),
(70,700,l)
);
}
);
width = 1102;
}
);
note = equal;
unicode = 61;
},
{
glyphname = greater;
kernRight = plus;
layers = (
{
layerId = m01;
shapes = (
{
closed = 1;
nodes = (
(872,264,o),
(893,243,qs),
(914,222,o),
(914,190,qs),
(914,158,o),
(893,137,qs),
(872,116,o),
(840,116,qs),
(808,116,o),
(787,137,qs),
(766,158,o),
(766,190,qs),
(766,222,o),
(787,243,qs),
(808,264,o),
(840,264,qs)
);
},
{
closed = 1;
nodes = (
(267,261,o),
(287,241,qs),
(306,221,o),
(306,190,qs),
(306,158,o),
(287,138,qs),
(267,118,o),
(236,118,qs),
(188,118,l),
(188,261,l),
(236,261,ls)
);
},
{
closed = 1;
nodes = (
(776,612,l),
(776,360,l),
(942,360,l),
(942,394,l),
(812,394,l),
(812,470,l),
(931,470,l),
(931,504,l),
(812,504,l),
(812,577,l),
(942,577,l),
(942,612,l)
);
},
{
closed = 1;
nodes = (
(942,146,o),
(942,190,qs),
(942,234,o),
(913,262,qs),
(884,291,o),
(840,291,qs),
(796,291,o),
(767,262,qs),
(738,234,o),
(738,190,qs),
(738,146,o),
(767,117,qs),
(796,89,o),
(840,89,qs),
(884,89,o),
(913,117,qs)
);
},
{
closed = 1;
nodes = (
(688,288,l),
(615,178,l),
(542,288,l),
(523,288,l),
(523,91,l),
(551,91,l),
(551,226,l),
(615,129,l),
(680,226,l),
(680,91,l),
(708,91,l),
(708,288,l)
);
},
{
closed = 1;
nodes = (
(537,360,l),
(473,455,l),
(501,461,o),
(518,482,qs),
(534,503,o),
(534,531,qs),
(534,567,o),
(511,589,qs),
(488,612,o),
(450,612,qs),
(354,612,l),
(354,360,l),
(390,360,l),
(390,577,l),
(450,577,ls),
(470,577,o),
(484,564,qs),
(498,551,o),
(498,530,qs),
(498,509,o),
(484,496,qs),
(470,482,o),
(450,482,qs),
(415,482,l),
(498,360,l)
);
},
{
closed = 1;
nodes = (
(364,288,l),
(364,91,l),
(493,91,l),
(493,118,l),
(392,118,l),
(392,177,l),
(485,177,l),
(485,204,l),
(392,204,l),
(392,261,l),
(493,261,l),
(493,288,l)
);
},
{
closed = 1;
nodes = (
(334,147,o),
(334,190,qs),
(334,233,o),
(307,260,qs),
(278,288,o),
(234,288,qs),
(160,288,l),
(160,91,l),
(234,91,ls),
(279,91,o),
(307,119,qs)
);
},
{
closed = 1;
nodes = (
(196,360,l),
(196,462,l),
(314,462,l),
(314,497,l),
(196,497,l),
(196,577,l),
(318,577,l),
(318,612,l),
(160,612,l),
(160,360,l)
);
},
{
closed = 1;
nodes = (
(739,360,l),
(739,394,l),
(609,394,l),
(609,470,l),
(728,470,l),
(728,504,l),
(609,504,l),
(609,577,l),
(739,577,l),
(739,612,l),
(573,612,l),
(573,360,l)
);
},
{
closed = 1;
nodes = (
(1032,700,l),
(1032,0,l),
(70,0,l),
(70,700,l)
);
}
);
width = 1102;
}
);
note = greater;
unicode = 62;
},
{
glyphname = question;
layers = (
{
layerId = m01;
shapes = (
{
closed = 1;
nodes = (
(872,264,o),
(893,243,qs),
(914,222,o),
(914,190,qs),
(914,158,o),
(893,137,qs),
(872,116,o),
(840,116,qs),
(808,116,o),
(787,137,qs),
(766,158,o),
(766,190,qs),
(766,222,o),
(787,243,qs),
(808,264,o),
(840,264,qs)
);
},
{
closed = 1;
nodes = (
(267,261,o),
(287,241,qs),
(306,221,o),
(306,190,qs),
(306,158,o),
(287,138,qs),
(267,118,o),
(236,118,qs),
(188,118,l),
(188,261,l),
(236,261,ls)
);
},
{
closed = 1;
nodes = (
(776,612,l),
(776,360,l),
(942,360,l),
(942,394,l),
(812,394,l),
(812,470,l),
(931,470,l),
(931,504,l),
(812,504,l),
(812,577,l),
(942,577,l),
(942,612,l)
);
},
{
closed = 1;
nodes = (
(942,146,o),
(942,190,qs),
(942,234,o),
(913,262,qs),
(884,291,o),
(840,291,qs),
(796,291,o),
(767,262,qs),
(738,234,o),
(738,190,qs),
(738,146,o),
(767,117,qs),
(796,89,o),
(840,89,qs),
(884,89,o),
(913,117,qs)
);
},
{
closed = 1;
nodes = (
(688,288,l),
(615,178,l),
(542,288,l),
(523,288,l),
(523,91,l),
(551,91,l),
(551,226,l),
(615,129,l),
(680,226,l),
(680,91,l),
(708,91,l),
(708,288,l)
);
},
{
closed = 1;
nodes = (
(537,360,l),
(473,455,l),
(501,461,o),
(518,482,qs),
(534,503,o),
(534,531,qs),
(534,567,o),
(511,589,qs),
(488,612,o),
(450,612,qs),
(354,612,l),
(354,360,l),
(390,360,l),
(390,577,l),
(450,577,ls),
(470,577,o),
(484,564,qs),
(498,551,o),
(498,530,qs),
(498,509,o),
(484,496,qs),
(470,482,o),
(450,482,qs),
(415,482,l),
(498,360,l)
);
},
{
closed = 1;
nodes = (
(364,288,l),
(364,91,l),
(493,91,l),
(493,118,l),
(392,118,l),
(392,177,l),
(485,177,l),
(485,204,l),
(392,204,l),
(392,261,l),
(493,261,l),
(493,288,l)
);
},
{
closed = 1;
nodes = (
(334,147,o),
(334,190,qs),
(334,233,o),
(307,260,qs),
(278,288,o),
(234,288,qs),
(160,288,l),
(160,91,l),
(234,91,ls),
(279,91,o),
(307,119,qs)
);
},
{
closed = 1;
nodes = (
(196,360,l),
(196,462,l),
(314,462,l),
(314,497,l),
(196,497,l),
(196,577,l),
(318,577,l),
(318,612,l),
(160,612,l),
(160,360,l)
);
},
{
closed = 1;
nodes = (
(739,360,l),
(739,394,l),
(609,394,l),
(609,470,l),
(728,470,l),
(728,504,l),
(609,504,l),
(609,577,l),
(739,577,l),
(739,612,l),
(573,612,l),
(573,360,l)
);
},
{
closed = 1;
nodes = (
(1032,700,l),
(1032,0,l),
(70,0,l),
(70,700,l)
);
}
);
width = 1102;
}
);
note = question;
unicode = 63;
},
{
glyphname = at;
kernRight = at;
layers = (
{
layerId = m01;
shapes = (
{
closed = 1;
nodes = (
(872,264,o),
(893,243,qs),
(914,222,o),
(914,190,qs),
(914,158,o),
(893,137,qs),
(872,116,o),
(840,116,qs),
(808,116,o),
(787,137,qs),
(766,158,o),
(766,190,qs),
(766,222,o),
(787,243,qs),
(808,264,o),
(840,264,qs)
);
},
{
closed = 1;
nodes = (
(267,261,o),
(287,241,qs),
(306,221,o),
(306,190,qs),
(306,158,o),
(287,138,qs),
(267,118,o),
(236,118,qs),
(188,118,l),
(188,261,l),
(236,261,ls)
);
},
{
closed = 1;
nodes = (
(776,612,l),
(776,360,l),
(942,360,l),
(942,394,l),
(812,394,l),
(812,470,l),
(931,470,l),
(931,504,l),
(812,504,l),
(812,577,l),
(942,577,l),
(942,612,l)
);
},
{
closed = 1;
nodes = (
(942,146,o),
(942,190,qs),
(942,234,o),
(913,262,qs),
(884,291,o),
(840,291,qs),
(796,291,o),
(767,262,qs),
(738,234,o),
(738,190,qs),
(738,146,o),
(767,117,qs),
(796,89,o),
(840,89,qs),
(884,89,o),
(913,117,qs)
);
},
{
closed = 1;
nodes = (
(688,288,l),
(615,178,l),
(542,288,l),
(523,288,l),
(523,91,l),
(551,91,l),
(551,226,l),
(615,129,l),
(680,226,l),
(680,91,l),
(708,91,l),
(708,288,l)
);
},
{
closed = 1;
nodes = (
(537,360,l),
(473,455,l),
(501,461,o),
(518,482,qs),
(534,503,o),
(534,531,qs),
(534,567,o),
(511,589,qs),
(488,612,o),
(450,612,qs),
(354,612,l),
(354,360,l),
(390,360,l),
(390,577,l),
(450,577,ls),
(470,577,o),
(484,564,qs),
(498,551,o),
(498,530,qs),
(498,509,o),
(484,496,qs),
(470,482,o),
(450,482,qs),
(415,482,l),
(498,360,l)
);
},
{
closed = 1;
nodes = (
(364,288,l),
(364,91,l),
(493,91,l),
(493,118,l),
(392,118,l),
(392,177,l),
(485,177,l),
(485,204,l),
(392,204,l),
(392,261,l),
(493,261,l),
(493,288,l)
);
},
{
closed = 1;
nodes = (
(334,147,o),
(334,190,qs),
(334,233,o),
(307,260,qs),
(278,288,o),
(234,288,qs),
(160,288,l),
(160,91,l),
(234,91,ls),
(279,91,o),
(307,119,qs)
);
},
{
closed = 1;
nodes = (
(196,360,l),
(196,462,l),
(314,462,l),
(314,497,l),
(196,497,l),
(196,577,l),
(318,577,l),
(318,612,l),
(160,612,l),
(160,360,l)
);
},
{
closed = 1;
nodes = (
(739,360,l),
(739,394,l),
(609,394,l),
(609,470,l),
(728,470,l),
(728,504,l),
(609,504,l),
(609,577,l),
(739,577,l),
(739,612,l),
(573,612,l),
(573,360,l)
);
},
{
closed = 1;
nodes = (
(1032,700,l),
(1032,0,l),
(70,0,l),
(70,700,l)
);
}
);
width = 1102;
}
);
note = at;
unicode = 64;
},
{
glyphname = A;
kernLeft = A;
layers = (
{
layerId = m01;
shapes = (
{
closed = 1;
nodes = (
(655,0,l),
(655,0,l),
(550,0,l),
(488,160,l),
(172,160,l),
(110,0,l),
(5,0,l),
(275,700,l),
(385,700,l)
);
},
{
closed = 1;
nodes = (
(452,255,l),
(330,570,l),
(208,255,l)
);
}
);
width = 660;
}
);
note = A;
unicode = 65;
},
{
glyphname = B;
layers = (
{
layerId = m01;
shapes = (
{
closed = 1;
nodes = (
(430,95,o),
(460,125,qs),
(490,155,o),
(490,200,qs),
(490,245,o),
(460,275,qs),
(430,305,o),
(385,305,qs),
(170,305,l),
(170,95,l),
(385,95,ls)
);
},
{
closed = 1;
nodes = (
(358,400,ls),
(402,400,o),
(431,429,qs),
(460,458,o),
(460,503,qs),
(460,547,o),
(431,576,qs),
(402,605,o),
(358,605,qs),
(170,605,l),
(170,400,l)
);
},
{
closed = 1;
nodes = (
(530,342,o),
(560,297,qs),
(590,250,o),
(590,190,qs),
(590,108,o),
(536,54,qs),
(482,0,o),
(400,0,qs),
(70,0,l),
(70,700,l),
(378,700,ls),
(457,700,o),
(508,648,qs),
(560,597,o),
(560,518,qs),
(560,415,o),
(480,364,q)
);
}
);
width = 625;
}
);
note = B;
unicode = 66;
},
{
glyphname = C;
kernLeft = C;
layers = (
{
layerId = m01;
shapes = (
{
closed = 1;
nodes = (
(739,163,o),
(641,77,qs),
(541,-10,o),
(398,-10,qs),
(241,-10,o),
(138,92,qs),
(35,194,o),
(35,350,qs),
(35,506,o),
(138,608,qs),
(241,710,o),
(398,710,qs),
(541,710,o),
(641,623,qs),
(739,537,o),
(756,400,q),
(656,400,l),
(640,495,o),
(570,554,qs),
(498,613,o),
(398,613,qs),
(284,613,o),
(210,539,qs),
(135,464,o),
(135,350,qs),
(135,236,o),
(210,162,qs),
(284,87,o),
(398,87,qs),
(498,87,o),
(570,146,qs),
(640,205,o),
(656,300,q),
(756,300,l)
);
}
);
width = 791;
}
);
note = C;
unicode = 67;
},
{
glyphname = D;
layers = (
{
layerId = m01;
shapes = (
{
closed = 1;
nodes = (
(452,95,o),
(522,167,qs),
(590,238,o),
(590,350,qs),
(590,462,o),
(522,533,qs),
(452,605,o),
(342,605,qs),
(170,605,l),
(170,95,l),
(342,95,ls)
);
},
{
closed = 1;
nodes = (
(492,700,o),
(592,601,qs),
(690,503,o),
(690,350,qs),
(690,197,o),
(592,99,qs),
(492,0,o),
(335,0,qs),
(70,0,l),
(70,700,l),
(335,700,ls)
);
}
);
width = 725;
}
);
note = D;
unicode = 68;
},
{
glyphname = E;
layers = (
{
layerId = m01;
shapes = (
{
closed = 1;
nodes = (
(530,605,l),
(170,605,l),
(170,400,l),
(500,400,l),
(500,305,l),
(170,305,l),
(170,95,l),
(530,95,l),
(530,0,l),
(70,0,l),
(70,700,l),
(530,700,l)
);
}
);
width = 565;
}
);
note = E;
unicode = 69;
},
{
glyphname = F;
layers = (
{
layerId = m01;
shapes = (
{
closed = 1;
nodes = (
(510,605,l),
(170,605,l),
(170,380,l),
(500,380,l),
(500,285,l),
(170,285,l),
(170,0,l),
(70,0,l),
(70,700,l),
(510,700,l)
);
}
);
width = 540;
}
);
note = F;
unicode = 70;
},
{
glyphname = G;
kernLeft = C;
layers = (
{
layerId = m01;
shapes = (
{
closed = 1;
nodes = (
(761,0,l),
(661,0,l),
(661,118,l),
(559,-10,o),
(388,-10,qs),
(235,-10,o),
(135,92,qs),
(35,194,o),
(35,350,qs),
(35,506,o),
(138,608,qs),
(241,710,o),
(398,710,qs),
(541,710,o),
(641,623,qs),
(739,537,o),
(756,400,q),
(656,400,l),
(640,495,o),
(570,554,qs),
(498,613,o),
(398,613,qs),
(284,613,o),
(210,538,qs),
(135,464,o),
(135,350,qs),
(135,236,o),
(210,162,qs),
(284,87,o),
(398,87,qs),
(504,87,o),
(576,152,qs),
(648,217,o),
(658,320,q),
(761,320,l)
);
}
);
width = 816;
}
);
note = G;
unicode = 71;
},
{
glyphname = H;
layers = (
{
layerId = m01;
shapes = (
{
closed = 1;
nodes = (
(610,0,l),
(510,0,l),
(510,305,l),
(170,305,l),
(170,0,l),
(70,0,l),
(70,700,l),
(170,700,l),
(170,400,l),
(510,400,l),
(510,700,l),
(610,700,l)
);
}
);
width = 680;
}
);
note = H;
unicode = 72;
},
{
glyphname = I;
layers = (
{
layerId = m01;
shapes = (
{
closed = 1;
nodes = (
(170,700,l),
(170,0,l),
(70,0,l),
(70,700,l)
);
}
);
width = 240;
}
);
note = I;
unicode = 73;
},
{
glyphname = J;
kernLeft = J;
layers = (
{
layerId = m01;
shapes = (
{
closed = 1;
nodes = (
(114,87,o),
(153,128,qs),
(190,165,o),
(190,265,qs),
(190,700,l),
(290,700,l),
(290,266,ls),
(290,124,o),
(225,60,qs),
(157,-8,o),
(10,0,q),
(10,95,l)
);
}
);
width = 350;
}
);
note = J;
unicode = 74;
},
{
glyphname = K;
layers = (
{
layerId = m01;
shapes = (
{
closed = 1;
nodes = (
(170,700,l),
(170,0,l),
(70,0,l),
(70,700,l)
);
},
{
closed = 1;
nodes = (
(310,350,l),
(600,0,l),
(480,0,l),
(190,350,l),
(480,700,l),
(600,700,l)
);
}
);
width = 610;
}
);
note = K;
unicode = 75;
},
{
glyphname = L;
layers = (
{
layerId = m01;
shapes = (
{
closed = 1;
nodes = (
(170,95,l),
(490,95,l),
(490,0,l),
(70,0,l),
(70,700,l),
(170,700,l)
);
}
);
width = 505;
}
);
note = L;
unicode = 76;
},
{
glyphname = M;
layers = (
{
layerId = m01;
shapes = (
{
closed = 1;
nodes = (
(730,0,l),
(630,0,l),
(630,480,l),
(400,135,l),
(170,480,l),
(170,0,l),
(70,0,l),
(70,700,l),
(140,700,l),
(400,310,l),
(660,700,l),
(730,700,l)
);
}
);
width = 800;
}
);
note = M;
unicode = 77;
},
{
glyphname = N;
layers = (
{
layerId = m01;
shapes = (
{
closed = 1;
nodes = (
(610,0,l),
(530,0,l),
(170,502,l),
(170,0,l),
(70,0,l),
(70,700,l),
(150,700,l),
(510,198,l),
(510,700,l),
(610,700,l)
);
}
);
width = 680;
}
);
note = N;
unicode = 78;
},
{
glyphname = O;
kernLeft = C;
layers = (
{
layerId = m01;
shapes = (
{
closed = 1;
nodes = (
(512,87,o),
(587,162,qs),
(661,236,o),
(661,350,qs),
(661,464,o),
(587,538,qs),
(512,613,o),
(398,613,qs),
(284,613,o),
(210,538,qs),
(135,464,o),
(135,350,qs),
(135,236,o),
(210,162,qs),
(284,87,o),
(398,87,qs)
);
},
{
closed = 1;
nodes = (
(555,710,o),
(658,608,qs),
(761,506,o),
(761,350,qs),
(761,194,o),
(658,92,qs),
(555,-10,o),
(398,-10,qs),
(241,-10,o),
(138,92,qs),
(35,194,o),
(35,350,qs),
(35,506,o),
(138,608,qs),
(241,710,o),
(398,710,qs)
);
}
);
width = 796;
}
);
note = O;
unicode = 79;
},
{
glyphname = P;
layers = (
{
layerId = m01;
shapes = (
{
closed = 1;
nodes = (
(384,340,o),
(422,378,qs),
(460,415,o),
(460,473,qs),
(460,530,o),
(422,567,qs),
(384,605,o),
(326,605,qs),
(170,605,l),
(170,340,l),
(326,340,ls)
);
},
{
closed = 1;
nodes = (
(429,700,o),
(495,636,qs),
(560,572,o),
(560,473,qs),
(560,373,o),
(495,309,qs),
(429,245,o),
(326,245,qs),
(170,245,l),
(170,0,l),
(70,0,l),
(70,700,l),
(326,700,ls)
);
}
);
width = 590;
}
);
note = P;
unicode = 80;
},
{
glyphname = Q;
kernLeft = C;
layers = (
{
layerId = m01;
shapes = (
{
closed = 1;
nodes = (
(648,-50,l),
(648,-150,l),
(398,-90,l),
(398,10,l)
);
},
{
closed = 1;
nodes = (
(512,87,o),
(587,162,qs),
(661,236,o),
(661,350,qs),
(661,464,o),
(587,538,qs),
(512,613,o),
(398,613,qs),
(284,613,o),
(210,538,qs),
(135,464,o),
(135,350,qs),
(135,236,o),
(210,162,qs),
(284,87,o),
(398,87,qs)
);
},
{
closed = 1;
nodes = (
(555,710,o),
(658,608,qs),
(761,506,o),
(761,350,qs),
(761,194,o),
(658,92,qs),
(555,-10,o),
(398,-10,qs),
(241,-10,o),
(138,92,qs),
(35,194,o),
(35,350,qs),
(35,506,o),
(138,608,qs),
(241,710,o),
(398,710,qs)
);
}
);
width = 796;
}
);
note = Q;
unicode = 81;
},
{
glyphname = R;
layers = (
{
layerId = m01;
shapes = (
{
closed = 1;
nodes = (
(470,0,l),
(240,340,l),
(336,340,ls),
(394,340,o),
(432,378,qs),
(470,415,o),
(470,472,qs),
(470,530,o),
(432,567,qs),
(394,605,o),
(336,605,qs),
(170,605,l),
(170,0,l),
(70,0,l),
(70,700,l),
(336,700,ls),
(442,700,o),
(507,637,qs),
(570,575,o),
(570,477,qs),
(570,397,o),
(525,339,qs),
(480,281,o),
(402,263,q),
(580,0,l)
);
}
);
width = 610;
}
);
note = R;
unicode = 82;
},
{
glyphname = S;
kernLeft = S;
layers = (
{
layerId = m01;
shapes = (
{
closed = 1;
nodes = (
(555,369,o),
(555,198,qs),
(555,105,o),
(486,48,qs),
(416,-10,o),
(300,-10,qs),
(177,-10,o),
(106,52,qs),
(35,116,o),
(35,228,q),
(135,228,l),
(135,85,o),
(300,85,qs),
(372,85,o),
(414,116,qs),
(455,146,o),
(455,198,qs),
(455,248,o),
(415,274,qs),
(380,296,o),
(300,308,qs),
(55,342,o),
(55,508,qs),
(55,598,o),
(119,653,qs),
(183,710,o),
(290,710,qs),
(404,710,o),
(469,649,qs),
(535,587,o),
(535,478,q),
(435,478,l),
(435,615,o),
(290,615,qs),
(227,615,o),
(190,585,qs),
(155,556,o),
(155,508,qs),
(155,422,o),
(300,403,qs)
);
}
);
width = 590;
}
);
note = S;
unicode = 83;
},
{
glyphname = T;
kernLeft = T;
layers = (
{
layerId = m01;
shapes = (
{
closed = 1;
nodes = (
(535,605,l),
(325,605,l),
(325,0,l),
(225,0,l),
(225,605,l),
(15,605,l),
(15,700,l),
(535,700,l)
);
}
);
width = 550;
}
);
note = T;
unicode = 84;
},
{
glyphname = U;
kernLeft = U;
layers = (
{
layerId = m01;
shapes = (
{
closed = 1;
nodes = (
(600,700,l),
(600,243,ls),
(600,129,o),
(523,59,qs),
(448,-10,o),
(330,-10,qs),
(211,-10,o),
(137,59,qs),
(60,129,o),
(60,243,qs),
(60,700,l),
(160,700,l),
(160,243,ls),
(160,171,o),
(208,128,qs),
(255,85,o),
(330,85,qs),
(405,85,o),
(452,128,qs),
(500,171,o),
(500,243,qs),
(500,700,l)
);
}
);
width = 660;
}
);
note = U;
unicode = 85;
},
{
glyphname = V;
kernLeft = V;
layers = (
{
layerId = m01;
shapes = (
{
closed = 1;
nodes = (
(385,0,l),
(275,0,l),
(5,700,l),
(110,700,l),
(330,130,l),
(550,700,l),
(655,700,l)
);
}
);
width = 660;
}
);
note = V;
unicode = 86;
},
{
glyphname = W;
kernLeft = V;
layers = (
{
layerId = m01;
shapes = (
{
closed = 1;
nodes = (
(765,0,l),
(660,0,l),
(490,541,l),
(320,0,l),
(215,0,l),
(15,700,l),
(120,700,l),
(272,167,l),
(440,700,l),
(540,700,l),
(708,167,l),
(860,700,l),
(965,700,l)
);
}
);
width = 980;
}
);
note = W;
unicode = 87;
},
{
glyphname = X;
kernLeft = X;
layers = (
{
layerId = m01;
shapes = (
{
closed = 1;
nodes = (
(365,350,l),
(595,0,l),
(475,0,l),
(305,259,l),
(135,0,l),
(15,0,l),
(245,350,l),
(15,700,l),
(135,700,l),
(305,441,l),
(475,700,l),
(595,700,l)
);
}
);
width = 610;
}
);
note = X;
unicode = 88;
},
{
glyphname = Y;
kernLeft = Y;
layers = (
{
layerId = m01;
shapes = (
{
closed = 1;
nodes = (
(370,262,l),
(370,0,l),
(270,0,l),
(270,262,l),
(5,700,l),
(115,700,l),
(320,361,l),
(525,700,l),
(635,700,l)
);
}
);
width = 640;
}
);
note = Y;
unicode = 89;
},
{
glyphname = Z;
kernLeft = Z;
layers = (
{
layerId = m01;
shapes = (
{
closed = 1;
nodes = (
(505,625,l),
(163,95,l),
(515,95,l),
(515,0,l),
(35,0,l),
(35,75,l),
(377,605,l),
(45,605,l),
(45,700,l),
(505,700,l)
);
}
);
width = 540;
}
);
note = Z;
unicode = 90;
},
{
glyphname = bracketleft;
kernRight = bracketleft;
layers = (
{
layerId = m01;
shapes = (
{
closed = 1;
nodes = (
(872,264,o),
(893,243,qs),
(914,222,o),
(914,190,qs),
(914,158,o),
(893,137,qs),
(872,116,o),
(840,116,qs),
(808,116,o),
(787,137,qs),
(766,158,o),
(766,190,qs),
(766,222,o),
(787,243,qs),
(808,264,o),
(840,264,qs)
);
},
{
closed = 1;
nodes = (
(267,261,o),
(287,241,qs),
(306,221,o),
(306,190,qs),
(306,158,o),
(287,138,qs),
(267,118,o),
(236,118,qs),
(188,118,l),
(188,261,l),
(236,261,ls)
);
},
{
closed = 1;
nodes = (
(776,612,l),
(776,360,l),
(942,360,l),
(942,394,l),
(812,394,l),
(812,470,l),
(931,470,l),
(931,504,l),
(812,504,l),
(812,577,l),
(942,577,l),
(942,612,l)
);
},
{
closed = 1;
nodes = (
(942,146,o),
(942,190,qs),
(942,234,o),
(913,262,qs),
(884,291,o),
(840,291,qs),
(796,291,o),
(767,262,qs),
(738,234,o),
(738,190,qs),
(738,146,o),
(767,117,qs),
(796,89,o),
(840,89,qs),
(884,89,o),
(913,117,qs)
);
},
{
closed = 1;
nodes = (
(688,288,l),
(615,178,l),
(542,288,l),
(523,288,l),
(523,91,l),
(551,91,l),
(551,226,l),
(615,129,l),
(680,226,l),
(680,91,l),
(708,91,l),
(708,288,l)
);
},
{
closed = 1;
nodes = (
(537,360,l),
(473,455,l),
(501,461,o),
(518,482,qs),
(534,503,o),
(534,531,qs),
(534,567,o),
(511,589,qs),
(488,612,o),
(450,612,qs),
(354,612,l),
(354,360,l),
(390,360,l),
(390,577,l),
(450,577,ls),
(470,577,o),
(484,564,qs),
(498,551,o),
(498,530,qs),
(498,509,o),
(484,496,qs),
(470,482,o),
(450,482,qs),
(415,482,l),
(498,360,l)
);
},
{
closed = 1;
nodes = (
(364,288,l),
(364,91,l),
(493,91,l),
(493,118,l),
(392,118,l),
(392,177,l),
(485,177,l),
(485,204,l),
(392,204,l),
(392,261,l),
(493,261,l),
(493,288,l)
);
},
{
closed = 1;
nodes = (
(334,147,o),
(334,190,qs),
(334,233,o),
(307,260,qs),
(278,288,o),
(234,288,qs),
(160,288,l),
(160,91,l),
(234,91,ls),
(279,91,o),
(307,119,qs)
);
},
{
closed = 1;
nodes = (
(196,360,l),
(196,462,l),
(314,462,l),
(314,497,l),
(196,497,l),
(196,577,l),
(318,577,l),
(318,612,l),
(160,612,l),
(160,360,l)
);
},
{
closed = 1;
nodes = (
(739,360,l),
(739,394,l),
(609,394,l),
(609,470,l),
(728,470,l),
(728,504,l),
(609,504,l),
(609,577,l),
(739,577,l),
(739,612,l),
(573,612,l),
(573,360,l)
);
},
{
closed = 1;
nodes = (
(1032,700,l),
(1032,0,l),
(70,0,l),
(70,700,l)
);
}
);
width = 1102;
}
);
note = bracketleft;
unicode = 91;
},
{
glyphname = backslash;
layers = (
{
layerId = m01;
shapes = (
{
closed = 1;
nodes = (
(872,264,o),
(893,243,qs),
(914,222,o),
(914,190,qs),
(914,158,o),
(893,137,qs),
(872,116,o),
(840,116,qs),
(808,116,o),
(787,137,qs),
(766,158,o),
(766,190,qs),
(766,222,o),
(787,243,qs),
(808,264,o),
(840,264,qs)
);
},
{
closed = 1;
nodes = (
(267,261,o),
(287,241,qs),
(306,221,o),
(306,190,qs),
(306,158,o),
(287,138,qs),
(267,118,o),
(236,118,qs),
(188,118,l),
(188,261,l),
(236,261,ls)
);
},
{
closed = 1;
nodes = (
(776,612,l),
(776,360,l),
(942,360,l),
(942,394,l),
(812,394,l),
(812,470,l),
(931,470,l),
(931,504,l),
(812,504,l),
(812,577,l),
(942,577,l),
(942,612,l)
);
},
{
closed = 1;
nodes = (
(942,146,o),
(942,190,qs),
(942,234,o),
(913,262,qs),
(884,291,o),
(840,291,qs),
(796,291,o),
(767,262,qs),
(738,234,o),
(738,190,qs),
(738,146,o),
(767,117,qs),
(796,89,o),
(840,89,qs),
(884,89,o),
(913,117,qs)
);
},
{
closed = 1;
nodes = (
(688,288,l),
(615,178,l),
(542,288,l),
(523,288,l),
(523,91,l),
(551,91,l),
(551,226,l),
(615,129,l),
(680,226,l),
(680,91,l),
(708,91,l),
(708,288,l)
);
},
{
closed = 1;
nodes = (
(537,360,l),
(473,455,l),
(501,461,o),
(518,482,qs),
(534,503,o),
(534,531,qs),
(534,567,o),
(511,589,qs),
(488,612,o),
(450,612,qs),
(354,612,l),
(354,360,l),
(390,360,l),
(390,577,l),
(450,577,ls),
(470,577,o),
(484,564,qs),
(498,551,o),
(498,530,qs),
(498,509,o),
(484,496,qs),
(470,482,o),
(450,482,qs),
(415,482,l),
(498,360,l)
);
},
{
closed = 1;
nodes = (
(364,288,l),
(364,91,l),
(493,91,l),
(493,118,l),
(392,118,l),
(392,177,l),
(485,177,l),
(485,204,l),
(392,204,l),
(392,261,l),
(493,261,l),
(493,288,l)
);
},
{
closed = 1;
nodes = (
(334,147,o),
(334,190,qs),
(334,233,o),
(307,260,qs),
(278,288,o),
(234,288,qs),
(160,288,l),
(160,91,l),
(234,91,ls),
(279,91,o),
(307,119,qs)
);
},
{
closed = 1;
nodes = (
(196,360,l),
(196,462,l),
(314,462,l),
(314,497,l),
(196,497,l),
(196,577,l),
(318,577,l),
(318,612,l),
(160,612,l),
(160,360,l)
);
},
{
closed = 1;
nodes = (
(739,360,l),
(739,394,l),
(609,394,l),
(609,470,l),
(728,470,l),
(728,504,l),
(609,504,l),
(609,577,l),
(739,577,l),
(739,612,l),
(573,612,l),
(573,360,l)
);
},
{
closed = 1;
nodes = (
(1032,700,l),
(1032,0,l),
(70,0,l),
(70,700,l)
);
}
);
width = 1102;
}
);
note = backslash;
unicode = 92;
},
{
glyphname = bracketright;
layers = (
{
layerId = m01;
shapes = (
{
closed = 1;
nodes = (
(872,264,o),
(893,243,qs),
(914,222,o),
(914,190,qs),
(914,158,o),
(893,137,qs),
(872,116,o),
(840,116,qs),
(808,116,o),
(787,137,qs),
(766,158,o),
(766,190,qs),
(766,222,o),
(787,243,qs),
(808,264,o),
(840,264,qs)
);
},
{
closed = 1;
nodes = (
(267,261,o),
(287,241,qs),
(306,221,o),
(306,190,qs),
(306,158,o),
(287,138,qs),
(267,118,o),
(236,118,qs),
(188,118,l),
(188,261,l),
(236,261,ls)
);
},
{
closed = 1;
nodes = (
(776,612,l),
(776,360,l),
(942,360,l),
(942,394,l),
(812,394,l),
(812,470,l),
(931,470,l),
(931,504,l),
(812,504,l),
(812,577,l),
(942,577,l),
(942,612,l)
);
},
{
closed = 1;
nodes = (
(942,146,o),
(942,190,qs),
(942,234,o),
(913,262,qs),
(884,291,o),
(840,291,qs),
(796,291,o),
(767,262,qs),
(738,234,o),
(738,190,qs),
(738,146,o),
(767,117,qs),
(796,89,o),
(840,89,qs),
(884,89,o),
(913,117,qs)
);
},
{
closed = 1;
nodes = (
(688,288,l),
(615,178,l),
(542,288,l),
(523,288,l),
(523,91,l),
(551,91,l),
(551,226,l),
(615,129,l),
(680,226,l),
(680,91,l),
(708,91,l),
(708,288,l)
);
},
{
closed = 1;
nodes = (
(537,360,l),
(473,455,l),
(501,461,o),
(518,482,qs),
(534,503,o),
(534,531,qs),
(534,567,o),
(511,589,qs),
(488,612,o),
(450,612,qs),
(354,612,l),
(354,360,l),
(390,360,l),
(390,577,l),
(450,577,ls),
(470,577,o),
(484,564,qs),
(498,551,o),
(498,530,qs),
(498,509,o),
(484,496,qs),
(470,482,o),
(450,482,qs),
(415,482,l),
(498,360,l)
);
},
{
closed = 1;
nodes = (
(364,288,l),
(364,91,l),
(493,91,l),
(493,118,l),
(392,118,l),
(392,177,l),
(485,177,l),
(485,204,l),
(392,204,l),
(392,261,l),
(493,261,l),
(493,288,l)
);
},
{
closed = 1;
nodes = (
(334,147,o),
(334,190,qs),
(334,233,o),
(307,260,qs),
(278,288,o),
(234,288,qs),
(160,288,l),
(160,91,l),
(234,91,ls),
(279,91,o),
(307,119,qs)
);
},
{
closed = 1;
nodes = (
(196,360,l),
(196,462,l),
(314,462,l),
(314,497,l),
(196,497,l),
(196,577,l),
(318,577,l),
(318,612,l),
(160,612,l),
(160,360,l)
);
},
{
closed = 1;
nodes = (
(739,360,l),
(739,394,l),
(609,394,l),
(609,470,l),
(728,470,l),
(728,504,l),
(609,504,l),
(609,577,l),
(739,577,l),
(739,612,l),
(573,612,l),
(573,360,l)
);
},
{
closed = 1;
nodes = (
(1032,700,l),
(1032,0,l),
(70,0,l),
(70,700,l)
);
}
);
width = 1102;
}
);
note = bracketright;
unicode = 93;
},
{
glyphname = asciicircum;
layers = (
{
layerId = m01;
shapes = (
{
closed = 1;
nodes = (
(872,264,o),
(893,243,qs),
(914,222,o),
(914,190,qs),
(914,158,o),
(893,137,qs),
(872,116,o),
(840,116,qs),
(808,116,o),
(787,137,qs),
(766,158,o),
(766,190,qs),
(766,222,o),
(787,243,qs),
(808,264,o),
(840,264,qs)
);
},
{
closed = 1;
nodes = (
(267,261,o),
(287,241,qs),
(306,221,o),
(306,190,qs),
(306,158,o),
(287,138,qs),
(267,118,o),
(236,118,qs),
(188,118,l),
(188,261,l),
(236,261,ls)
);
},
{
closed = 1;
nodes = (
(776,612,l),
(776,360,l),
(942,360,l),
(942,394,l),
(812,394,l),
(812,470,l),
(931,470,l),
(931,504,l),
(812,504,l),
(812,577,l),
(942,577,l),
(942,612,l)
);
},
{
closed = 1;
nodes = (
(942,146,o),
(942,190,qs),
(942,234,o),
(913,262,qs),
(884,291,o),
(840,291,qs),
(796,291,o),
(767,262,qs),
(738,234,o),
(738,190,qs),
(738,146,o),
(767,117,qs),
(796,89,o),
(840,89,qs),
(884,89,o),
(913,117,qs)
);
},
{
closed = 1;
nodes = (
(688,288,l),
(615,178,l),
(542,288,l),
(523,288,l),
(523,91,l),
(551,91,l),
(551,226,l),
(615,129,l),
(680,226,l),
(680,91,l),
(708,91,l),
(708,288,l)
);
},
{
closed = 1;
nodes = (
(537,360,l),
(473,455,l),
(501,461,o),
(518,482,qs),
(534,503,o),
(534,531,qs),
(534,567,o),
(511,589,qs),
(488,612,o),
(450,612,qs),
(354,612,l),
(354,360,l),
(390,360,l),
(390,577,l),
(450,577,ls),
(470,577,o),
(484,564,qs),
(498,551,o),
(498,530,qs),
(498,509,o),
(484,496,qs),
(470,482,o),
(450,482,qs),
(415,482,l),
(498,360,l)
);
},
{
closed = 1;
nodes = (
(364,288,l),
(364,91,l),
(493,91,l),
(493,118,l),
(392,118,l),
(392,177,l),
(485,177,l),
(485,204,l),
(392,204,l),
(392,261,l),
(493,261,l),
(493,288,l)
);
},
{
closed = 1;
nodes = (
(334,147,o),
(334,190,qs),
(334,233,o),
(307,260,qs),
(278,288,o),
(234,288,qs),
(160,288,l),
(160,91,l),
(234,91,ls),
(279,91,o),
(307,119,qs)
);
},
{
closed = 1;
nodes = (
(196,360,l),
(196,462,l),
(314,462,l),
(314,497,l),
(196,497,l),
(196,577,l),
(318,577,l),
(318,612,l),
(160,612,l),
(160,360,l)
);
},
{
closed = 1;
nodes = (
(739,360,l),
(739,394,l),
(609,394,l),
(609,470,l),
(728,470,l),
(728,504,l),
(609,504,l),
(609,577,l),
(739,577,l),
(739,612,l),
(573,612,l),
(573,360,l)
);
},
{
closed = 1;
nodes = (
(1032,700,l),
(1032,0,l),
(70,0,l),
(70,700,l)
);
}
);
width = 1102;
}
);
note = asciicircum;
unicode = 94;
},
{
glyphname = underscore;
kernRight = underscore;
layers = (
{
layerId = m01;
shapes = (
{
closed = 1;
nodes = (
(872,264,o),
(893,243,qs),
(914,222,o),
(914,190,qs),
(914,158,o),
(893,137,qs),
(872,116,o),
(840,116,qs),
(808,116,o),
(787,137,qs),
(766,158,o),
(766,190,qs),
(766,222,o),
(787,243,qs),
(808,264,o),
(840,264,qs)
);
},
{
closed = 1;
nodes = (
(267,261,o),
(287,241,qs),
(306,221,o),
(306,190,qs),
(306,158,o),
(287,138,qs),
(267,118,o),
(236,118,qs),
(188,118,l),
(188,261,l),
(236,261,ls)
);
},
{
closed = 1;
nodes = (
(776,612,l),
(776,360,l),
(942,360,l),
(942,394,l),
(812,394,l),
(812,470,l),
(931,470,l),
(931,504,l),
(812,504,l),
(812,577,l),
(942,577,l),
(942,612,l)
);
},
{
closed = 1;
nodes = (
(942,146,o),
(942,190,qs),
(942,234,o),
(913,262,qs),
(884,291,o),
(840,291,qs),
(796,291,o),
(767,262,qs),
(738,234,o),
(738,190,qs),
(738,146,o),
(767,117,qs),
(796,89,o),
(840,89,qs),
(884,89,o),
(913,117,qs)
);
},
{
closed = 1;
nodes = (
(688,288,l),
(615,178,l),
(542,288,l),
(523,288,l),
(523,91,l),
(551,91,l),
(551,226,l),
(615,129,l),
(680,226,l),
(680,91,l),
(708,91,l),
(708,288,l)
);
},
{
closed = 1;
nodes = (
(537,360,l),
(473,455,l),
(501,461,o),
(518,482,qs),
(534,503,o),
(534,531,qs),
(534,567,o),
(511,589,qs),
(488,612,o),
(450,612,qs),
(354,612,l),
(354,360,l),
(390,360,l),
(390,577,l),
(450,577,ls),
(470,577,o),
(484,564,qs),
(498,551,o),
(498,530,qs),
(498,509,o),
(484,496,qs),
(470,482,o),
(450,482,qs),
(415,482,l),
(498,360,l)
);
},
{
closed = 1;
nodes = (
(364,288,l),
(364,91,l),
(493,91,l),
(493,118,l),
(392,118,l),
(392,177,l),
(485,177,l),
(485,204,l),
(392,204,l),
(392,261,l),
(493,261,l),
(493,288,l)
);
},
{
closed = 1;
nodes = (
(334,147,o),
(334,190,qs),
(334,233,o),
(307,260,qs),
(278,288,o),
(234,288,qs),
(160,288,l),
(160,91,l),
(234,91,ls),
(279,91,o),
(307,119,qs)
);
},
{
closed = 1;
nodes = (
(196,360,l),
(196,462,l),
(314,462,l),
(314,497,l),
(196,497,l),
(196,577,l),
(318,577,l),
(318,612,l),
(160,612,l),
(160,360,l)
);
},
{
closed = 1;
nodes = (
(739,360,l),
(739,394,l),
(609,394,l),
(609,470,l),
(728,470,l),
(728,504,l),
(609,504,l),
(609,577,l),
(739,577,l),
(739,612,l),
(573,612,l),
(573,360,l)
);
},
{
closed = 1;
nodes = (
(1032,700,l),
(1032,0,l),
(70,0,l),
(70,700,l)
);
}
);
width = 1102;
}
);
note = underscore;
unicode = 95;
},
{
glyphname = grave;
kernRight = .notdef;
layers = (
{
layerId = m01;
shapes = (
{
closed = 1;
nodes = (
(872,264,o),
(893,243,qs),
(914,222,o),
(914,190,qs),
(914,158,o),
(893,137,qs),
(872,116,o),
(840,116,qs),
(808,116,o),
(787,137,qs),
(766,158,o),
(766,190,qs),
(766,222,o),
(787,243,qs),
(808,264,o),
(840,264,qs)
);
},
{
closed = 1;
nodes = (
(267,261,o),
(287,241,qs),
(306,221,o),
(306,190,qs),
(306,158,o),
(287,138,qs),
(267,118,o),
(236,118,qs),
(188,118,l),
(188,261,l),
(236,261,ls)
);
},
{
closed = 1;
nodes = (
(776,612,l),
(776,360,l),
(942,360,l),
(942,394,l),
(812,394,l),
(812,470,l),
(931,470,l),
(931,504,l),
(812,504,l),
(812,577,l),
(942,577,l),
(942,612,l)
);
},
{
closed = 1;
nodes = (
(942,146,o),
(942,190,qs),
(942,234,o),
(913,262,qs),
(884,291,o),
(840,291,qs),
(796,291,o),
(767,262,qs),
(738,234,o),
(738,190,qs),
(738,146,o),
(767,117,qs),
(796,89,o),
(840,89,qs),
(884,89,o),
(913,117,qs)
);
},
{
closed = 1;
nodes = (
(688,288,l),
(615,178,l),
(542,288,l),
(523,288,l),
(523,91,l),
(551,91,l),
(551,226,l),
(615,129,l),
(680,226,l),
(680,91,l),
(708,91,l),
(708,288,l)
);
},
{
closed = 1;
nodes = (
(537,360,l),
(473,455,l),
(501,461,o),
(518,482,qs),
(534,503,o),
(534,531,qs),
(534,567,o),
(511,589,qs),
(488,612,o),
(450,612,qs),
(354,612,l),
(354,360,l),
(390,360,l),
(390,577,l),
(450,577,ls),
(470,577,o),
(484,564,qs),
(498,551,o),
(498,530,qs),
(498,509,o),
(484,496,qs),
(470,482,o),
(450,482,qs),
(415,482,l),
(498,360,l)
);
},
{
closed = 1;
nodes = (
(364,288,l),
(364,91,l),
(493,91,l),
(493,118,l),
(392,118,l),
(392,177,l),
(485,177,l),
(485,204,l),
(392,204,l),
(392,261,l),
(493,261,l),
(493,288,l)
);
},
{
closed = 1;
nodes = (
(334,147,o),
(334,190,qs),
(334,233,o),
(307,260,qs),
(278,288,o),
(234,288,qs),
(160,288,l),
(160,91,l),
(234,91,ls),
(279,91,o),
(307,119,qs)
);
},
{
closed = 1;
nodes = (
(196,360,l),
(196,462,l),
(314,462,l),
(314,497,l),
(196,497,l),
(196,577,l),
(318,577,l),
(318,612,l),
(160,612,l),
(160,360,l)
);
},
{
closed = 1;
nodes = (
(739,360,l),
(739,394,l),
(609,394,l),
(609,470,l),
(728,470,l),
(728,504,l),
(609,504,l),
(609,577,l),
(739,577,l),
(739,612,l),
(573,612,l),
(573,360,l)
);
},
{
closed = 1;
nodes = (
(1032,700,l),
(1032,0,l),
(70,0,l),
(70,700,l)
);
}
);
width = 1102;
}
);
note = grave;
unicode = 96;
},
{
glyphname = a;
kernLeft = a;
layers = (
{
layerId = m01;
shapes = (
{
closed = 1;
nodes = (
(373,85,o),
(419,131,qs),
(465,177,o),
(465,250,qs),
(465,323,o),
(419,369,qs),
(373,415,o),
(300,415,qs),
(227,415,o),
(181,369,qs),
(135,323,o),
(135,250,qs),
(135,177,o),
(181,131,qs),
(227,85,o),
(300,85,qs)
);
},
{
closed = 1;
nodes = (
(565,0,l),
(465,0,l),
(465,66,l),
(393,-10,o),
(285,-10,qs),
(178,-10,o),
(107,64,qs),
(35,139,o),
(35,250,qs),
(35,361,o),
(107,436,qs),
(178,510,o),
(285,510,qs),
(393,510,o),
(465,434,q),
(465,500,l),
(565,500,l)
);
}
);
width = 630;
}
);
note = a;
unicode = 97;
},
{
glyphname = b;
layers = (
{
layerId = m01;
shapes = (
{
closed = 1;
nodes = (
(449,131,qs),
(495,177,o),
(495,250,qs),
(495,323,o),
(449,369,qs),
(403,415,o),
(330,415,qs),
(257,415,o),
(211,369,qs),
(165,323,o),
(165,250,qs),
(165,177,o),
(211,131,qs),
(257,85,o),
(330,85,qs),
(403,85,o)
);
},
{
closed = 1;
nodes = (
(165,434,l),
(237,510,o),
(345,510,qs),
(452,510,o),
(523,436,qs),
(595,361,o),
(595,250,qs),
(595,139,o),
(523,64,qs),
(452,-10,o),
(345,-10,qs),
(237,-10,o),
(165,66,q),
(165,0,l),
(65,0,l),
(65,700,l),
(165,700,l)
);
}
);
width = 630;
}
);
note = b;
unicode = 98;
},
{
glyphname = c;
kernLeft = a;
lastChange = "2022-02-25 04:15:30 +0000";
layers = (
{
layerId = m01;
shapes = (
{
closed = 1;
nodes = (
(544,113,o),
(473,52,qs),
(401,-10,o),
(298,-10,qs),
(184,-10,o),
(110,64,qs),
(35,137,o),
(35,250,qs),
(35,363,o),
(110,436,qs),
(184,510,o),
(298,510,qs),
(401,510,o),
(473,448,qs),
(544,387,o),
(557,290,q),
(456,290,l),
(444,345,o),
(401,379,qs),
(358,413,o),
(298,413,qs),
(227,413,o),
(181,367,qs),
(135,321,o),
(135,250,qs),
(135,179,o),
(181,133,qs),
(227,87,o),
(298,87,qs),
(358,87,o),
(401,121,qs),
(444,155,o),
(456,210,q),
(557,210,l)
);
}
);
width = 592;
}
);
note = c;
unicode = 99;
},
{
glyphname = d;
kernLeft = a;
layers = (
{
layerId = m01;
shapes = (
{
closed = 1;
nodes = (
(373,85,o),
(419,131,qs),
(465,177,o),
(465,250,qs),
(465,323,o),
(419,369,qs),
(373,415,o),
(300,415,qs),
(227,415,o),
(181,369,qs),
(135,323,o),
(135,250,qs),
(135,177,o),
(181,131,qs),
(227,85,o),
(300,85,qs)
);
},
{
closed = 1;
nodes = (
(565,0,l),
(465,0,l),
(465,66,l),
(393,-10,o),
(285,-10,qs),
(178,-10,o),
(107,64,qs),
(35,139,o),
(35,250,qs),
(35,361,o),
(107,436,qs),
(178,510,o),
(285,510,qs),
(393,510,o),
(465,434,q),
(465,700,l),
(565,700,l)
);
}
);
width = 630;
}
);
note = d;
unicode = 100;
},
{
glyphname = e;
kernLeft = a;
layers = (
{
layerId = m01;
shapes = (
{
closed = 1;
nodes = (
(441,348,o),
(399,380,qs),
(356,413,o),
(298,413,qs),
(240,413,o),
(197,380,qs),
(155,348,o),
(141,295,q),
(455,295,l)
);
},
{
closed = 1;
nodes = (
(155,152,o),
(197,120,qs),
(240,87,o),
(298,87,qs),
(386,87,o),
(433,155,q),
(544,155,l),
(516,80,o),
(451,35,qs),
(385,-10,o),
(298,-10,qs),
(184,-10,o),
(109,64,qs),
(35,137,o),
(35,250,qs),
(35,363,o),
(109,436,qs),
(184,510,o),
(298,510,qs),
(412,510,o),
(486,436,qs),
(561,363,o),
(561,250,qs),
(561,232,o),
(557,205,q),
(141,205,l)
);
}
);
width = 596;
}
);
note = e;
unicode = 101;
},
{
glyphname = f;
kernLeft = f;
layers = (
{
layerId = m01;
shapes = (
{
closed = 1;
nodes = (
(261,622,o),
(230,594,qs),
(200,566,o),
(200,500,q),
(330,500,l),
(330,405,l),
(200,405,l),
(200,0,l),
(100,0,l),
(100,405,l),
(20,405,l),
(20,500,l),
(100,500,l),
(100,607,o),
(159,662,qs),
(219,717,o),
(330,710,q),
(330,615,l)
);
}
);
width = 330;
}
);
note = f;
unicode = 102;
},
{
glyphname = g;
kernLeft = a;
layers = (
{
layerId = m01;
shapes = (
{
closed = 1;
nodes = (
(373,95,o),
(419,140,qs),
(465,184,o),
(465,255,qs),
(465,326,o),
(419,370,qs),
(373,415,o),
(300,415,qs),
(227,415,o),
(181,370,qs),
(135,326,o),
(135,255,qs),
(135,184,o),
(181,140,qs),
(227,95,o),
(300,95,qs)
);
},
{
closed = 1;
nodes = (
(565,-84,o),
(493,-147,qs),
(422,-210,o),
(305,-210,qs),
(192,-210,o),
(120,-151,qs),
(49,-93,o),
(45,0,q),
(146,0,l),
(150,-52,o),
(192,-83,qs),
(236,-115,o),
(305,-115,qs),
(378,-115,o),
(422,-79,qs),
(465,-42,o),
(465,20,qs),
(465,75,l),
(393,0,o),
(285,0,qs),
(178,0,o),
(107,73,qs),
(35,146,o),
(35,255,qs),
(35,364,o),
(107,437,qs),
(178,510,o),
(285,510,qs),
(393,510,o),
(465,435,q),
(465,500,l),
(565,500,l),
(565,20,ls)
);
}
);
width = 630;
}
);
note = g;
unicode = 103;
},
{
glyphname = h;
layers = (
{
layerId = m01;
shapes = (
{
closed = 1;
nodes = (
(426,510,o),
(486,446,qs),
(545,383,o),
(545,285,qs),
(545,0,l),
(445,0,l),
(445,275,ls),
(445,340,o),
(407,377,qs),
(370,415,o),
(305,415,qs),
(240,415,o),
(203,377,qs),
(165,340,o),
(165,275,qs),
(165,0,l),
(65,0,l),
(65,700,l),
(165,700,l),
(165,436,l),
(226,510,o),
(330,510,qs)
);
}
);
width = 600;
}
);
note = h;
unicode = 104;
},
{
glyphname = i;
layers = (
{
layerId = m01;
shapes = (
{
closed = 1;
nodes = (
(165,500,l),
(165,0,l),
(65,0,l),
(65,500,l)
);
},
{
closed = 1;
nodes = (
(115,550,l),
(35,630,l),
(115,710,l),
(195,630,l)
);
}
);
width = 230;
}
);
note = i;
unicode = 105;
},
{
glyphname = j;
kernLeft = j;
layers = (
{
layerId = m01;
shapes = (
{
closed = 1;
nodes = (
(165,500,l),
(165,-200,l),
(65,-200,l),
(65,500,l)
);
},
{
closed = 1;
nodes = (
(115,550,l),
(35,630,l),
(115,710,l),
(195,630,l)
);
}
);
width = 230;
}
);
note = j;
unicode = 106;
},
{
glyphname = k;
layers = (
{
layerId = m01;
shapes = (
{
closed = 1;
nodes = (
(165,700,l),
(165,0,l),
(65,0,l),
(65,700,l)
);
},
{
closed = 1;
nodes = (
(305,250,l),
(505,0,l),
(390,0,l),
(190,250,l),
(390,500,l),
(505,500,l)
);
}
);
width = 515;
}
);
note = k;
unicode = 107;
},
{
glyphname = l;
layers = (
{
layerId = m01;
shapes = (
{
closed = 1;
nodes = (
(165,700,l),
(165,0,l),
(65,0,l),
(65,700,l)
);
}
);
width = 230;
}
);
note = l;
unicode = 108;
},
{
glyphname = m;
kernLeft = m;
layers = (
{
layerId = m01;
shapes = (
{
closed = 1;
nodes = (
(732,510,o),
(789,449,qs),
(845,389,o),
(845,295,qs),
(845,0,l),
(745,0,l),
(745,295,ls),
(745,350,o),
(713,383,qs),
(680,415,o),
(625,415,qs),
(570,415,o),
(537,383,qs),
(505,350,o),
(505,295,qs),
(505,0,l),
(405,0,l),
(405,295,ls),
(405,350,o),
(373,383,qs),
(340,415,o),
(285,415,qs),
(230,415,o),
(197,383,qs),
(165,350,o),
(165,295,qs),
(165,0,l),
(65,0,l),
(65,500,l),
(165,500,l),
(165,448,l),
(220,510,o),
(310,510,qs),
(418,510,o),
(472,425,q),
(530,510,o),
(640,510,qs)
);
}
);
width = 900;
}
);
note = m;
unicode = 109;
},
{
glyphname = n;
kernLeft = m;
layers = (
{
layerId = m01;
shapes = (
{
closed = 1;
nodes = (
(426,510,o),
(486,446,qs),
(545,383,o),
(545,285,qs),
(545,0,l),
(445,0,l),
(445,275,ls),
(445,340,o),
(407,377,qs),
(370,415,o),
(305,415,qs),
(240,415,o),
(203,377,qs),
(165,340,o),
(165,275,qs),
(165,0,l),
(65,0,l),
(65,500,l),
(165,500,l),
(165,436,l),
(226,510,o),
(330,510,qs)
);
}
);
width = 600;
}
);
note = n;
unicode = 110;
},
{
glyphname = o;
kernLeft = a;
layers = (
{
layerId = m01;
shapes = (
{
closed = 1;
nodes = (
(369,87,o),
(415,133,qs),
(461,179,o),
(461,250,qs),
(461,321,o),
(415,367,qs),
(369,413,o),
(298,413,qs),
(227,413,o),
(181,367,qs),
(135,321,o),
(135,250,qs),
(135,179,o),
(181,133,qs),
(227,87,o),
(298,87,qs)
);
},
{
closed = 1;
nodes = (
(412,510,o),
(486,436,qs),
(561,363,o),
(561,250,qs),
(561,137,o),
(486,64,qs),
(412,-10,o),
(298,-10,qs),
(184,-10,o),
(110,64,qs),
(35,137,o),
(35,250,qs),
(35,363,o),
(110,436,qs),
(184,510,o),
(298,510,qs)
);
}
);
width = 596;
}
);
note = o;
unicode = 111;
},
{
glyphname = p;
kernLeft = m;
layers = (
{
layerId = m01;
shapes = (
{
closed = 1;
nodes = (
(449,131,qs),
(495,177,o),
(495,250,qs),
(495,323,o),
(449,369,qs),
(403,415,o),
(330,415,qs),
(257,415,o),
(211,369,qs),
(165,323,o),
(165,250,qs),
(165,177,o),
(211,131,qs),
(257,85,o),
(330,85,qs),
(403,85,o)
);
},
{
closed = 1;
nodes = (
(165,434,l),
(237,510,o),
(345,510,qs),
(452,510,o),
(523,436,qs),
(595,361,o),
(595,250,qs),
(595,139,o),
(523,64,qs),
(452,-10,o),
(345,-10,qs),
(237,-10,o),
(165,66,q),
(165,-200,l),
(65,-200,l),
(65,500,l),
(165,500,l)
);
}
);
width = 630;
}
);
note = p;
unicode = 112;
},
{
glyphname = q;
kernLeft = a;
layers = (
{
layerId = m01;
shapes = (
{
closed = 1;
nodes = (
(373,85,o),
(419,131,qs),
(465,177,o),
(465,250,qs),
(465,323,o),
(419,369,qs),
(373,415,o),
(300,415,qs),
(227,415,o),
(181,369,qs),
(135,323,o),
(135,250,qs),
(135,177,o),
(181,131,qs),
(227,85,o),
(300,85,qs)
);
},
{
closed = 1;
nodes = (
(565,-200,l),
(465,-200,l),
(465,66,l),
(393,-10,o),
(285,-10,qs),
(178,-10,o),
(107,64,qs),
(35,139,o),
(35,250,qs),
(35,361,o),
(107,436,qs),
(178,510,o),
(285,510,qs),
(393,510,o),
(465,434,q),
(465,500,l),
(565,500,l)
);
}
);
width = 630;
}
);
note = q;
unicode = 113;
},
{
glyphname = r;
kernLeft = m;
layers = (
{
layerId = m01;
shapes = (
{
closed = 1;
nodes = (
(209,510,o),
(325,510,q),
(325,410,l),
(165,410,o),
(165,260,qs),
(165,0,l),
(65,0,l),
(65,500,l),
(165,500,l),
(165,418,l)
);
}
);
width = 340;
}
);
note = r;
unicode = 114;
},
{
glyphname = s;
layers = (
{
layerId = m01;
shapes = (
{
closed = 1;
nodes = (
(347,-10,o),
(400,42,qs),
(445,86,o),
(445,150,qs),
(445,224,o),
(393,261,qs),
(345,295,o),
(240,305,qs),
(155,312,o),
(155,360,qs),
(155,415,o),
(235,415,qs),
(325,415,o),
(325,340,q),
(425,340,l),
(425,413,o),
(380,458,qs),
(329,510,o),
(235,510,qs),
(143,510,o),
(95,461,qs),
(55,420,o),
(55,360,qs),
(55,231,o),
(231,215,qs),
(345,205,o),
(345,150,qs),
(345,85,o),
(245,85,qs),
(228,85,o),
(212,88,qs),
(192,92,o),
(176,100,qs),
(135,122,o),
(135,170,q),
(35,170,l),
(35,93,o),
(85,45,qs),
(141,-10,o),
(245,-10,qs)
);
}
);
width = 480;
}
);
note = s;
unicode = 115;
},
{
glyphname = t;
kernLeft = t;
layers = (
{
layerId = m01;
shapes = (
{
closed = 1;
nodes = (
(350,500,l),
(350,405,l),
(230,405,l),
(230,0,l),
(130,0,l),
(130,405,l),
(20,405,l),
(20,500,l),
(130,500,l),
(130,610,l),
(230,640,l),
(230,500,l)
);
}
);
width = 370;
}
);
note = t;
unicode = 116;
},
{
glyphname = u;
layers = (
{
layerId = m01;
shapes = (
{
closed = 1;
nodes = (
(535,500,l),
(535,0,l),
(435,0,l),
(435,65,l),
(374,-10,o),
(270,-10,qs),
(174,-10,o),
(114,54,qs),
(55,117,o),
(55,215,qs),
(55,500,l),
(155,500,l),
(155,225,ls),
(155,160,o),
(193,123,qs),
(230,85,o),
(295,85,qs),
(360,85,o),
(397,123,qs),
(435,160,o),
(435,225,qs),
(435,500,l)
);
}
);
width = 600;
}
);
note = u;
unicode = 117;
},
{
glyphname = v;
kernLeft = v;
layers = (
{
layerId = m01;
shapes = (
{
closed = 1;
nodes = (
(315,0,l),
(205,0,l),
(5,500,l),
(110,500,l),
(260,125,l),
(410,500,l),
(515,500,l)
);
}
);
width = 520;
}
);
note = v;
unicode = 118;
},
{
glyphname = w;
kernLeft = v;
layers = (
{
layerId = m01;
shapes = (
{
closed = 1;
nodes = (
(595,0,l),
(485,0,l),
(375,344,l),
(265,0,l),
(155,0,l),
(15,500,l),
(115,500,l),
(213,150,l),
(325,500,l),
(425,500,l),
(537,150,l),
(635,500,l),
(735,500,l)
);
}
);
width = 750;
}
);
note = w;
unicode = 119;
},
{
glyphname = x;
kernLeft = x;
layers = (
{
layerId = m01;
shapes = (
{
closed = 1;
nodes = (
(317,250,l),
(510,0,l),
(395,0,l),
(260,175,l),
(125,0,l),
(10,0,l),
(10,0,l),
(203,250,l),
(10,500,l),
(125,500,l),
(260,325,l),
(395,500,l),
(510,500,l)
);
}
);
width = 520;
}
);
note = x;
unicode = 120;
},
{
glyphname = y;
kernLeft = y;
layers = (
{
layerId = m01;
shapes = (
{
closed = 1;
nodes = (
(282,-200,l),
(177,-200,l),
(245,0,l),
(180,0,l),
(10,500,l),
(115,500,l),
(265,59,l),
(415,500,l),
(520,500,l)
);
}
);
width = 530;
}
);
note = y;
unicode = 121;
},
{
glyphname = z;
kernLeft = z;
layers = (
{
layerId = m01;
shapes = (
{
closed = 1;
nodes = (
(435,420,l),
(177,95,l),
(445,95,l),
(445,0,l),
(45,0,l),
(45,80,l),
(303,405,l),
(55,405,l),
(55,500,l),
(435,500,l)
);
}
);
width = 480;
}
);
note = z;
unicode = 122;
},
{
glyphname = braceleft;
layers = (
{
layerId = m01;
shapes = (
{
closed = 1;
nodes = (
(872,264,o),
(893,243,qs),
(914,222,o),
(914,190,qs),
(914,158,o),
(893,137,qs),
(872,116,o),
(840,116,qs),
(808,116,o),
(787,137,qs),
(766,158,o),
(766,190,qs),
(766,222,o),
(787,243,qs),
(808,264,o),
(840,264,qs)
);
},
{
closed = 1;
nodes = (
(267,261,o),
(287,241,qs),
(306,221,o),
(306,190,qs),
(306,158,o),
(287,138,qs),
(267,118,o),
(236,118,qs),
(188,118,l),
(188,261,l),
(236,261,ls)
);
},
{
closed = 1;
nodes = (
(776,612,l),
(776,360,l),
(942,360,l),
(942,394,l),
(812,394,l),
(812,470,l),
(931,470,l),
(931,504,l),
(812,504,l),
(812,577,l),
(942,577,l),
(942,612,l)
);
},
{
closed = 1;
nodes = (
(942,146,o),
(942,190,qs),
(942,234,o),
(913,262,qs),
(884,291,o),
(840,291,qs),
(796,291,o),
(767,262,qs),
(738,234,o),
(738,190,qs),
(738,146,o),
(767,117,qs),
(796,89,o),
(840,89,qs),
(884,89,o),
(913,117,qs)
);
},
{
closed = 1;
nodes = (
(688,288,l),
(615,178,l),
(542,288,l),
(523,288,l),
(523,91,l),
(551,91,l),
(551,226,l),
(615,129,l),
(680,226,l),
(680,91,l),
(708,91,l),
(708,288,l)
);
},
{
closed = 1;
nodes = (
(537,360,l),
(473,455,l),
(501,461,o),
(518,482,qs),
(534,503,o),
(534,531,qs),
(534,567,o),
(511,589,qs),
(488,612,o),
(450,612,qs),
(354,612,l),
(354,360,l),
(390,360,l),
(390,577,l),
(450,577,ls),
(470,577,o),
(484,564,qs),
(498,551,o),
(498,530,qs),
(498,509,o),
(484,496,qs),
(470,482,o),
(450,482,qs),
(415,482,l),
(498,360,l)
);
},
{
closed = 1;
nodes = (
(364,288,l),
(364,91,l),
(493,91,l),
(493,118,l),
(392,118,l),
(392,177,l),
(485,177,l),
(485,204,l),
(392,204,l),
(392,261,l),
(493,261,l),
(493,288,l)
);
},
{
closed = 1;
nodes = (
(334,147,o),
(334,190,qs),
(334,233,o),
(307,260,qs),
(278,288,o),
(234,288,qs),
(160,288,l),
(160,91,l),
(234,91,ls),
(279,91,o),
(307,119,qs)
);
},
{
closed = 1;
nodes = (
(196,360,l),
(196,462,l),
(314,462,l),
(314,497,l),
(196,497,l),
(196,577,l),
(318,577,l),
(318,612,l),
(160,612,l),
(160,360,l)
);
},
{
closed = 1;
nodes = (
(739,360,l),
(739,394,l),
(609,394,l),
(609,470,l),
(728,470,l),
(728,504,l),
(609,504,l),
(609,577,l),
(739,577,l),
(739,612,l),
(573,612,l),
(573,360,l)
);
},
{
closed = 1;
nodes = (
(1032,700,l),
(1032,0,l),
(70,0,l),
(70,700,l)
);
}
);
width = 1102;
}
);
note = braceleft;
unicode = 123;
},
{
glyphname = bar;
layers = (
{
layerId = m01;
shapes = (
{
closed = 1;
nodes = (
(872,264,o),
(893,243,qs),
(914,222,o),
(914,190,qs),
(914,158,o),
(893,137,qs),
(872,116,o),
(840,116,qs),
(808,116,o),
(787,137,qs),
(766,158,o),
(766,190,qs),
(766,222,o),
(787,243,qs),
(808,264,o),
(840,264,qs)
);
},
{
closed = 1;
nodes = (
(267,261,o),
(287,241,qs),
(306,221,o),
(306,190,qs),
(306,158,o),
(287,138,qs),
(267,118,o),
(236,118,qs),
(188,118,l),
(188,261,l),
(236,261,ls)
);
},
{
closed = 1;
nodes = (
(776,612,l),
(776,360,l),
(942,360,l),
(942,394,l),
(812,394,l),
(812,470,l),
(931,470,l),
(931,504,l),
(812,504,l),
(812,577,l),
(942,577,l),
(942,612,l)
);
},
{
closed = 1;
nodes = (
(942,146,o),
(942,190,qs),
(942,234,o),
(913,262,qs),
(884,291,o),
(840,291,qs),
(796,291,o),
(767,262,qs),
(738,234,o),
(738,190,qs),
(738,146,o),
(767,117,qs),
(796,89,o),
(840,89,qs),
(884,89,o),
(913,117,qs)
);
},
{
closed = 1;
nodes = (
(688,288,l),
(615,178,l),
(542,288,l),
(523,288,l),
(523,91,l),
(551,91,l),
(551,226,l),
(615,129,l),
(680,226,l),
(680,91,l),
(708,91,l),
(708,288,l)
);
},
{
closed = 1;
nodes = (
(537,360,l),
(473,455,l),
(501,461,o),
(518,482,qs),
(534,503,o),
(534,531,qs),
(534,567,o),
(511,589,qs),
(488,612,o),
(450,612,qs),
(354,612,l),
(354,360,l),
(390,360,l),
(390,577,l),
(450,577,ls),
(470,577,o),
(484,564,qs),
(498,551,o),
(498,530,qs),
(498,509,o),
(484,496,qs),
(470,482,o),
(450,482,qs),
(415,482,l),
(498,360,l)
);
},
{
closed = 1;
nodes = (
(364,288,l),
(364,91,l),
(493,91,l),
(493,118,l),
(392,118,l),
(392,177,l),
(485,177,l),
(485,204,l),
(392,204,l),
(392,261,l),
(493,261,l),
(493,288,l)
);
},
{
closed = 1;
nodes = (
(334,147,o),
(334,190,qs),
(334,233,o),
(307,260,qs),
(278,288,o),
(234,288,qs),
(160,288,l),
(160,91,l),
(234,91,ls),
(279,91,o),
(307,119,qs)
);
},
{
closed = 1;
nodes = (
(196,360,l),
(196,462,l),
(314,462,l),
(314,497,l),
(196,497,l),
(196,577,l),
(318,577,l),
(318,612,l),
(160,612,l),
(160,360,l)
);
},
{
closed = 1;
nodes = (
(739,360,l),
(739,394,l),
(609,394,l),
(609,470,l),
(728,470,l),
(728,504,l),
(609,504,l),
(609,577,l),
(739,577,l),
(739,612,l),
(573,612,l),
(573,360,l)
);
},
{
closed = 1;
nodes = (
(1032,700,l),
(1032,0,l),
(70,0,l),
(70,700,l)
);
}
);
width = 1102;
}
);
note = bar;
unicode = 124;
},
{
glyphname = braceright;
layers = (
{
layerId = m01;
shapes = (
{
closed = 1;
nodes = (
(872,264,o),
(893,243,qs),
(914,222,o),
(914,190,qs),
(914,158,o),
(893,137,qs),
(872,116,o),
(840,116,qs),
(808,116,o),
(787,137,qs),
(766,158,o),
(766,190,qs),
(766,222,o),
(787,243,qs),
(808,264,o),
(840,264,qs)
);
},
{
closed = 1;
nodes = (
(267,261,o),
(287,241,qs),
(306,221,o),
(306,190,qs),
(306,158,o),
(287,138,qs),
(267,118,o),
(236,118,qs),
(188,118,l),
(188,261,l),
(236,261,ls)
);
},
{
closed = 1;
nodes = (
(776,612,l),
(776,360,l),
(942,360,l),
(942,394,l),
(812,394,l),
(812,470,l),
(931,470,l),
(931,504,l),
(812,504,l),
(812,577,l),
(942,577,l),
(942,612,l)
);
},
{
closed = 1;
nodes = (
(942,146,o),
(942,190,qs),
(942,234,o),
(913,262,qs),
(884,291,o),
(840,291,qs),
(796,291,o),
(767,262,qs),
(738,234,o),
(738,190,qs),
(738,146,o),
(767,117,qs),
(796,89,o),
(840,89,qs),
(884,89,o),
(913,117,qs)
);
},
{
closed = 1;
nodes = (
(688,288,l),
(615,178,l),
(542,288,l),
(523,288,l),
(523,91,l),
(551,91,l),
(551,226,l),
(615,129,l),
(680,226,l),
(680,91,l),
(708,91,l),
(708,288,l)
);
},
{
closed = 1;
nodes = (
(537,360,l),
(473,455,l),
(501,461,o),
(518,482,qs),
(534,503,o),
(534,531,qs),
(534,567,o),
(511,589,qs),
(488,612,o),
(450,612,qs),
(354,612,l),
(354,360,l),
(390,360,l),
(390,577,l),
(450,577,ls),
(470,577,o),
(484,564,qs),
(498,551,o),
(498,530,qs),
(498,509,o),
(484,496,qs),
(470,482,o),
(450,482,qs),
(415,482,l),
(498,360,l)
);
},
{
closed = 1;
nodes = (
(364,288,l),
(364,91,l),
(493,91,l),
(493,118,l),
(392,118,l),
(392,177,l),
(485,177,l),
(485,204,l),
(392,204,l),
(392,261,l),
(493,261,l),
(493,288,l)
);
},
{
closed = 1;
nodes = (
(334,147,o),
(334,190,qs),
(334,233,o),
(307,260,qs),
(278,288,o),
(234,288,qs),
(160,288,l),
(160,91,l),
(234,91,ls),
(279,91,o),
(307,119,qs)
);
},
{
closed = 1;
nodes = (
(196,360,l),
(196,462,l),
(314,462,l),
(314,497,l),
(196,497,l),
(196,577,l),
(318,577,l),
(318,612,l),
(160,612,l),
(160,360,l)
);
},
{
closed = 1;
nodes = (
(739,360,l),
(739,394,l),
(609,394,l),
(609,470,l),
(728,470,l),
(728,504,l),
(609,504,l),
(609,577,l),
(739,577,l),
(739,612,l),
(573,612,l),
(573,360,l)
);
},
{
closed = 1;
nodes = (
(1032,700,l),
(1032,0,l),
(70,0,l),
(70,700,l)
);
}
);
width = 1102;
}
);
note = braceright;
unicode = 125;
},
{
glyphname = asciitilde;
kernRight = plus;
layers = (
{
layerId = m01;
shapes = (
{
closed = 1;
nodes = (
(872,264,o),
(893,243,qs),
(914,222,o),
(914,190,qs),
(914,158,o),
(893,137,qs),
(872,116,o),
(840,116,qs),
(808,116,o),
(787,137,qs),
(766,158,o),
(766,190,qs),
(766,222,o),
(787,243,qs),
(808,264,o),
(840,264,qs)
);
},
{
closed = 1;
nodes = (
(267,261,o),
(287,241,qs),
(306,221,o),
(306,190,qs),
(306,158,o),
(287,138,qs),
(267,118,o),
(236,118,qs),
(188,118,l),
(188,261,l),
(236,261,ls)
);
},
{
closed = 1;
nodes = (
(776,612,l),
(776,360,l),
(942,360,l),
(942,394,l),
(812,394,l),
(812,470,l),
(931,470,l),
(931,504,l),
(812,504,l),
(812,577,l),
(942,577,l),
(942,612,l)
);
},
{
closed = 1;
nodes = (
(942,146,o),
(942,190,qs),
(942,234,o),
(913,262,qs),
(884,291,o),
(840,291,qs),
(796,291,o),
(767,262,qs),
(738,234,o),
(738,190,qs),
(738,146,o),
(767,117,qs),
(796,89,o),
(840,89,qs),
(884,89,o),
(913,117,qs)
);
},
{
closed = 1;
nodes = (
(688,288,l),
(615,178,l),
(542,288,l),
(523,288,l),
(523,91,l),
(551,91,l),
(551,226,l),
(615,129,l),
(680,226,l),
(680,91,l),
(708,91,l),
(708,288,l)
);
},
{
closed = 1;
nodes = (
(537,360,l),
(473,455,l),
(501,461,o),
(518,482,qs),
(534,503,o),
(534,531,qs),
(534,567,o),
(511,589,qs),
(488,612,o),
(450,612,qs),
(354,612,l),
(354,360,l),
(390,360,l),
(390,577,l),
(450,577,ls),
(470,577,o),
(484,564,qs),
(498,551,o),
(498,530,qs),
(498,509,o),
(484,496,qs),
(470,482,o),
(450,482,qs),
(415,482,l),
(498,360,l)
);
},
{
closed = 1;
nodes = (
(364,288,l),
(364,91,l),
(493,91,l),
(493,118,l),
(392,118,l),
(392,177,l),
(485,177,l),
(485,204,l),
(392,204,l),
(392,261,l),
(493,261,l),
(493,288,l)
);
},
{
closed = 1;
nodes = (
(334,147,o),
(334,190,qs),
(334,233,o),
(307,260,qs),
(278,288,o),
(234,288,qs),
(160,288,l),
(160,91,l),
(234,91,ls),
(279,91,o),
(307,119,qs)
);
},
{
closed = 1;
nodes = (
(196,360,l),
(196,462,l),
(314,462,l),
(314,497,l),
(196,497,l),
(196,577,l),
(318,577,l),
(318,612,l),
(160,612,l),
(160,360,l)
);
},
{
closed = 1;
nodes = (
(739,360,l),
(739,394,l),
(609,394,l),
(609,470,l),
(728,470,l),
(728,504,l),
(609,504,l),
(609,577,l),
(739,577,l),
(739,612,l),
(573,612,l),
(573,360,l)
);
},
{
closed = 1;
nodes = (
(1032,700,l),
(1032,0,l),
(70,0,l),
(70,700,l)
);
}
);
width = 1102;
}
);
note = asciitilde;
unicode = 126;
},
{
glyphname = exclamdown;
layers = (
{
layerId = m01;
shapes = (
{
closed = 1;
nodes = (
(872,264,o),
(893,243,qs),
(914,222,o),
(914,190,qs),
(914,158,o),
(893,137,qs),
(872,116,o),
(840,116,qs),
(808,116,o),
(787,137,qs),
(766,158,o),
(766,190,qs),
(766,222,o),
(787,243,qs),
(808,264,o),
(840,264,qs)
);
},
{
closed = 1;
nodes = (
(267,261,o),
(287,241,qs),
(306,221,o),
(306,190,qs),
(306,158,o),
(287,138,qs),
(267,118,o),
(236,118,qs),
(188,118,l),
(188,261,l),
(236,261,ls)
);
},
{
closed = 1;
nodes = (
(776,612,l),
(776,360,l),
(942,360,l),
(942,394,l),
(812,394,l),
(812,470,l),
(931,470,l),
(931,504,l),
(812,504,l),
(812,577,l),
(942,577,l),
(942,612,l)
);
},
{
closed = 1;
nodes = (
(942,146,o),
(942,190,qs),
(942,234,o),
(913,262,qs),
(884,291,o),
(840,291,qs),
(796,291,o),
(767,262,qs),
(738,234,o),
(738,190,qs),
(738,146,o),
(767,117,qs),
(796,89,o),
(840,89,qs),
(884,89,o),
(913,117,qs)
);
},
{
closed = 1;
nodes = (
(688,288,l),
(615,178,l),
(542,288,l),
(523,288,l),
(523,91,l),
(551,91,l),
(551,226,l),
(615,129,l),
(680,226,l),
(680,91,l),
(708,91,l),
(708,288,l)
);
},
{
closed = 1;
nodes = (
(537,360,l),
(473,455,l),
(501,461,o),
(518,482,qs),
(534,503,o),
(534,531,qs),
(534,567,o),
(511,589,qs),
(488,612,o),
(450,612,qs),
(354,612,l),
(354,360,l),
(390,360,l),
(390,577,l),
(450,577,ls),
(470,577,o),
(484,564,qs),
(498,551,o),
(498,530,qs),
(498,509,o),
(484,496,qs),
(470,482,o),
(450,482,qs),
(415,482,l),
(498,360,l)
);
},
{
closed = 1;
nodes = (
(364,288,l),
(364,91,l),
(493,91,l),
(493,118,l),
(392,118,l),
(392,177,l),
(485,177,l),
(485,204,l),
(392,204,l),
(392,261,l),
(493,261,l),
(493,288,l)
);
},
{
closed = 1;
nodes = (
(334,147,o),
(334,190,qs),
(334,233,o),
(307,260,qs),
(278,288,o),
(234,288,qs),
(160,288,l),
(160,91,l),
(234,91,ls),
(279,91,o),
(307,119,qs)
);
},
{
closed = 1;
nodes = (
(196,360,l),
(196,462,l),
(314,462,l),
(314,497,l),
(196,497,l),
(196,577,l),
(318,577,l),
(318,612,l),
(160,612,l),
(160,360,l)
);
},
{
closed = 1;
nodes = (
(739,360,l),
(739,394,l),
(609,394,l),
(609,470,l),
(728,470,l),
(728,504,l),
(609,504,l),
(609,577,l),
(739,577,l),
(739,612,l),
(573,612,l),
(573,360,l)
);
},
{
closed = 1;
nodes = (
(1032,700,l),
(1032,0,l),
(70,0,l),
(70,700,l)
);
}
);
width = 1102;
}
);
note = exclamdown;
unicode = 161;
},
{
glyphname = cent;
kernRight = cent;
layers = (
{
layerId = m01;
shapes = (
{
closed = 1;
nodes = (
(872,264,o),
(893,243,qs),
(914,222,o),
(914,190,qs),
(914,158,o),
(893,137,qs),
(872,116,o),
(840,116,qs),
(808,116,o),
(787,137,qs),
(766,158,o),
(766,190,qs),
(766,222,o),
(787,243,qs),
(808,264,o),
(840,264,qs)
);
},
{
closed = 1;
nodes = (
(267,261,o),
(287,241,qs),
(306,221,o),
(306,190,qs),
(306,158,o),
(287,138,qs),
(267,118,o),
(236,118,qs),
(188,118,l),
(188,261,l),
(236,261,ls)
);
},
{
closed = 1;
nodes = (
(776,612,l),
(776,360,l),
(942,360,l),
(942,394,l),
(812,394,l),
(812,470,l),
(931,470,l),
(931,504,l),
(812,504,l),
(812,577,l),
(942,577,l),
(942,612,l)
);
},
{
closed = 1;
nodes = (
(942,146,o),
(942,190,qs),
(942,234,o),
(913,262,qs),
(884,291,o),
(840,291,qs),
(796,291,o),
(767,262,qs),
(738,234,o),
(738,190,qs),
(738,146,o),
(767,117,qs),
(796,89,o),
(840,89,qs),
(884,89,o),
(913,117,qs)
);
},
{
closed = 1;
nodes = (
(688,288,l),
(615,178,l),
(542,288,l),
(523,288,l),
(523,91,l),
(551,91,l),
(551,226,l),
(615,129,l),
(680,226,l),
(680,91,l),
(708,91,l),
(708,288,l)
);
},
{
closed = 1;
nodes = (
(537,360,l),
(473,455,l),
(501,461,o),
(518,482,qs),
(534,503,o),
(534,531,qs),
(534,567,o),
(511,589,qs),
(488,612,o),
(450,612,qs),
(354,612,l),
(354,360,l),
(390,360,l),
(390,577,l),
(450,577,ls),
(470,577,o),
(484,564,qs),
(498,551,o),
(498,530,qs),
(498,509,o),
(484,496,qs),
(470,482,o),
(450,482,qs),
(415,482,l),
(498,360,l)
);
},
{
closed = 1;
nodes = (
(364,288,l),
(364,91,l),
(493,91,l),
(493,118,l),
(392,118,l),
(392,177,l),
(485,177,l),
(485,204,l),
(392,204,l),
(392,261,l),
(493,261,l),
(493,288,l)
);
},
{
closed = 1;
nodes = (
(334,147,o),
(334,190,qs),
(334,233,o),
(307,260,qs),
(278,288,o),
(234,288,qs),
(160,288,l),
(160,91,l),
(234,91,ls),
(279,91,o),
(307,119,qs)
);
},
{
closed = 1;
nodes = (
(196,360,l),
(196,462,l),
(314,462,l),
(314,497,l),
(196,497,l),
(196,577,l),
(318,577,l),
(318,612,l),
(160,612,l),
(160,360,l)
);
},
{
closed = 1;
nodes = (
(739,360,l),
(739,394,l),
(609,394,l),
(609,470,l),
(728,470,l),
(728,504,l),
(609,504,l),
(609,577,l),
(739,577,l),
(739,612,l),
(573,612,l),
(573,360,l)
);
},
{
closed = 1;
nodes = (
(1032,700,l),
(1032,0,l),
(70,0,l),
(70,700,l)
);
}
);
width = 1102;
}
);
note = cent;
unicode = 162;
},
{
glyphname = sterling;
kernRight = sterling;
layers = (
{
layerId = m01;
shapes = (
{
closed = 1;
nodes = (
(872,264,o),
(893,243,qs),
(914,222,o),
(914,190,qs),
(914,158,o),
(893,137,qs),
(872,116,o),
(840,116,qs),
(808,116,o),
(787,137,qs),
(766,158,o),
(766,190,qs),
(766,222,o),
(787,243,qs),
(808,264,o),
(840,264,qs)
);
},
{
closed = 1;
nodes = (
(267,261,o),
(287,241,qs),
(306,221,o),
(306,190,qs),
(306,158,o),
(287,138,qs),
(267,118,o),
(236,118,qs),
(188,118,l),
(188,261,l),
(236,261,ls)
);
},
{
closed = 1;
nodes = (
(776,612,l),
(776,360,l),
(942,360,l),
(942,394,l),
(812,394,l),
(812,470,l),
(931,470,l),
(931,504,l),
(812,504,l),
(812,577,l),
(942,577,l),
(942,612,l)
);
},
{
closed = 1;
nodes = (
(942,146,o),
(942,190,qs),
(942,234,o),
(913,262,qs),
(884,291,o),
(840,291,qs),
(796,291,o),
(767,262,qs),
(738,234,o),
(738,190,qs),
(738,146,o),
(767,117,qs),
(796,89,o),
(840,89,qs),
(884,89,o),
(913,117,qs)
);
},
{
closed = 1;
nodes = (
(688,288,l),
(615,178,l),
(542,288,l),
(523,288,l),
(523,91,l),
(551,91,l),
(551,226,l),
(615,129,l),
(680,226,l),
(680,91,l),
(708,91,l),
(708,288,l)
);
},
{
closed = 1;
nodes = (
(537,360,l),
(473,455,l),
(501,461,o),
(518,482,qs),
(534,503,o),
(534,531,qs),
(534,567,o),
(511,589,qs),
(488,612,o),
(450,612,qs),
(354,612,l),
(354,360,l),
(390,360,l),
(390,577,l),
(450,577,ls),
(470,577,o),
(484,564,qs),
(498,551,o),
(498,530,qs),
(498,509,o),
(484,496,qs),
(470,482,o),
(450,482,qs),
(415,482,l),
(498,360,l)
);
},
{
closed = 1;
nodes = (
(364,288,l),
(364,91,l),
(493,91,l),
(493,118,l),
(392,118,l),
(392,177,l),
(485,177,l),
(485,204,l),
(392,204,l),
(392,261,l),
(493,261,l),
(493,288,l)
);
},
{
closed = 1;
nodes = (
(334,147,o),
(334,190,qs),
(334,233,o),
(307,260,qs),
(278,288,o),
(234,288,qs),
(160,288,l),
(160,91,l),
(234,91,ls),
(279,91,o),
(307,119,qs)
);
},
{
closed = 1;
nodes = (
(196,360,l),
(196,462,l),
(314,462,l),
(314,497,l),
(196,497,l),
(196,577,l),
(318,577,l),
(318,612,l),
(160,612,l),
(160,360,l)
);
},
{
closed = 1;
nodes = (
(739,360,l),
(739,394,l),
(609,394,l),
(609,470,l),
(728,470,l),
(728,504,l),
(609,504,l),
(609,577,l),
(739,577,l),
(739,612,l),
(573,612,l),
(573,360,l)
);
},
{
closed = 1;
nodes = (
(1032,700,l),
(1032,0,l),
(70,0,l),
(70,700,l)
);
}
);
width = 1102;
}
);
note = sterling;
unicode = 163;
},
{
glyphname = currency;
layers = (
{
layerId = m01;
shapes = (
{
closed = 1;
nodes = (
(872,264,o),
(893,243,qs),
(914,222,o),
(914,190,qs),
(914,158,o),
(893,137,qs),
(872,116,o),
(840,116,qs),
(808,116,o),
(787,137,qs),
(766,158,o),
(766,190,qs),
(766,222,o),
(787,243,qs),
(808,264,o),
(840,264,qs)
);
},
{
closed = 1;
nodes = (
(267,261,o),
(287,241,qs),
(306,221,o),
(306,190,qs),
(306,158,o),
(287,138,qs),
(267,118,o),
(236,118,qs),
(188,118,l),
(188,261,l),
(236,261,ls)
);
},
{
closed = 1;
nodes = (
(776,612,l),
(776,360,l),
(942,360,l),
(942,394,l),
(812,394,l),
(812,470,l),
(931,470,l),
(931,504,l),
(812,504,l),
(812,577,l),
(942,577,l),
(942,612,l)
);
},
{
closed = 1;
nodes = (
(942,146,o),
(942,190,qs),
(942,234,o),
(913,262,qs),
(884,291,o),
(840,291,qs),
(796,291,o),
(767,262,qs),
(738,234,o),
(738,190,qs),
(738,146,o),
(767,117,qs),
(796,89,o),
(840,89,qs),
(884,89,o),
(913,117,qs)
);
},
{
closed = 1;
nodes = (
(688,288,l),
(615,178,l),
(542,288,l),
(523,288,l),
(523,91,l),
(551,91,l),
(551,226,l),
(615,129,l),
(680,226,l),
(680,91,l),
(708,91,l),
(708,288,l)
);
},
{
closed = 1;
nodes = (
(537,360,l),
(473,455,l),
(501,461,o),
(518,482,qs),
(534,503,o),
(534,531,qs),
(534,567,o),
(511,589,qs),
(488,612,o),
(450,612,qs),
(354,612,l),
(354,360,l),
(390,360,l),
(390,577,l),
(450,577,ls),
(470,577,o),
(484,564,qs),
(498,551,o),
(498,530,qs),
(498,509,o),
(484,496,qs),
(470,482,o),
(450,482,qs),
(415,482,l),
(498,360,l)
);
},
{
closed = 1;
nodes = (
(364,288,l),
(364,91,l),
(493,91,l),
(493,118,l),
(392,118,l),
(392,177,l),
(485,177,l),
(485,204,l),
(392,204,l),
(392,261,l),
(493,261,l),
(493,288,l)
);
},
{
closed = 1;
nodes = (
(334,147,o),
(334,190,qs),
(334,233,o),
(307,260,qs),
(278,288,o),
(234,288,qs),
(160,288,l),
(160,91,l),
(234,91,ls),
(279,91,o),
(307,119,qs)
);
},
{
closed = 1;
nodes = (
(196,360,l),
(196,462,l),
(314,462,l),
(314,497,l),
(196,497,l),
(196,577,l),
(318,577,l),
(318,612,l),
(160,612,l),
(160,360,l)
);
},
{
closed = 1;
nodes = (
(739,360,l),
(739,394,l),
(609,394,l),
(609,470,l),
(728,470,l),
(728,504,l),
(609,504,l),
(609,577,l),
(739,577,l),
(739,612,l),
(573,612,l),
(573,360,l)
);
},
{
closed = 1;
nodes = (
(1032,700,l),
(1032,0,l),
(70,0,l),
(70,700,l)
);
}
);
width = 1102;
}
);
note = currency;
unicode = 164;
},
{
glyphname = yen;
kernRight = yen;
layers = (
{
layerId = m01;
shapes = (
{
closed = 1;
nodes = (
(872,264,o),
(893,243,qs),
(914,222,o),
(914,190,qs),
(914,158,o),
(893,137,qs),
(872,116,o),
(840,116,qs),
(808,116,o),
(787,137,qs),
(766,158,o),
(766,190,qs),
(766,222,o),
(787,243,qs),
(808,264,o),
(840,264,qs)
);
},
{
closed = 1;
nodes = (
(267,261,o),
(287,241,qs),
(306,221,o),
(306,190,qs),
(306,158,o),
(287,138,qs),
(267,118,o),
(236,118,qs),
(188,118,l),
(188,261,l),
(236,261,ls)
);
},
{
closed = 1;
nodes = (
(776,612,l),
(776,360,l),
(942,360,l),
(942,394,l),
(812,394,l),
(812,470,l),
(931,470,l),
(931,504,l),
(812,504,l),
(812,577,l),
(942,577,l),
(942,612,l)
);
},
{
closed = 1;
nodes = (
(942,146,o),
(942,190,qs),
(942,234,o),
(913,262,qs),
(884,291,o),
(840,291,qs),
(796,291,o),
(767,262,qs),
(738,234,o),
(738,190,qs),
(738,146,o),
(767,117,qs),
(796,89,o),
(840,89,qs),
(884,89,o),
(913,117,qs)
);
},
{
closed = 1;
nodes = (
(688,288,l),
(615,178,l),
(542,288,l),
(523,288,l),
(523,91,l),
(551,91,l),
(551,226,l),
(615,129,l),
(680,226,l),
(680,91,l),
(708,91,l),
(708,288,l)
);
},
{
closed = 1;
nodes = (
(537,360,l),
(473,455,l),
(501,461,o),
(518,482,qs),
(534,503,o),
(534,531,qs),
(534,567,o),
(511,589,qs),
(488,612,o),
(450,612,qs),
(354,612,l),
(354,360,l),
(390,360,l),
(390,577,l),
(450,577,ls),
(470,577,o),
(484,564,qs),
(498,551,o),
(498,530,qs),
(498,509,o),
(484,496,qs),
(470,482,o),
(450,482,qs),
(415,482,l),
(498,360,l)
);
},
{
closed = 1;
nodes = (
(364,288,l),
(364,91,l),
(493,91,l),
(493,118,l),
(392,118,l),
(392,177,l),
(485,177,l),
(485,204,l),
(392,204,l),
(392,261,l),
(493,261,l),
(493,288,l)
);
},
{
closed = 1;
nodes = (
(334,147,o),
(334,190,qs),
(334,233,o),
(307,260,qs),
(278,288,o),
(234,288,qs),
(160,288,l),
(160,91,l),
(234,91,ls),
(279,91,o),
(307,119,qs)
);
},
{
closed = 1;
nodes = (
(196,360,l),
(196,462,l),
(314,462,l),
(314,497,l),
(196,497,l),
(196,577,l),
(318,577,l),
(318,612,l),
(160,612,l),
(160,360,l)
);
},
{
closed = 1;
nodes = (
(739,360,l),
(739,394,l),
(609,394,l),
(609,470,l),
(728,470,l),
(728,504,l),
(609,504,l),
(609,577,l),
(739,577,l),
(739,612,l),
(573,612,l),
(573,360,l)
);
},
{
closed = 1;
nodes = (
(1032,700,l),
(1032,0,l),
(70,0,l),
(70,700,l)
);
}
);
width = 1102;
}
);
note = yen;
unicode = 165;
},
{
glyphname = brokenbar;
layers = (
{
layerId = m01;
shapes = (
{
closed = 1;
nodes = (
(872,264,o),
(893,243,qs),
(914,222,o),
(914,190,qs),
(914,158,o),
(893,137,qs),
(872,116,o),
(840,116,qs),
(808,116,o),
(787,137,qs),
(766,158,o),
(766,190,qs),
(766,222,o),
(787,243,qs),
(808,264,o),
(840,264,qs)
);
},
{
closed = 1;
nodes = (
(267,261,o),
(287,241,qs),
(306,221,o),
(306,190,qs),
(306,158,o),
(287,138,qs),
(267,118,o),
(236,118,qs),
(188,118,l),
(188,261,l),
(236,261,ls)
);
},
{
closed = 1;
nodes = (
(776,612,l),
(776,360,l),
(942,360,l),
(942,394,l),
(812,394,l),
(812,470,l),
(931,470,l),
(931,504,l),
(812,504,l),
(812,577,l),
(942,577,l),
(942,612,l)
);
},
{
closed = 1;
nodes = (
(942,146,o),
(942,190,qs),
(942,234,o),
(913,262,qs),
(884,291,o),
(840,291,qs),
(796,291,o),
(767,262,qs),
(738,234,o),
(738,190,qs),
(738,146,o),
(767,117,qs),
(796,89,o),
(840,89,qs),
(884,89,o),
(913,117,qs)
);
},
{
closed = 1;
nodes = (
(688,288,l),
(615,178,l),
(542,288,l),
(523,288,l),
(523,91,l),
(551,91,l),
(551,226,l),
(615,129,l),
(680,226,l),
(680,91,l),
(708,91,l),
(708,288,l)
);
},
{
closed = 1;
nodes = (
(537,360,l),
(473,455,l),
(501,461,o),
(518,482,qs),
(534,503,o),
(534,531,qs),
(534,567,o),
(511,589,qs),
(488,612,o),
(450,612,qs),
(354,612,l),
(354,360,l),
(390,360,l),
(390,577,l),
(450,577,ls),
(470,577,o),
(484,564,qs),
(498,551,o),
(498,530,qs),
(498,509,o),
(484,496,qs),
(470,482,o),
(450,482,qs),
(415,482,l),
(498,360,l)
);
},
{
closed = 1;
nodes = (
(364,288,l),
(364,91,l),
(493,91,l),
(493,118,l),
(392,118,l),
(392,177,l),
(485,177,l),
(485,204,l),
(392,204,l),
(392,261,l),
(493,261,l),
(493,288,l)
);
},
{
closed = 1;
nodes = (
(334,147,o),
(334,190,qs),
(334,233,o),
(307,260,qs),
(278,288,o),
(234,288,qs),
(160,288,l),
(160,91,l),
(234,91,ls),
(279,91,o),
(307,119,qs)
);
},
{
closed = 1;
nodes = (
(196,360,l),
(196,462,l),
(314,462,l),
(314,497,l),
(196,497,l),
(196,577,l),
(318,577,l),
(318,612,l),
(160,612,l),
(160,360,l)
);
},
{
closed = 1;
nodes = (
(739,360,l),
(739,394,l),
(609,394,l),
(609,470,l),
(728,470,l),
(728,504,l),
(609,504,l),
(609,577,l),
(739,577,l),
(739,612,l),
(573,612,l),
(573,360,l)
);
},
{
closed = 1;
nodes = (
(1032,700,l),
(1032,0,l),
(70,0,l),
(70,700,l)
);
}
);
width = 1102;
}
);
note = brokenbar;
unicode = 166;
},
{
glyphname = section;
kernRight = section;
layers = (
{
layerId = m01;
shapes = (
{
closed = 1;
nodes = (
(872,264,o),
(893,243,qs),
(914,222,o),
(914,190,qs),
(914,158,o),
(893,137,qs),
(872,116,o),
(840,116,qs),
(808,116,o),
(787,137,qs),
(766,158,o),
(766,190,qs),
(766,222,o),
(787,243,qs),
(808,264,o),
(840,264,qs)
);
},
{
closed = 1;
nodes = (
(267,261,o),
(287,241,qs),
(306,221,o),
(306,190,qs),
(306,158,o),
(287,138,qs),
(267,118,o),
(236,118,qs),
(188,118,l),
(188,261,l),
(236,261,ls)
);
},
{
closed = 1;
nodes = (
(776,612,l),
(776,360,l),
(942,360,l),
(942,394,l),
(812,394,l),
(812,470,l),
(931,470,l),
(931,504,l),
(812,504,l),
(812,577,l),
(942,577,l),
(942,612,l)
);
},
{
closed = 1;
nodes = (
(942,146,o),
(942,190,qs),
(942,234,o),
(913,262,qs),
(884,291,o),
(840,291,qs),
(796,291,o),
(767,262,qs),
(738,234,o),
(738,190,qs),
(738,146,o),
(767,117,qs),
(796,89,o),
(840,89,qs),
(884,89,o),
(913,117,qs)
);
},
{
closed = 1;
nodes = (
(688,288,l),
(615,178,l),
(542,288,l),
(523,288,l),
(523,91,l),
(551,91,l),
(551,226,l),
(615,129,l),
(680,226,l),
(680,91,l),
(708,91,l),
(708,288,l)
);
},
{
closed = 1;
nodes = (
(537,360,l),
(473,455,l),
(501,461,o),
(518,482,qs),
(534,503,o),
(534,531,qs),
(534,567,o),
(511,589,qs),
(488,612,o),
(450,612,qs),
(354,612,l),
(354,360,l),
(390,360,l),
(390,577,l),
(450,577,ls),
(470,577,o),
(484,564,qs),
(498,551,o),
(498,530,qs),
(498,509,o),
(484,496,qs),
(470,482,o),
(450,482,qs),
(415,482,l),
(498,360,l)
);
},
{
closed = 1;
nodes = (
(364,288,l),
(364,91,l),
(493,91,l),
(493,118,l),
(392,118,l),
(392,177,l),
(485,177,l),
(485,204,l),
(392,204,l),
(392,261,l),
(493,261,l),
(493,288,l)
);
},
{
closed = 1;
nodes = (
(334,147,o),
(334,190,qs),
(334,233,o),
(307,260,qs),
(278,288,o),
(234,288,qs),
(160,288,l),
(160,91,l),
(234,91,ls),
(279,91,o),
(307,119,qs)
);
},
{
closed = 1;
nodes = (
(196,360,l),
(196,462,l),
(314,462,l),
(314,497,l),
(196,497,l),
(196,577,l),
(318,577,l),
(318,612,l),
(160,612,l),
(160,360,l)
);
},
{
closed = 1;
nodes = (
(739,360,l),
(739,394,l),
(609,394,l),
(609,470,l),
(728,470,l),
(728,504,l),
(609,504,l),
(609,577,l),
(739,577,l),
(739,612,l),
(573,612,l),
(573,360,l)
);
},
{
closed = 1;
nodes = (
(1032,700,l),
(1032,0,l),
(70,0,l),
(70,700,l)
);
}
);
width = 1102;
}
);
note = section;
unicode = 167;
},
{
glyphname = dieresis;
layers = (
{
layerId = m01;
shapes = (
{
closed = 1;
nodes = (
(872,264,o),
(893,243,qs),
(914,222,o),
(914,190,qs),
(914,158,o),
(893,137,qs),
(872,116,o),
(840,116,qs),
(808,116,o),
(787,137,qs),
(766,158,o),
(766,190,qs),
(766,222,o),
(787,243,qs),
(808,264,o),
(840,264,qs)
);
},
{
closed = 1;
nodes = (
(267,261,o),
(287,241,qs),
(306,221,o),
(306,190,qs),
(306,158,o),
(287,138,qs),
(267,118,o),
(236,118,qs),
(188,118,l),
(188,261,l),
(236,261,ls)
);
},
{
closed = 1;
nodes = (
(776,612,l),
(776,360,l),
(942,360,l),
(942,394,l),
(812,394,l),
(812,470,l),
(931,470,l),
(931,504,l),
(812,504,l),
(812,577,l),
(942,577,l),
(942,612,l)
);
},
{
closed = 1;
nodes = (
(942,146,o),
(942,190,qs),
(942,234,o),
(913,262,qs),
(884,291,o),
(840,291,qs),
(796,291,o),
(767,262,qs),
(738,234,o),
(738,190,qs),
(738,146,o),
(767,117,qs),
(796,89,o),
(840,89,qs),
(884,89,o),
(913,117,qs)
);
},
{
closed = 1;
nodes = (
(688,288,l),
(615,178,l),
(542,288,l),
(523,288,l),
(523,91,l),
(551,91,l),
(551,226,l),
(615,129,l),
(680,226,l),
(680,91,l),
(708,91,l),
(708,288,l)
);
},
{
closed = 1;
nodes = (
(537,360,l),
(473,455,l),
(501,461,o),
(518,482,qs),
(534,503,o),
(534,531,qs),
(534,567,o),
(511,589,qs),
(488,612,o),
(450,612,qs),
(354,612,l),
(354,360,l),
(390,360,l),
(390,577,l),
(450,577,ls),
(470,577,o),
(484,564,qs),
(498,551,o),
(498,530,qs),
(498,509,o),
(484,496,qs),
(470,482,o),
(450,482,qs),
(415,482,l),
(498,360,l)
);
},
{
closed = 1;
nodes = (
(364,288,l),
(364,91,l),
(493,91,l),
(493,118,l),
(392,118,l),
(392,177,l),
(485,177,l),
(485,204,l),
(392,204,l),
(392,261,l),
(493,261,l),
(493,288,l)
);
},
{
closed = 1;
nodes = (
(334,147,o),
(334,190,qs),
(334,233,o),
(307,260,qs),
(278,288,o),
(234,288,qs),
(160,288,l),
(160,91,l),
(234,91,ls),
(279,91,o),
(307,119,qs)
);
},
{
closed = 1;
nodes = (
(196,360,l),
(196,462,l),
(314,462,l),
(314,497,l),
(196,497,l),
(196,577,l),
(318,577,l),
(318,612,l),
(160,612,l),
(160,360,l)
);
},
{
closed = 1;
nodes = (
(739,360,l),
(739,394,l),
(609,394,l),
(609,470,l),
(728,470,l),
(728,504,l),
(609,504,l),
(609,577,l),
(739,577,l),
(739,612,l),
(573,612,l),
(573,360,l)
);
},
{
closed = 1;
nodes = (
(1032,700,l),
(1032,0,l),
(70,0,l),
(70,700,l)
);
}
);
width = 1102;
}
);
note = dieresis;
unicode = 168;
},
{
glyphname = copyright;
kernRight = copyright;
lastChange = "2022-02-25 04:16:24 +0000";
layers = (
{
layerId = m01;
shapes = (
{
closed = 1;
nodes = (
(156,81,o),
(327,-90,o),
(539,-90,cs),
(750,-90,o),
(921,81,o),
(921,293,cs),
(921,504,o),
(750,675,o),
(539,675,cs),
(327,675,o),
(156,504,o),
(156,293,cs)
);
},
{
closed = 1;
nodes = (
(190,485,o),
(346,641,o),
(538,641,cs),
(730,641,o),
(886,485,o),
(886,293,cs),
(886,101,o),
(730,-55,o),
(538,-55,cs),
(346,-55,o),
(190,101,o),
(190,293,cs)
);
},
{
closed = 1;
nodes = (
(715,180,o),
(664,136,qs),
(611,91,o),
(536,91,qs),
(453,91,o),
(400,145,qs),
(345,198,o),
(345,280,qs),
(345,362,o),
(400,415,qs),
(453,469,o),
(536,469,qs),
(611,469,o),
(664,424,qs),
(715,380,o),
(725,309,q),
(651,309,l),
(643,349,o),
(611,374,qs),
(580,399,o),
(536,399,qs),
(485,399,o),
(451,365,qs),
(418,332,o),
(418,280,qs),
(418,228,o),
(451,195,qs),
(485,161,o),
(536,161,qs),
(580,161,o),
(611,186,qs),
(643,211,o),
(651,251,q),
(725,251,l)
);
}
);
width = 1102;
}
);
note = copyright;
unicode = 169;
},
{
glyphname = guillemotleft;
kernRight = plus;
layers = (
{
layerId = m01;
shapes = (
{
closed = 1;
nodes = (
(872,264,o),
(893,243,qs),
(914,222,o),
(914,190,qs),
(914,158,o),
(893,137,qs),
(872,116,o),
(840,116,qs),
(808,116,o),
(787,137,qs),
(766,158,o),
(766,190,qs),
(766,222,o),
(787,243,qs),
(808,264,o),
(840,264,qs)
);
},
{
closed = 1;
nodes = (
(267,261,o),
(287,241,qs),
(306,221,o),
(306,190,qs),
(306,158,o),
(287,138,qs),
(267,118,o),
(236,118,qs),
(188,118,l),
(188,261,l),
(236,261,ls)
);
},
{
closed = 1;
nodes = (
(776,612,l),
(776,360,l),
(942,360,l),
(942,394,l),
(812,394,l),
(812,470,l),
(931,470,l),
(931,504,l),
(812,504,l),
(812,577,l),
(942,577,l),
(942,612,l)
);
},
{
closed = 1;
nodes = (
(942,146,o),
(942,190,qs),
(942,234,o),
(913,262,qs),
(884,291,o),
(840,291,qs),
(796,291,o),
(767,262,qs),
(738,234,o),
(738,190,qs),
(738,146,o),
(767,117,qs),
(796,89,o),
(840,89,qs),
(884,89,o),
(913,117,qs)
);
},
{
closed = 1;
nodes = (
(688,288,l),
(615,178,l),
(542,288,l),
(523,288,l),
(523,91,l),
(551,91,l),
(551,226,l),
(615,129,l),
(680,226,l),
(680,91,l),
(708,91,l),
(708,288,l)
);
},
{
closed = 1;
nodes = (
(537,360,l),
(473,455,l),
(501,461,o),
(518,482,qs),
(534,503,o),
(534,531,qs),
(534,567,o),
(511,589,qs),
(488,612,o),
(450,612,qs),
(354,612,l),
(354,360,l),
(390,360,l),
(390,577,l),
(450,577,ls),
(470,577,o),
(484,564,qs),
(498,551,o),
(498,530,qs),
(498,509,o),
(484,496,qs),
(470,482,o),
(450,482,qs),
(415,482,l),
(498,360,l)
);
},
{
closed = 1;
nodes = (
(364,288,l),
(364,91,l),
(493,91,l),
(493,118,l),
(392,118,l),
(392,177,l),
(485,177,l),
(485,204,l),
(392,204,l),
(392,261,l),
(493,261,l),
(493,288,l)
);
},
{
closed = 1;
nodes = (
(334,147,o),
(334,190,qs),
(334,233,o),
(307,260,qs),
(278,288,o),
(234,288,qs),
(160,288,l),
(160,91,l),
(234,91,ls),
(279,91,o),
(307,119,qs)
);
},
{
closed = 1;
nodes = (
(196,360,l),
(196,462,l),
(314,462,l),
(314,497,l),
(196,497,l),
(196,577,l),
(318,577,l),
(318,612,l),
(160,612,l),
(160,360,l)
);
},
{
closed = 1;
nodes = (
(739,360,l),
(739,394,l),
(609,394,l),
(609,470,l),
(728,470,l),
(728,504,l),
(609,504,l),
(609,577,l),
(739,577,l),
(739,612,l),
(573,612,l),
(573,360,l)
);
},
{
closed = 1;
nodes = (
(1032,700,l),
(1032,0,l),
(70,0,l),
(70,700,l)
);
}
);
width = 1102;
}
);
note = guillemotleft;
unicode = 171;
},
{
glyphname = logicalnot;
kernRight = plus;
layers = (
{
layerId = m01;
shapes = (
{
closed = 1;
nodes = (
(872,264,o),
(893,243,qs),
(914,222,o),
(914,190,qs),
(914,158,o),
(893,137,qs),
(872,116,o),
(840,116,qs),
(808,116,o),
(787,137,qs),
(766,158,o),
(766,190,qs),
(766,222,o),
(787,243,qs),
(808,264,o),
(840,264,qs)
);
},
{
closed = 1;
nodes = (
(267,261,o),
(287,241,qs),
(306,221,o),
(306,190,qs),
(306,158,o),
(287,138,qs),
(267,118,o),
(236,118,qs),
(188,118,l),
(188,261,l),
(236,261,ls)
);
},
{
closed = 1;
nodes = (
(776,612,l),
(776,360,l),
(942,360,l),
(942,394,l),
(812,394,l),
(812,470,l),
(931,470,l),
(931,504,l),
(812,504,l),
(812,577,l),
(942,577,l),
(942,612,l)
);
},
{
closed = 1;
nodes = (
(942,146,o),
(942,190,qs),
(942,234,o),
(913,262,qs),
(884,291,o),
(840,291,qs),
(796,291,o),
(767,262,qs),
(738,234,o),
(738,190,qs),
(738,146,o),
(767,117,qs),
(796,89,o),
(840,89,qs),
(884,89,o),
(913,117,qs)
);
},
{
closed = 1;
nodes = (
(688,288,l),
(615,178,l),
(542,288,l),
(523,288,l),
(523,91,l),
(551,91,l),
(551,226,l),
(615,129,l),
(680,226,l),
(680,91,l),
(708,91,l),
(708,288,l)
);
},
{
closed = 1;
nodes = (
(537,360,l),
(473,455,l),
(501,461,o),
(518,482,qs),
(534,503,o),
(534,531,qs),
(534,567,o),
(511,589,qs),
(488,612,o),
(450,612,qs),
(354,612,l),
(354,360,l),
(390,360,l),
(390,577,l),
(450,577,ls),
(470,577,o),
(484,564,qs),
(498,551,o),
(498,530,qs),
(498,509,o),
(484,496,qs),
(470,482,o),
(450,482,qs),
(415,482,l),
(498,360,l)
);
},
{
closed = 1;
nodes = (
(364,288,l),
(364,91,l),
(493,91,l),
(493,118,l),
(392,118,l),
(392,177,l),
(485,177,l),
(485,204,l),
(392,204,l),
(392,261,l),
(493,261,l),
(493,288,l)
);
},
{
closed = 1;
nodes = (
(334,147,o),
(334,190,qs),
(334,233,o),
(307,260,qs),
(278,288,o),
(234,288,qs),
(160,288,l),
(160,91,l),
(234,91,ls),
(279,91,o),
(307,119,qs)
);
},
{
closed = 1;
nodes = (
(196,360,l),
(196,462,l),
(314,462,l),
(314,497,l),
(196,497,l),
(196,577,l),
(318,577,l),
(318,612,l),
(160,612,l),
(160,360,l)
);
},
{
closed = 1;
nodes = (
(739,360,l),
(739,394,l),
(609,394,l),
(609,470,l),
(728,470,l),
(728,504,l),
(609,504,l),
(609,577,l),
(739,577,l),
(739,612,l),
(573,612,l),
(573,360,l)
);
},
{
closed = 1;
nodes = (
(1032,700,l),
(1032,0,l),
(70,0,l),
(70,700,l)
);
}
);
width = 1102;
}
);
note = logicalnot;
unicode = 172;
},
{
glyphname = registered;
kernRight = copyright;
layers = (
{
layerId = m01;
shapes = (
{
closed = 1;
nodes = (
(872,264,o),
(893,243,qs),
(914,222,o),
(914,190,qs),
(914,158,o),
(893,137,qs),
(872,116,o),
(840,116,qs),
(808,116,o),
(787,137,qs),
(766,158,o),
(766,190,qs),
(766,222,o),
(787,243,qs),
(808,264,o),
(840,264,qs)
);
},
{
closed = 1;
nodes = (
(267,261,o),
(287,241,qs),
(306,221,o),
(306,190,qs),
(306,158,o),
(287,138,qs),
(267,118,o),
(236,118,qs),
(188,118,l),
(188,261,l),
(236,261,ls)
);
},
{
closed = 1;
nodes = (
(776,612,l),
(776,360,l),
(942,360,l),
(942,394,l),
(812,394,l),
(812,470,l),
(931,470,l),
(931,504,l),
(812,504,l),
(812,577,l),
(942,577,l),
(942,612,l)
);
},
{
closed = 1;
nodes = (
(942,146,o),
(942,190,qs),
(942,234,o),
(913,262,qs),
(884,291,o),
(840,291,qs),
(796,291,o),
(767,262,qs),
(738,234,o),
(738,190,qs),
(738,146,o),
(767,117,qs),
(796,89,o),
(840,89,qs),
(884,89,o),
(913,117,qs)
);
},
{
closed = 1;
nodes = (
(688,288,l),
(615,178,l),
(542,288,l),
(523,288,l),
(523,91,l),
(551,91,l),
(551,226,l),
(615,129,l),
(680,226,l),
(680,91,l),
(708,91,l),
(708,288,l)
);
},
{
closed = 1;
nodes = (
(537,360,l),
(473,455,l),
(501,461,o),
(518,482,qs),
(534,503,o),
(534,531,qs),
(534,567,o),
(511,589,qs),
(488,612,o),
(450,612,qs),
(354,612,l),
(354,360,l),
(390,360,l),
(390,577,l),
(450,577,ls),
(470,577,o),
(484,564,qs),
(498,551,o),
(498,530,qs),
(498,509,o),
(484,496,qs),
(470,482,o),
(450,482,qs),
(415,482,l),
(498,360,l)
);
},
{
closed = 1;
nodes = (
(364,288,l),
(364,91,l),
(493,91,l),
(493,118,l),
(392,118,l),
(392,177,l),
(485,177,l),
(485,204,l),
(392,204,l),
(392,261,l),
(493,261,l),
(493,288,l)
);
},
{
closed = 1;
nodes = (
(334,147,o),
(334,190,qs),
(334,233,o),
(307,260,qs),
(278,288,o),
(234,288,qs),
(160,288,l),
(160,91,l),
(234,91,ls),
(279,91,o),
(307,119,qs)
);
},
{
closed = 1;
nodes = (
(196,360,l),
(196,462,l),
(314,462,l),
(314,497,l),
(196,497,l),
(196,577,l),
(318,577,l),
(318,612,l),
(160,612,l),
(160,360,l)
);
},
{
closed = 1;
nodes = (
(739,360,l),
(739,394,l),
(609,394,l),
(609,470,l),
(728,470,l),
(728,504,l),
(609,504,l),
(609,577,l),
(739,577,l),
(739,612,l),
(573,612,l),
(573,360,l)
);
},
{
closed = 1;
nodes = (
(1032,700,l),
(1032,0,l),
(70,0,l),
(70,700,l)
);
}
);
width = 1102;
}
);
note = registered;
unicode = 174;
},
{
glyphname = macron;
layers = (
{
layerId = m01;
shapes = (
{
closed = 1;
nodes = (
(872,264,o),
(893,243,qs),
(914,222,o),
(914,190,qs),
(914,158,o),
(893,137,qs),
(872,116,o),
(840,116,qs),
(808,116,o),
(787,137,qs),
(766,158,o),
(766,190,qs),
(766,222,o),
(787,243,qs),
(808,264,o),
(840,264,qs)
);
},
{
closed = 1;
nodes = (
(267,261,o),
(287,241,qs),
(306,221,o),
(306,190,qs),
(306,158,o),
(287,138,qs),
(267,118,o),
(236,118,qs),
(188,118,l),
(188,261,l),
(236,261,ls)
);
},
{
closed = 1;
nodes = (
(776,612,l),
(776,360,l),
(942,360,l),
(942,394,l),
(812,394,l),
(812,470,l),
(931,470,l),
(931,504,l),
(812,504,l),
(812,577,l),
(942,577,l),
(942,612,l)
);
},
{
closed = 1;
nodes = (
(942,146,o),
(942,190,qs),
(942,234,o),
(913,262,qs),
(884,291,o),
(840,291,qs),
(796,291,o),
(767,262,qs),
(738,234,o),
(738,190,qs),
(738,146,o),
(767,117,qs),
(796,89,o),
(840,89,qs),
(884,89,o),
(913,117,qs)
);
},
{
closed = 1;
nodes = (
(688,288,l),
(615,178,l),
(542,288,l),
(523,288,l),
(523,91,l),
(551,91,l),
(551,226,l),
(615,129,l),
(680,226,l),
(680,91,l),
(708,91,l),
(708,288,l)
);
},
{
closed = 1;
nodes = (
(537,360,l),
(473,455,l),
(501,461,o),
(518,482,qs),
(534,503,o),
(534,531,qs),
(534,567,o),
(511,589,qs),
(488,612,o),
(450,612,qs),
(354,612,l),
(354,360,l),
(390,360,l),
(390,577,l),
(450,577,ls),
(470,577,o),
(484,564,qs),
(498,551,o),
(498,530,qs),
(498,509,o),
(484,496,qs),
(470,482,o),
(450,482,qs),
(415,482,l),
(498,360,l)
);
},
{
closed = 1;
nodes = (
(364,288,l),
(364,91,l),
(493,91,l),
(493,118,l),
(392,118,l),
(392,177,l),
(485,177,l),
(485,204,l),
(392,204,l),
(392,261,l),
(493,261,l),
(493,288,l)
);
},
{
closed = 1;
nodes = (
(334,147,o),
(334,190,qs),
(334,233,o),
(307,260,qs),
(278,288,o),
(234,288,qs),
(160,288,l),
(160,91,l),
(234,91,ls),
(279,91,o),
(307,119,qs)
);
},
{
closed = 1;
nodes = (
(196,360,l),
(196,462,l),
(314,462,l),
(314,497,l),
(196,497,l),
(196,577,l),
(318,577,l),
(318,612,l),
(160,612,l),
(160,360,l)
);
},
{
closed = 1;
nodes = (
(739,360,l),
(739,394,l),
(609,394,l),
(609,470,l),
(728,470,l),
(728,504,l),
(609,504,l),
(609,577,l),
(739,577,l),
(739,612,l),
(573,612,l),
(573,360,l)
);
},
{
closed = 1;
nodes = (
(1032,700,l),
(1032,0,l),
(70,0,l),
(70,700,l)
);
}
);
width = 1102;
}
);
note = macron;
unicode = 175;
},
{
glyphname = degree;
kernRight = asterisk;
layers = (
{
layerId = m01;
shapes = (
{
closed = 1;
nodes = (
(872,264,o),
(893,243,qs),
(914,222,o),
(914,190,qs),
(914,158,o),
(893,137,qs),
(872,116,o),
(840,116,qs),
(808,116,o),
(787,137,qs),
(766,158,o),
(766,190,qs),
(766,222,o),
(787,243,qs),
(808,264,o),
(840,264,qs)
);
},
{
closed = 1;
nodes = (
(267,261,o),
(287,241,qs),
(306,221,o),
(306,190,qs),
(306,158,o),
(287,138,qs),
(267,118,o),
(236,118,qs),
(188,118,l),
(188,261,l),
(236,261,ls)
);
},
{
closed = 1;
nodes = (
(776,612,l),
(776,360,l),
(942,360,l),
(942,394,l),
(812,394,l),
(812,470,l),
(931,470,l),
(931,504,l),
(812,504,l),
(812,577,l),
(942,577,l),
(942,612,l)
);
},
{
closed = 1;
nodes = (
(942,146,o),
(942,190,qs),
(942,234,o),
(913,262,qs),
(884,291,o),
(840,291,qs),
(796,291,o),
(767,262,qs),
(738,234,o),
(738,190,qs),
(738,146,o),
(767,117,qs),
(796,89,o),
(840,89,qs),
(884,89,o),
(913,117,qs)
);
},
{
closed = 1;
nodes = (
(688,288,l),
(615,178,l),
(542,288,l),
(523,288,l),
(523,91,l),
(551,91,l),
(551,226,l),
(615,129,l),
(680,226,l),
(680,91,l),
(708,91,l),
(708,288,l)
);
},
{
closed = 1;
nodes = (
(537,360,l),
(473,455,l),
(501,461,o),
(518,482,qs),
(534,503,o),
(534,531,qs),
(534,567,o),
(511,589,qs),
(488,612,o),
(450,612,qs),
(354,612,l),
(354,360,l),
(390,360,l),
(390,577,l),
(450,577,ls),
(470,577,o),
(484,564,qs),
(498,551,o),
(498,530,qs),
(498,509,o),
(484,496,qs),
(470,482,o),
(450,482,qs),
(415,482,l),
(498,360,l)
);
},
{
closed = 1;
nodes = (
(364,288,l),
(364,91,l),
(493,91,l),
(493,118,l),
(392,118,l),
(392,177,l),
(485,177,l),
(485,204,l),
(392,204,l),
(392,261,l),
(493,261,l),
(493,288,l)
);
},
{
closed = 1;
nodes = (
(334,147,o),
(334,190,qs),
(334,233,o),
(307,260,qs),
(278,288,o),
(234,288,qs),
(160,288,l),
(160,91,l),
(234,91,ls),
(279,91,o),
(307,119,qs)
);
},
{
closed = 1;
nodes = (
(196,360,l),
(196,462,l),
(314,462,l),
(314,497,l),
(196,497,l),
(196,577,l),
(318,577,l),
(318,612,l),
(160,612,l),
(160,360,l)
);
},
{
closed = 1;
nodes = (
(739,360,l),
(739,394,l),
(609,394,l),
(609,470,l),
(728,470,l),
(728,504,l),
(609,504,l),
(609,577,l),
(739,577,l),
(739,612,l),
(573,612,l),
(573,360,l)
);
},
{
closed = 1;
nodes = (
(1032,700,l),
(1032,0,l),
(70,0,l),
(70,700,l)
);
}
);
width = 1102;
}
);
note = degree;
unicode = 176;
},
{
glyphname = plusminus;
kernRight = plus;
layers = (
{
layerId = m01;
shapes = (
{
closed = 1;
nodes = (
(872,264,o),
(893,243,qs),
(914,222,o),
(914,190,qs),
(914,158,o),
(893,137,qs),
(872,116,o),
(840,116,qs),
(808,116,o),
(787,137,qs),
(766,158,o),
(766,190,qs),
(766,222,o),
(787,243,qs),
(808,264,o),
(840,264,qs)
);
},
{
closed = 1;
nodes = (
(267,261,o),
(287,241,qs),
(306,221,o),
(306,190,qs),
(306,158,o),
(287,138,qs),
(267,118,o),
(236,118,qs),
(188,118,l),
(188,261,l),
(236,261,ls)
);
},
{
closed = 1;
nodes = (
(776,612,l),
(776,360,l),
(942,360,l),
(942,394,l),
(812,394,l),
(812,470,l),
(931,470,l),
(931,504,l),
(812,504,l),
(812,577,l),
(942,577,l),
(942,612,l)
);
},
{
closed = 1;
nodes = (
(942,146,o),
(942,190,qs),
(942,234,o),
(913,262,qs),
(884,291,o),
(840,291,qs),
(796,291,o),
(767,262,qs),
(738,234,o),
(738,190,qs),
(738,146,o),
(767,117,qs),
(796,89,o),
(840,89,qs),
(884,89,o),
(913,117,qs)
);
},
{
closed = 1;
nodes = (
(688,288,l),
(615,178,l),
(542,288,l),
(523,288,l),
(523,91,l),
(551,91,l),
(551,226,l),
(615,129,l),
(680,226,l),
(680,91,l),
(708,91,l),
(708,288,l)
);
},
{
closed = 1;
nodes = (
(537,360,l),
(473,455,l),
(501,461,o),
(518,482,qs),
(534,503,o),
(534,531,qs),
(534,567,o),
(511,589,qs),
(488,612,o),
(450,612,qs),
(354,612,l),
(354,360,l),
(390,360,l),
(390,577,l),
(450,577,ls),
(470,577,o),
(484,564,qs),
(498,551,o),
(498,530,qs),
(498,509,o),
(484,496,qs),
(470,482,o),
(450,482,qs),
(415,482,l),
(498,360,l)
);
},
{
closed = 1;
nodes = (
(364,288,l),
(364,91,l),
(493,91,l),
(493,118,l),
(392,118,l),
(392,177,l),
(485,177,l),
(485,204,l),
(392,204,l),
(392,261,l),
(493,261,l),
(493,288,l)
);
},
{
closed = 1;
nodes = (
(334,147,o),
(334,190,qs),
(334,233,o),
(307,260,qs),
(278,288,o),
(234,288,qs),
(160,288,l),
(160,91,l),
(234,91,ls),
(279,91,o),
(307,119,qs)
);
},
{
closed = 1;
nodes = (
(196,360,l),
(196,462,l),
(314,462,l),
(314,497,l),
(196,497,l),
(196,577,l),
(318,577,l),
(318,612,l),
(160,612,l),
(160,360,l)
);
},
{
closed = 1;
nodes = (
(739,360,l),
(739,394,l),
(609,394,l),
(609,470,l),
(728,470,l),
(728,504,l),
(609,504,l),
(609,577,l),
(739,577,l),
(739,612,l),
(573,612,l),
(573,360,l)
);
},
{
closed = 1;
nodes = (
(1032,700,l),
(1032,0,l),
(70,0,l),
(70,700,l)
);
}
);
width = 1102;
}
);
note = plusminus;
unicode = 177;
},
{
glyphname = acute;
layers = (
{
layerId = m01;
shapes = (
{
closed = 1;
nodes = (
(872,264,o),
(893,243,qs),
(914,222,o),
(914,190,qs),
(914,158,o),
(893,137,qs),
(872,116,o),
(840,116,qs),
(808,116,o),
(787,137,qs),
(766,158,o),
(766,190,qs),
(766,222,o),
(787,243,qs),
(808,264,o),
(840,264,qs)
);
},
{
closed = 1;
nodes = (
(267,261,o),
(287,241,qs),
(306,221,o),
(306,190,qs),
(306,158,o),
(287,138,qs),
(267,118,o),
(236,118,qs),
(188,118,l),
(188,261,l),
(236,261,ls)
);
},
{
closed = 1;
nodes = (
(776,612,l),
(776,360,l),
(942,360,l),
(942,394,l),
(812,394,l),
(812,470,l),
(931,470,l),
(931,504,l),
(812,504,l),
(812,577,l),
(942,577,l),
(942,612,l)
);
},
{
closed = 1;
nodes = (
(942,146,o),
(942,190,qs),
(942,234,o),
(913,262,qs),
(884,291,o),
(840,291,qs),
(796,291,o),
(767,262,qs),
(738,234,o),
(738,190,qs),
(738,146,o),
(767,117,qs),
(796,89,o),
(840,89,qs),
(884,89,o),
(913,117,qs)
);
},
{
closed = 1;
nodes = (
(688,288,l),
(615,178,l),
(542,288,l),
(523,288,l),
(523,91,l),
(551,91,l),
(551,226,l),
(615,129,l),
(680,226,l),
(680,91,l),
(708,91,l),
(708,288,l)
);
},
{
closed = 1;
nodes = (
(537,360,l),
(473,455,l),
(501,461,o),
(518,482,qs),
(534,503,o),
(534,531,qs),
(534,567,o),
(511,589,qs),
(488,612,o),
(450,612,qs),
(354,612,l),
(354,360,l),
(390,360,l),
(390,577,l),
(450,577,ls),
(470,577,o),
(484,564,qs),
(498,551,o),
(498,530,qs),
(498,509,o),
(484,496,qs),
(470,482,o),
(450,482,qs),
(415,482,l),
(498,360,l)
);
},
{
closed = 1;
nodes = (
(364,288,l),
(364,91,l),
(493,91,l),
(493,118,l),
(392,118,l),
(392,177,l),
(485,177,l),
(485,204,l),
(392,204,l),
(392,261,l),
(493,261,l),
(493,288,l)
);
},
{
closed = 1;
nodes = (
(334,147,o),
(334,190,qs),
(334,233,o),
(307,260,qs),
(278,288,o),
(234,288,qs),
(160,288,l),
(160,91,l),
(234,91,ls),
(279,91,o),
(307,119,qs)
);
},
{
closed = 1;
nodes = (
(196,360,l),
(196,462,l),
(314,462,l),
(314,497,l),
(196,497,l),
(196,577,l),
(318,577,l),
(318,612,l),
(160,612,l),
(160,360,l)
);
},
{
closed = 1;
nodes = (
(739,360,l),
(739,394,l),
(609,394,l),
(609,470,l),
(728,470,l),
(728,504,l),
(609,504,l),
(609,577,l),
(739,577,l),
(739,612,l),
(573,612,l),
(573,360,l)
);
},
{
closed = 1;
nodes = (
(1032,700,l),
(1032,0,l),
(70,0,l),
(70,700,l)
);
}
);
width = 1102;
}
);
note = acute;
unicode = 180;
},
{
glyphname = mu;
layers = (
{
layerId = m01;
shapes = (
{
closed = 1;
nodes = (
(872,264,o),
(893,243,qs),
(914,222,o),
(914,190,qs),
(914,158,o),
(893,137,qs),
(872,116,o),
(840,116,qs),
(808,116,o),
(787,137,qs),
(766,158,o),
(766,190,qs),
(766,222,o),
(787,243,qs),
(808,264,o),
(840,264,qs)
);
},
{
closed = 1;
nodes = (
(267,261,o),
(287,241,qs),
(306,221,o),
(306,190,qs),
(306,158,o),
(287,138,qs),
(267,118,o),
(236,118,qs),
(188,118,l),
(188,261,l),
(236,261,ls)
);
},
{
closed = 1;
nodes = (
(776,612,l),
(776,360,l),
(942,360,l),
(942,394,l),
(812,394,l),
(812,470,l),
(931,470,l),
(931,504,l),
(812,504,l),
(812,577,l),
(942,577,l),
(942,612,l)
);
},
{
closed = 1;
nodes = (
(942,146,o),
(942,190,qs),
(942,234,o),
(913,262,qs),
(884,291,o),
(840,291,qs),
(796,291,o),
(767,262,qs),
(738,234,o),
(738,190,qs),
(738,146,o),
(767,117,qs),
(796,89,o),
(840,89,qs),
(884,89,o),
(913,117,qs)
);
},
{
closed = 1;
nodes = (
(688,288,l),
(615,178,l),
(542,288,l),
(523,288,l),
(523,91,l),
(551,91,l),
(551,226,l),
(615,129,l),
(680,226,l),
(680,91,l),
(708,91,l),
(708,288,l)
);
},
{
closed = 1;
nodes = (
(537,360,l),
(473,455,l),
(501,461,o),
(518,482,qs),
(534,503,o),
(534,531,qs),
(534,567,o),
(511,589,qs),
(488,612,o),
(450,612,qs),
(354,612,l),
(354,360,l),
(390,360,l),
(390,577,l),
(450,577,ls),
(470,577,o),
(484,564,qs),
(498,551,o),
(498,530,qs),
(498,509,o),
(484,496,qs),
(470,482,o),
(450,482,qs),
(415,482,l),
(498,360,l)
);
},
{
closed = 1;
nodes = (
(364,288,l),
(364,91,l),
(493,91,l),
(493,118,l),
(392,118,l),
(392,177,l),
(485,177,l),
(485,204,l),
(392,204,l),
(392,261,l),
(493,261,l),
(493,288,l)
);
},
{
closed = 1;
nodes = (
(334,147,o),
(334,190,qs),
(334,233,o),
(307,260,qs),
(278,288,o),
(234,288,qs),
(160,288,l),
(160,91,l),
(234,91,ls),
(279,91,o),
(307,119,qs)
);
},
{
closed = 1;
nodes = (
(196,360,l),
(196,462,l),
(314,462,l),
(314,497,l),
(196,497,l),
(196,577,l),
(318,577,l),
(318,612,l),
(160,612,l),
(160,360,l)
);
},
{
closed = 1;
nodes = (
(739,360,l),
(739,394,l),
(609,394,l),
(609,470,l),
(728,470,l),
(728,504,l),
(609,504,l),
(609,577,l),
(739,577,l),
(739,612,l),
(573,612,l),
(573,360,l)
);
},
{
closed = 1;
nodes = (
(1032,700,l),
(1032,0,l),
(70,0,l),
(70,700,l)
);
}
);
width = 1102;
}
);
note = mu;
unicode = 181;
},
{
glyphname = paragraph;
layers = (
{
layerId = m01;
shapes = (
{
closed = 1;
nodes = (
(872,264,o),
(893,243,qs),
(914,222,o),
(914,190,qs),
(914,158,o),
(893,137,qs),
(872,116,o),
(840,116,qs),
(808,116,o),
(787,137,qs),
(766,158,o),
(766,190,qs),
(766,222,o),
(787,243,qs),
(808,264,o),
(840,264,qs)
);
},
{
closed = 1;
nodes = (
(267,261,o),
(287,241,qs),
(306,221,o),
(306,190,qs),
(306,158,o),
(287,138,qs),
(267,118,o),
(236,118,qs),
(188,118,l),
(188,261,l),
(236,261,ls)
);
},
{
closed = 1;
nodes = (
(776,612,l),
(776,360,l),
(942,360,l),
(942,394,l),
(812,394,l),
(812,470,l),
(931,470,l),
(931,504,l),
(812,504,l),
(812,577,l),
(942,577,l),
(942,612,l)
);
},
{
closed = 1;
nodes = (
(942,146,o),
(942,190,qs),
(942,234,o),
(913,262,qs),
(884,291,o),
(840,291,qs),
(796,291,o),
(767,262,qs),
(738,234,o),
(738,190,qs),
(738,146,o),
(767,117,qs),
(796,89,o),
(840,89,qs),
(884,89,o),
(913,117,qs)
);
},
{
closed = 1;
nodes = (
(688,288,l),
(615,178,l),
(542,288,l),
(523,288,l),
(523,91,l),
(551,91,l),
(551,226,l),
(615,129,l),
(680,226,l),
(680,91,l),
(708,91,l),
(708,288,l)
);
},
{
closed = 1;
nodes = (
(537,360,l),
(473,455,l),
(501,461,o),
(518,482,qs),
(534,503,o),
(534,531,qs),
(534,567,o),
(511,589,qs),
(488,612,o),
(450,612,qs),
(354,612,l),
(354,360,l),
(390,360,l),
(390,577,l),
(450,577,ls),
(470,577,o),
(484,564,qs),
(498,551,o),
(498,530,qs),
(498,509,o),
(484,496,qs),
(470,482,o),
(450,482,qs),
(415,482,l),
(498,360,l)
);
},
{
closed = 1;
nodes = (
(364,288,l),
(364,91,l),
(493,91,l),
(493,118,l),
(392,118,l),
(392,177,l),
(485,177,l),
(485,204,l),
(392,204,l),
(392,261,l),
(493,261,l),
(493,288,l)
);
},
{
closed = 1;
nodes = (
(334,147,o),
(334,190,qs),
(334,233,o),
(307,260,qs),
(278,288,o),
(234,288,qs),
(160,288,l),
(160,91,l),
(234,91,ls),
(279,91,o),
(307,119,qs)
);
},
{
closed = 1;
nodes = (
(196,360,l),
(196,462,l),
(314,462,l),
(314,497,l),
(196,497,l),
(196,577,l),
(318,577,l),
(318,612,l),
(160,612,l),
(160,360,l)
);
},
{
closed = 1;
nodes = (
(739,360,l),
(739,394,l),
(609,394,l),
(609,470,l),
(728,470,l),
(728,504,l),
(609,504,l),
(609,577,l),
(739,577,l),
(739,612,l),
(573,612,l),
(573,360,l)
);
},
{
closed = 1;
nodes = (
(1032,700,l),
(1032,0,l),
(70,0,l),
(70,700,l)
);
}
);
width = 1102;
}
);
note = paragraph;
unicode = 182;
},
{
glyphname = periodcentered;
kernRight = periodcentered;
layers = (
{
layerId = m01;
shapes = (
{
closed = 1;
nodes = (
(872,264,o),
(893,243,qs),
(914,222,o),
(914,190,qs),
(914,158,o),
(893,137,qs),
(872,116,o),
(840,116,qs),
(808,116,o),
(787,137,qs),
(766,158,o),
(766,190,qs),
(766,222,o),
(787,243,qs),
(808,264,o),
(840,264,qs)
);
},
{
closed = 1;
nodes = (
(267,261,o),
(287,241,qs),
(306,221,o),
(306,190,qs),
(306,158,o),
(287,138,qs),
(267,118,o),
(236,118,qs),
(188,118,l),
(188,261,l),
(236,261,ls)
);
},
{
closed = 1;
nodes = (
(776,612,l),
(776,360,l),
(942,360,l),
(942,394,l),
(812,394,l),
(812,470,l),
(931,470,l),
(931,504,l),
(812,504,l),
(812,577,l),
(942,577,l),
(942,612,l)
);
},
{
closed = 1;
nodes = (
(942,146,o),
(942,190,qs),
(942,234,o),
(913,262,qs),
(884,291,o),
(840,291,qs),
(796,291,o),
(767,262,qs),
(738,234,o),
(738,190,qs),
(738,146,o),
(767,117,qs),
(796,89,o),
(840,89,qs),
(884,89,o),
(913,117,qs)
);
},
{
closed = 1;
nodes = (
(688,288,l),
(615,178,l),
(542,288,l),
(523,288,l),
(523,91,l),
(551,91,l),
(551,226,l),
(615,129,l),
(680,226,l),
(680,91,l),
(708,91,l),
(708,288,l)
);
},
{
closed = 1;
nodes = (
(537,360,l),
(473,455,l),
(501,461,o),
(518,482,qs),
(534,503,o),
(534,531,qs),
(534,567,o),
(511,589,qs),
(488,612,o),
(450,612,qs),
(354,612,l),
(354,360,l),
(390,360,l),
(390,577,l),
(450,577,ls),
(470,577,o),
(484,564,qs),
(498,551,o),
(498,530,qs),
(498,509,o),
(484,496,qs),
(470,482,o),
(450,482,qs),
(415,482,l),
(498,360,l)
);
},
{
closed = 1;
nodes = (
(364,288,l),
(364,91,l),
(493,91,l),
(493,118,l),
(392,118,l),
(392,177,l),
(485,177,l),
(485,204,l),
(392,204,l),
(392,261,l),
(493,261,l),
(493,288,l)
);
},
{
closed = 1;
nodes = (
(334,147,o),
(334,190,qs),
(334,233,o),
(307,260,qs),
(278,288,o),
(234,288,qs),
(160,288,l),
(160,91,l),
(234,91,ls),
(279,91,o),
(307,119,qs)
);
},
{
closed = 1;
nodes = (
(196,360,l),
(196,462,l),
(314,462,l),
(314,497,l),
(196,497,l),
(196,577,l),
(318,577,l),
(318,612,l),
(160,612,l),
(160,360,l)
);
},
{
closed = 1;
nodes = (
(739,360,l),
(739,394,l),
(609,394,l),
(609,470,l),
(728,470,l),
(728,504,l),
(609,504,l),
(609,577,l),
(739,577,l),
(739,612,l),
(573,612,l),
(573,360,l)
);
},
{
closed = 1;
nodes = (
(1032,700,l),
(1032,0,l),
(70,0,l),
(70,700,l)
);
}
);
width = 1102;
}
);
note = periodcentered;
unicode = 183;
},
{
glyphname = cedilla;
layers = (
{
layerId = m01;
shapes = (
{
closed = 1;
nodes = (
(872,264,o),
(893,243,qs),
(914,222,o),
(914,190,qs),
(914,158,o),
(893,137,qs),
(872,116,o),
(840,116,qs),
(808,116,o),
(787,137,qs),
(766,158,o),
(766,190,qs),
(766,222,o),
(787,243,qs),
(808,264,o),
(840,264,qs)
);
},
{
closed = 1;
nodes = (
(267,261,o),
(287,241,qs),
(306,221,o),
(306,190,qs),
(306,158,o),
(287,138,qs),
(267,118,o),
(236,118,qs),
(188,118,l),
(188,261,l),
(236,261,ls)
);
},
{
closed = 1;
nodes = (
(776,612,l),
(776,360,l),
(942,360,l),
(942,394,l),
(812,394,l),
(812,470,l),
(931,470,l),
(931,504,l),
(812,504,l),
(812,577,l),
(942,577,l),
(942,612,l)
);
},
{
closed = 1;
nodes = (
(942,146,o),
(942,190,qs),
(942,234,o),
(913,262,qs),
(884,291,o),
(840,291,qs),
(796,291,o),
(767,262,qs),
(738,234,o),
(738,190,qs),
(738,146,o),
(767,117,qs),
(796,89,o),
(840,89,qs),
(884,89,o),
(913,117,qs)
);
},
{
closed = 1;
nodes = (
(688,288,l),
(615,178,l),
(542,288,l),
(523,288,l),
(523,91,l),
(551,91,l),
(551,226,l),
(615,129,l),
(680,226,l),
(680,91,l),
(708,91,l),
(708,288,l)
);
},
{
closed = 1;
nodes = (
(537,360,l),
(473,455,l),
(501,461,o),
(518,482,qs),
(534,503,o),
(534,531,qs),
(534,567,o),
(511,589,qs),
(488,612,o),
(450,612,qs),
(354,612,l),
(354,360,l),
(390,360,l),
(390,577,l),
(450,577,ls),
(470,577,o),
(484,564,qs),
(498,551,o),
(498,530,qs),
(498,509,o),
(484,496,qs),
(470,482,o),
(450,482,qs),
(415,482,l),
(498,360,l)
);
},
{
closed = 1;
nodes = (
(364,288,l),
(364,91,l),
(493,91,l),
(493,118,l),
(392,118,l),
(392,177,l),
(485,177,l),
(485,204,l),
(392,204,l),
(392,261,l),
(493,261,l),
(493,288,l)
);
},
{
closed = 1;
nodes = (
(334,147,o),
(334,190,qs),
(334,233,o),
(307,260,qs),
(278,288,o),
(234,288,qs),
(160,288,l),
(160,91,l),
(234,91,ls),
(279,91,o),
(307,119,qs)
);
},
{
closed = 1;
nodes = (
(196,360,l),
(196,462,l),
(314,462,l),
(314,497,l),
(196,497,l),
(196,577,l),
(318,577,l),
(318,612,l),
(160,612,l),
(160,360,l)
);
},
{
closed = 1;
nodes = (
(739,360,l),
(739,394,l),
(609,394,l),
(609,470,l),
(728,470,l),
(728,504,l),
(609,504,l),
(609,577,l),
(739,577,l),
(739,612,l),
(573,612,l),
(573,360,l)
);
},
{
closed = 1;
nodes = (
(1032,700,l),
(1032,0,l),
(70,0,l),
(70,700,l)
);
}
);
width = 1102;
}
);
note = cedilla;
unicode = 184;
},
{
glyphname = guillemotright;
kernRight = plus;
layers = (
{
layerId = m01;
shapes = (
{
closed = 1;
nodes = (
(872,264,o),
(893,243,qs),
(914,222,o),
(914,190,qs),
(914,158,o),
(893,137,qs),
(872,116,o),
(840,116,qs),
(808,116,o),
(787,137,qs),
(766,158,o),
(766,190,qs),
(766,222,o),
(787,243,qs),
(808,264,o),
(840,264,qs)
);
},
{
closed = 1;
nodes = (
(267,261,o),
(287,241,qs),
(306,221,o),
(306,190,qs),
(306,158,o),
(287,138,qs),
(267,118,o),
(236,118,qs),
(188,118,l),
(188,261,l),
(236,261,ls)
);
},
{
closed = 1;
nodes = (
(776,612,l),
(776,360,l),
(942,360,l),
(942,394,l),
(812,394,l),
(812,470,l),
(931,470,l),
(931,504,l),
(812,504,l),
(812,577,l),
(942,577,l),
(942,612,l)
);
},
{
closed = 1;
nodes = (
(942,146,o),
(942,190,qs),
(942,234,o),
(913,262,qs),
(884,291,o),
(840,291,qs),
(796,291,o),
(767,262,qs),
(738,234,o),
(738,190,qs),
(738,146,o),
(767,117,qs),
(796,89,o),
(840,89,qs),
(884,89,o),
(913,117,qs)
);
},
{
closed = 1;
nodes = (
(688,288,l),
(615,178,l),
(542,288,l),
(523,288,l),
(523,91,l),
(551,91,l),
(551,226,l),
(615,129,l),
(680,226,l),
(680,91,l),
(708,91,l),
(708,288,l)
);
},
{
closed = 1;
nodes = (
(537,360,l),
(473,455,l),
(501,461,o),
(518,482,qs),
(534,503,o),
(534,531,qs),
(534,567,o),
(511,589,qs),
(488,612,o),
(450,612,qs),
(354,612,l),
(354,360,l),
(390,360,l),
(390,577,l),
(450,577,ls),
(470,577,o),
(484,564,qs),
(498,551,o),
(498,530,qs),
(498,509,o),
(484,496,qs),
(470,482,o),
(450,482,qs),
(415,482,l),
(498,360,l)
);
},
{
closed = 1;
nodes = (
(364,288,l),
(364,91,l),
(493,91,l),
(493,118,l),
(392,118,l),
(392,177,l),
(485,177,l),
(485,204,l),
(392,204,l),
(392,261,l),
(493,261,l),
(493,288,l)
);
},
{
closed = 1;
nodes = (
(334,147,o),
(334,190,qs),
(334,233,o),
(307,260,qs),
(278,288,o),
(234,288,qs),
(160,288,l),
(160,91,l),
(234,91,ls),
(279,91,o),
(307,119,qs)
);
},
{
closed = 1;
nodes = (
(196,360,l),
(196,462,l),
(314,462,l),
(314,497,l),
(196,497,l),
(196,577,l),
(318,577,l),
(318,612,l),
(160,612,l),
(160,360,l)
);
},
{
closed = 1;
nodes = (
(739,360,l),
(739,394,l),
(609,394,l),
(609,470,l),
(728,470,l),
(728,504,l),
(609,504,l),
(609,577,l),
(739,577,l),
(739,612,l),
(573,612,l),
(573,360,l)
);
},
{
closed = 1;
nodes = (
(1032,700,l),
(1032,0,l),
(70,0,l),
(70,700,l)
);
}
);
width = 1102;
}
);
note = guillemotright;
unicode = 187;
},
{
glyphname = onequarter;
layers = (
{
layerId = m01;
shapes = (
{
closed = 1;
nodes = (
(872,264,o),
(893,243,qs),
(914,222,o),
(914,190,qs),
(914,158,o),
(893,137,qs),
(872,116,o),
(840,116,qs),
(808,116,o),
(787,137,qs),
(766,158,o),
(766,190,qs),
(766,222,o),
(787,243,qs),
(808,264,o),
(840,264,qs)
);
},
{
closed = 1;
nodes = (
(267,261,o),
(287,241,qs),
(306,221,o),
(306,190,qs),
(306,158,o),
(287,138,qs),
(267,118,o),
(236,118,qs),
(188,118,l),
(188,261,l),
(236,261,ls)
);
},
{
closed = 1;
nodes = (
(776,612,l),
(776,360,l),
(942,360,l),
(942,394,l),
(812,394,l),
(812,470,l),
(931,470,l),
(931,504,l),
(812,504,l),
(812,577,l),
(942,577,l),
(942,612,l)
);
},
{
closed = 1;
nodes = (
(942,146,o),
(942,190,qs),
(942,234,o),
(913,262,qs),
(884,291,o),
(840,291,qs),
(796,291,o),
(767,262,qs),
(738,234,o),
(738,190,qs),
(738,146,o),
(767,117,qs),
(796,89,o),
(840,89,qs),
(884,89,o),
(913,117,qs)
);
},
{
closed = 1;
nodes = (
(688,288,l),
(615,178,l),
(542,288,l),
(523,288,l),
(523,91,l),
(551,91,l),
(551,226,l),
(615,129,l),
(680,226,l),
(680,91,l),
(708,91,l),
(708,288,l)
);
},
{
closed = 1;
nodes = (
(537,360,l),
(473,455,l),
(501,461,o),
(518,482,qs),
(534,503,o),
(534,531,qs),
(534,567,o),
(511,589,qs),
(488,612,o),
(450,612,qs),
(354,612,l),
(354,360,l),
(390,360,l),
(390,577,l),
(450,577,ls),
(470,577,o),
(484,564,qs),
(498,551,o),
(498,530,qs),
(498,509,o),
(484,496,qs),
(470,482,o),
(450,482,qs),
(415,482,l),
(498,360,l)
);
},
{
closed = 1;
nodes = (
(364,288,l),
(364,91,l),
(493,91,l),
(493,118,l),
(392,118,l),
(392,177,l),
(485,177,l),
(485,204,l),
(392,204,l),
(392,261,l),
(493,261,l),
(493,288,l)
);
},
{
closed = 1;
nodes = (
(334,147,o),
(334,190,qs),
(334,233,o),
(307,260,qs),
(278,288,o),
(234,288,qs),
(160,288,l),
(160,91,l),
(234,91,ls),
(279,91,o),
(307,119,qs)
);
},
{
closed = 1;
nodes = (
(196,360,l),
(196,462,l),
(314,462,l),
(314,497,l),
(196,497,l),
(196,577,l),
(318,577,l),
(318,612,l),
(160,612,l),
(160,360,l)
);
},
{
closed = 1;
nodes = (
(739,360,l),
(739,394,l),
(609,394,l),
(609,470,l),
(728,470,l),
(728,504,l),
(609,504,l),
(609,577,l),
(739,577,l),
(739,612,l),
(573,612,l),
(573,360,l)
);
},
{
closed = 1;
nodes = (
(1032,700,l),
(1032,0,l),
(70,0,l),
(70,700,l)
);
}
);
width = 1102;
}
);
note = onequarter;
unicode = 188;
},
{
glyphname = onehalf;
layers = (
{
layerId = m01;
shapes = (
{
closed = 1;
nodes = (
(872,264,o),
(893,243,qs),
(914,222,o),
(914,190,qs),
(914,158,o),
(893,137,qs),
(872,116,o),
(840,116,qs),
(808,116,o),
(787,137,qs),
(766,158,o),
(766,190,qs),
(766,222,o),
(787,243,qs),
(808,264,o),
(840,264,qs)
);
},
{
closed = 1;
nodes = (
(267,261,o),
(287,241,qs),
(306,221,o),
(306,190,qs),
(306,158,o),
(287,138,qs),
(267,118,o),
(236,118,qs),
(188,118,l),
(188,261,l),
(236,261,ls)
);
},
{
closed = 1;
nodes = (
(776,612,l),
(776,360,l),
(942,360,l),
(942,394,l),
(812,394,l),
(812,470,l),
(931,470,l),
(931,504,l),
(812,504,l),
(812,577,l),
(942,577,l),
(942,612,l)
);
},
{
closed = 1;
nodes = (
(942,146,o),
(942,190,qs),
(942,234,o),
(913,262,qs),
(884,291,o),
(840,291,qs),
(796,291,o),
(767,262,qs),
(738,234,o),
(738,190,qs),
(738,146,o),
(767,117,qs),
(796,89,o),
(840,89,qs),
(884,89,o),
(913,117,qs)
);
},
{
closed = 1;
nodes = (
(688,288,l),
(615,178,l),
(542,288,l),
(523,288,l),
(523,91,l),
(551,91,l),
(551,226,l),
(615,129,l),
(680,226,l),
(680,91,l),
(708,91,l),
(708,288,l)
);
},
{
closed = 1;
nodes = (
(537,360,l),
(473,455,l),
(501,461,o),
(518,482,qs),
(534,503,o),
(534,531,qs),
(534,567,o),
(511,589,qs),
(488,612,o),
(450,612,qs),
(354,612,l),
(354,360,l),
(390,360,l),
(390,577,l),
(450,577,ls),
(470,577,o),
(484,564,qs),
(498,551,o),
(498,530,qs),
(498,509,o),
(484,496,qs),
(470,482,o),
(450,482,qs),
(415,482,l),
(498,360,l)
);
},
{
closed = 1;
nodes = (
(364,288,l),
(364,91,l),
(493,91,l),
(493,118,l),
(392,118,l),
(392,177,l),
(485,177,l),
(485,204,l),
(392,204,l),
(392,261,l),
(493,261,l),
(493,288,l)
);
},
{
closed = 1;
nodes = (
(334,147,o),
(334,190,qs),
(334,233,o),
(307,260,qs),
(278,288,o),
(234,288,qs),
(160,288,l),
(160,91,l),
(234,91,ls),
(279,91,o),
(307,119,qs)
);
},
{
closed = 1;
nodes = (
(196,360,l),
(196,462,l),
(314,462,l),
(314,497,l),
(196,497,l),
(196,577,l),
(318,577,l),
(318,612,l),
(160,612,l),
(160,360,l)
);
},
{
closed = 1;
nodes = (
(739,360,l),
(739,394,l),
(609,394,l),
(609,470,l),
(728,470,l),
(728,504,l),
(609,504,l),
(609,577,l),
(739,577,l),
(739,612,l),
(573,612,l),
(573,360,l)
);
},
{
closed = 1;
nodes = (
(1032,700,l),
(1032,0,l),
(70,0,l),
(70,700,l)
);
}
);
width = 1102;
}
);
note = onehalf;
unicode = 189;
},
{
glyphname = threequarters;
layers = (
{
layerId = m01;
shapes = (
{
closed = 1;
nodes = (
(872,264,o),
(893,243,qs),
(914,222,o),
(914,190,qs),
(914,158,o),
(893,137,qs),
(872,116,o),
(840,116,qs),
(808,116,o),
(787,137,qs),
(766,158,o),
(766,190,qs),
(766,222,o),
(787,243,qs),
(808,264,o),
(840,264,qs)
);
},
{
closed = 1;
nodes = (
(267,261,o),
(287,241,qs),
(306,221,o),
(306,190,qs),
(306,158,o),
(287,138,qs),
(267,118,o),
(236,118,qs),
(188,118,l),
(188,261,l),
(236,261,ls)
);
},
{
closed = 1;
nodes = (
(776,612,l),
(776,360,l),
(942,360,l),
(942,394,l),
(812,394,l),
(812,470,l),
(931,470,l),
(931,504,l),
(812,504,l),
(812,577,l),
(942,577,l),
(942,612,l)
);
},
{
closed = 1;
nodes = (
(942,146,o),
(942,190,qs),
(942,234,o),
(913,262,qs),
(884,291,o),
(840,291,qs),
(796,291,o),
(767,262,qs),
(738,234,o),
(738,190,qs),
(738,146,o),
(767,117,qs),
(796,89,o),
(840,89,qs),
(884,89,o),
(913,117,qs)
);
},
{
closed = 1;
nodes = (
(688,288,l),
(615,178,l),
(542,288,l),
(523,288,l),
(523,91,l),
(551,91,l),
(551,226,l),
(615,129,l),
(680,226,l),
(680,91,l),
(708,91,l),
(708,288,l)
);
},
{
closed = 1;
nodes = (
(537,360,l),
(473,455,l),
(501,461,o),
(518,482,qs),
(534,503,o),
(534,531,qs),
(534,567,o),
(511,589,qs),
(488,612,o),
(450,612,qs),
(354,612,l),
(354,360,l),
(390,360,l),
(390,577,l),
(450,577,ls),
(470,577,o),
(484,564,qs),
(498,551,o),
(498,530,qs),
(498,509,o),
(484,496,qs),
(470,482,o),
(450,482,qs),
(415,482,l),
(498,360,l)
);
},
{
closed = 1;
nodes = (
(364,288,l),
(364,91,l),
(493,91,l),
(493,118,l),
(392,118,l),
(392,177,l),
(485,177,l),
(485,204,l),
(392,204,l),
(392,261,l),
(493,261,l),
(493,288,l)
);
},
{
closed = 1;
nodes = (
(334,147,o),
(334,190,qs),
(334,233,o),
(307,260,qs),
(278,288,o),
(234,288,qs),
(160,288,l),
(160,91,l),
(234,91,ls),
(279,91,o),
(307,119,qs)
);
},
{
closed = 1;
nodes = (
(196,360,l),
(196,462,l),
(314,462,l),
(314,497,l),
(196,497,l),
(196,577,l),
(318,577,l),
(318,612,l),
(160,612,l),
(160,360,l)
);
},
{
closed = 1;
nodes = (
(739,360,l),
(739,394,l),
(609,394,l),
(609,470,l),
(728,470,l),
(728,504,l),
(609,504,l),
(609,577,l),
(739,577,l),
(739,612,l),
(573,612,l),
(573,360,l)
);
},
{
closed = 1;
nodes = (
(1032,700,l),
(1032,0,l),
(70,0,l),
(70,700,l)
);
}
);
width = 1102;
}
);
note = threequarters;
unicode = 190;
},
{
glyphname = questiondown;
kernRight = questiondown;
layers = (
{
layerId = m01;
shapes = (
{
closed = 1;
nodes = (
(872,264,o),
(893,243,qs),
(914,222,o),
(914,190,qs),
(914,158,o),
(893,137,qs),
(872,116,o),
(840,116,qs),
(808,116,o),
(787,137,qs),
(766,158,o),
(766,190,qs),
(766,222,o),
(787,243,qs),
(808,264,o),
(840,264,qs)
);
},
{
closed = 1;
nodes = (
(267,261,o),
(287,241,qs),
(306,221,o),
(306,190,qs),
(306,158,o),
(287,138,qs),
(267,118,o),
(236,118,qs),
(188,118,l),
(188,261,l),
(236,261,ls)
);
},
{
closed = 1;
nodes = (
(776,612,l),
(776,360,l),
(942,360,l),
(942,394,l),
(812,394,l),
(812,470,l),
(931,470,l),
(931,504,l),
(812,504,l),
(812,577,l),
(942,577,l),
(942,612,l)
);
},
{
closed = 1;
nodes = (
(942,146,o),
(942,190,qs),
(942,234,o),
(913,262,qs),
(884,291,o),
(840,291,qs),
(796,291,o),
(767,262,qs),
(738,234,o),
(738,190,qs),
(738,146,o),
(767,117,qs),
(796,89,o),
(840,89,qs),
(884,89,o),
(913,117,qs)
);
},
{
closed = 1;
nodes = (
(688,288,l),
(615,178,l),
(542,288,l),
(523,288,l),
(523,91,l),
(551,91,l),
(551,226,l),
(615,129,l),
(680,226,l),
(680,91,l),
(708,91,l),
(708,288,l)
);
},
{
closed = 1;
nodes = (
(537,360,l),
(473,455,l),
(501,461,o),
(518,482,qs),
(534,503,o),
(534,531,qs),
(534,567,o),
(511,589,qs),
(488,612,o),
(450,612,qs),
(354,612,l),
(354,360,l),
(390,360,l),
(390,577,l),
(450,577,ls),
(470,577,o),
(484,564,qs),
(498,551,o),
(498,530,qs),
(498,509,o),
(484,496,qs),
(470,482,o),
(450,482,qs),
(415,482,l),
(498,360,l)
);
},
{
closed = 1;
nodes = (
(364,288,l),
(364,91,l),
(493,91,l),
(493,118,l),
(392,118,l),
(392,177,l),
(485,177,l),
(485,204,l),
(392,204,l),
(392,261,l),
(493,261,l),
(493,288,l)
);
},
{
closed = 1;
nodes = (
(334,147,o),
(334,190,qs),
(334,233,o),
(307,260,qs),
(278,288,o),
(234,288,qs),
(160,288,l),
(160,91,l),
(234,91,ls),
(279,91,o),
(307,119,qs)
);
},
{
closed = 1;
nodes = (
(196,360,l),
(196,462,l),
(314,462,l),
(314,497,l),
(196,497,l),
(196,577,l),
(318,577,l),
(318,612,l),
(160,612,l),
(160,360,l)
);
},
{
closed = 1;
nodes = (
(739,360,l),
(739,394,l),
(609,394,l),
(609,470,l),
(728,470,l),
(728,504,l),
(609,504,l),
(609,577,l),
(739,577,l),
(739,612,l),
(573,612,l),
(573,360,l)
);
},
{
closed = 1;
nodes = (
(1032,700,l),
(1032,0,l),
(70,0,l),
(70,700,l)
);
}
);
width = 1102;
}
);
note = questiondown;
unicode = 191;
},
{
glyphname = Agrave;
kernLeft = A;
layers = (
{
layerId = m01;
shapes = (
{
closed = 1;
nodes = (
(872,264,o),
(893,243,qs),
(914,222,o),
(914,190,qs),
(914,158,o),
(893,137,qs),
(872,116,o),
(840,116,qs),
(808,116,o),
(787,137,qs),
(766,158,o),
(766,190,qs),
(766,222,o),
(787,243,qs),
(808,264,o),
(840,264,qs)
);
},
{
closed = 1;
nodes = (
(267,261,o),
(287,241,qs),
(306,221,o),
(306,190,qs),
(306,158,o),
(287,138,qs),
(267,118,o),
(236,118,qs),
(188,118,l),
(188,261,l),
(236,261,ls)
);
},
{
closed = 1;
nodes = (
(776,612,l),
(776,360,l),
(942,360,l),
(942,394,l),
(812,394,l),
(812,470,l),
(931,470,l),
(931,504,l),
(812,504,l),
(812,577,l),
(942,577,l),
(942,612,l)
);
},
{
closed = 1;
nodes = (
(942,146,o),
(942,190,qs),
(942,234,o),
(913,262,qs),
(884,291,o),
(840,291,qs),
(796,291,o),
(767,262,qs),
(738,234,o),
(738,190,qs),
(738,146,o),
(767,117,qs),
(796,89,o),
(840,89,qs),
(884,89,o),
(913,117,qs)
);
},
{
closed = 1;
nodes = (
(688,288,l),
(615,178,l),
(542,288,l),
(523,288,l),
(523,91,l),
(551,91,l),
(551,226,l),
(615,129,l),
(680,226,l),
(680,91,l),
(708,91,l),
(708,288,l)
);
},
{
closed = 1;
nodes = (
(537,360,l),
(473,455,l),
(501,461,o),
(518,482,qs),
(534,503,o),
(534,531,qs),
(534,567,o),
(511,589,qs),
(488,612,o),
(450,612,qs),
(354,612,l),
(354,360,l),
(390,360,l),
(390,577,l),
(450,577,ls),
(470,577,o),
(484,564,qs),
(498,551,o),
(498,530,qs),
(498,509,o),
(484,496,qs),
(470,482,o),
(450,482,qs),
(415,482,l),
(498,360,l)
);
},
{
closed = 1;
nodes = (
(364,288,l),
(364,91,l),
(493,91,l),
(493,118,l),
(392,118,l),
(392,177,l),
(485,177,l),
(485,204,l),
(392,204,l),
(392,261,l),
(493,261,l),
(493,288,l)
);
},
{
closed = 1;
nodes = (
(334,147,o),
(334,190,qs),
(334,233,o),
(307,260,qs),
(278,288,o),
(234,288,qs),
(160,288,l),
(160,91,l),
(234,91,ls),
(279,91,o),
(307,119,qs)
);
},
{
closed = 1;
nodes = (
(196,360,l),
(196,462,l),
(314,462,l),
(314,497,l),
(196,497,l),
(196,577,l),
(318,577,l),
(318,612,l),
(160,612,l),
(160,360,l)
);
},
{
closed = 1;
nodes = (
(739,360,l),
(739,394,l),
(609,394,l),
(609,470,l),
(728,470,l),
(728,504,l),
(609,504,l),
(609,577,l),
(739,577,l),
(739,612,l),
(573,612,l),
(573,360,l)
);
},
{
closed = 1;
nodes = (
(1032,700,l),
(1032,0,l),
(70,0,l),
(70,700,l)
);
}
);
width = 1102;
}
);
note = Agrave;
unicode = 192;
},
{
glyphname = Aacute;
kernLeft = A;
layers = (
{
layerId = m01;
shapes = (
{
closed = 1;
nodes = (
(872,264,o),
(893,243,qs),
(914,222,o),
(914,190,qs),
(914,158,o),
(893,137,qs),
(872,116,o),
(840,116,qs),
(808,116,o),
(787,137,qs),
(766,158,o),
(766,190,qs),
(766,222,o),
(787,243,qs),
(808,264,o),
(840,264,qs)
);
},
{
closed = 1;
nodes = (
(267,261,o),
(287,241,qs),
(306,221,o),
(306,190,qs),
(306,158,o),
(287,138,qs),
(267,118,o),
(236,118,qs),
(188,118,l),
(188,261,l),
(236,261,ls)
);
},
{
closed = 1;
nodes = (
(776,612,l),
(776,360,l),
(942,360,l),
(942,394,l),
(812,394,l),
(812,470,l),
(931,470,l),
(931,504,l),
(812,504,l),
(812,577,l),
(942,577,l),
(942,612,l)
);
},
{
closed = 1;
nodes = (
(942,146,o),
(942,190,qs),
(942,234,o),
(913,262,qs),
(884,291,o),
(840,291,qs),
(796,291,o),
(767,262,qs),
(738,234,o),
(738,190,qs),
(738,146,o),
(767,117,qs),
(796,89,o),
(840,89,qs),
(884,89,o),
(913,117,qs)
);
},
{
closed = 1;
nodes = (
(688,288,l),
(615,178,l),
(542,288,l),
(523,288,l),
(523,91,l),
(551,91,l),
(551,226,l),
(615,129,l),
(680,226,l),
(680,91,l),
(708,91,l),
(708,288,l)
);
},
{
closed = 1;
nodes = (
(537,360,l),
(473,455,l),
(501,461,o),
(518,482,qs),
(534,503,o),
(534,531,qs),
(534,567,o),
(511,589,qs),
(488,612,o),
(450,612,qs),
(354,612,l),
(354,360,l),
(390,360,l),
(390,577,l),
(450,577,ls),
(470,577,o),
(484,564,qs),
(498,551,o),
(498,530,qs),
(498,509,o),
(484,496,qs),
(470,482,o),
(450,482,qs),
(415,482,l),
(498,360,l)
);
},
{
closed = 1;
nodes = (
(364,288,l),
(364,91,l),
(493,91,l),
(493,118,l),
(392,118,l),
(392,177,l),
(485,177,l),
(485,204,l),
(392,204,l),
(392,261,l),
(493,261,l),
(493,288,l)
);
},
{
closed = 1;
nodes = (
(334,147,o),
(334,190,qs),
(334,233,o),
(307,260,qs),
(278,288,o),
(234,288,qs),
(160,288,l),
(160,91,l),
(234,91,ls),
(279,91,o),
(307,119,qs)
);
},
{
closed = 1;
nodes = (
(196,360,l),
(196,462,l),
(314,462,l),
(314,497,l),
(196,497,l),
(196,577,l),
(318,577,l),
(318,612,l),
(160,612,l),
(160,360,l)
);
},
{
closed = 1;
nodes = (
(739,360,l),
(739,394,l),
(609,394,l),
(609,470,l),
(728,470,l),
(728,504,l),
(609,504,l),
(609,577,l),
(739,577,l),
(739,612,l),
(573,612,l),
(573,360,l)
);
},
{
closed = 1;
nodes = (
(1032,700,l),
(1032,0,l),
(70,0,l),
(70,700,l)
);
}
);
width = 1102;
}
);
note = Aacute;
unicode = 193;
},
{
glyphname = Acircumflex;
kernLeft = A;
layers = (
{
layerId = m01;
shapes = (
{
closed = 1;
nodes = (
(872,264,o),
(893,243,qs),
(914,222,o),
(914,190,qs),
(914,158,o),
(893,137,qs),
(872,116,o),
(840,116,qs),
(808,116,o),
(787,137,qs),
(766,158,o),
(766,190,qs),
(766,222,o),
(787,243,qs),
(808,264,o),
(840,264,qs)
);
},
{
closed = 1;
nodes = (
(267,261,o),
(287,241,qs),
(306,221,o),
(306,190,qs),
(306,158,o),
(287,138,qs),
(267,118,o),
(236,118,qs),
(188,118,l),
(188,261,l),
(236,261,ls)
);
},
{
closed = 1;
nodes = (
(776,612,l),
(776,360,l),
(942,360,l),
(942,394,l),
(812,394,l),
(812,470,l),
(931,470,l),
(931,504,l),
(812,504,l),
(812,577,l),
(942,577,l),
(942,612,l)
);
},
{
closed = 1;
nodes = (
(942,146,o),
(942,190,qs),
(942,234,o),
(913,262,qs),
(884,291,o),
(840,291,qs),
(796,291,o),
(767,262,qs),
(738,234,o),
(738,190,qs),
(738,146,o),
(767,117,qs),
(796,89,o),
(840,89,qs),
(884,89,o),
(913,117,qs)
);
},
{
closed = 1;
nodes = (
(688,288,l),
(615,178,l),
(542,288,l),
(523,288,l),
(523,91,l),
(551,91,l),
(551,226,l),
(615,129,l),
(680,226,l),
(680,91,l),
(708,91,l),
(708,288,l)
);
},
{
closed = 1;
nodes = (
(537,360,l),
(473,455,l),
(501,461,o),
(518,482,qs),
(534,503,o),
(534,531,qs),
(534,567,o),
(511,589,qs),
(488,612,o),
(450,612,qs),
(354,612,l),
(354,360,l),
(390,360,l),
(390,577,l),
(450,577,ls),
(470,577,o),
(484,564,qs),
(498,551,o),
(498,530,qs),
(498,509,o),
(484,496,qs),
(470,482,o),
(450,482,qs),
(415,482,l),
(498,360,l)
);
},
{
closed = 1;
nodes = (
(364,288,l),
(364,91,l),
(493,91,l),
(493,118,l),
(392,118,l),
(392,177,l),
(485,177,l),
(485,204,l),
(392,204,l),
(392,261,l),
(493,261,l),
(493,288,l)
);
},
{
closed = 1;
nodes = (
(334,147,o),
(334,190,qs),
(334,233,o),
(307,260,qs),
(278,288,o),
(234,288,qs),
(160,288,l),
(160,91,l),
(234,91,ls),
(279,91,o),
(307,119,qs)
);
},
{
closed = 1;
nodes = (
(196,360,l),
(196,462,l),
(314,462,l),
(314,497,l),
(196,497,l),
(196,577,l),
(318,577,l),
(318,612,l),
(160,612,l),
(160,360,l)
);
},
{
closed = 1;
nodes = (
(739,360,l),
(739,394,l),
(609,394,l),
(609,470,l),
(728,470,l),
(728,504,l),
(609,504,l),
(609,577,l),
(739,577,l),
(739,612,l),
(573,612,l),
(573,360,l)
);
},
{
closed = 1;
nodes = (
(1032,700,l),
(1032,0,l),
(70,0,l),
(70,700,l)
);
}
);
width = 1102;
}
);
note = Acircumflex;
unicode = 194;
},
{
glyphname = Atilde;
kernLeft = A;
layers = (
{
layerId = m01;
shapes = (
{
closed = 1;
nodes = (
(872,264,o),
(893,243,qs),
(914,222,o),
(914,190,qs),
(914,158,o),
(893,137,qs),
(872,116,o),
(840,116,qs),
(808,116,o),
(787,137,qs),
(766,158,o),
(766,190,qs),
(766,222,o),
(787,243,qs),
(808,264,o),
(840,264,qs)
);
},
{
closed = 1;
nodes = (
(267,261,o),
(287,241,qs),
(306,221,o),
(306,190,qs),
(306,158,o),
(287,138,qs),
(267,118,o),
(236,118,qs),
(188,118,l),
(188,261,l),
(236,261,ls)
);
},
{
closed = 1;
nodes = (
(776,612,l),
(776,360,l),
(942,360,l),
(942,394,l),
(812,394,l),
(812,470,l),
(931,470,l),
(931,504,l),
(812,504,l),
(812,577,l),
(942,577,l),
(942,612,l)
);
},
{
closed = 1;
nodes = (
(942,146,o),
(942,190,qs),
(942,234,o),
(913,262,qs),
(884,291,o),
(840,291,qs),
(796,291,o),
(767,262,qs),
(738,234,o),
(738,190,qs),
(738,146,o),
(767,117,qs),
(796,89,o),
(840,89,qs),
(884,89,o),
(913,117,qs)
);
},
{
closed = 1;
nodes = (
(688,288,l),
(615,178,l),
(542,288,l),
(523,288,l),
(523,91,l),
(551,91,l),
(551,226,l),
(615,129,l),
(680,226,l),
(680,91,l),
(708,91,l),
(708,288,l)
);
},
{
closed = 1;
nodes = (
(537,360,l),
(473,455,l),
(501,461,o),
(518,482,qs),
(534,503,o),
(534,531,qs),
(534,567,o),
(511,589,qs),
(488,612,o),
(450,612,qs),
(354,612,l),
(354,360,l),
(390,360,l),
(390,577,l),
(450,577,ls),
(470,577,o),
(484,564,qs),
(498,551,o),
(498,530,qs),
(498,509,o),
(484,496,qs),
(470,482,o),
(450,482,qs),
(415,482,l),
(498,360,l)
);
},
{
closed = 1;
nodes = (
(364,288,l),
(364,91,l),
(493,91,l),
(493,118,l),
(392,118,l),
(392,177,l),
(485,177,l),
(485,204,l),
(392,204,l),
(392,261,l),
(493,261,l),
(493,288,l)
);
},
{
closed = 1;
nodes = (
(334,147,o),
(334,190,qs),
(334,233,o),
(307,260,qs),
(278,288,o),
(234,288,qs),
(160,288,l),
(160,91,l),
(234,91,ls),
(279,91,o),
(307,119,qs)
);
},
{
closed = 1;
nodes = (
(196,360,l),
(196,462,l),
(314,462,l),
(314,497,l),
(196,497,l),
(196,577,l),
(318,577,l),
(318,612,l),
(160,612,l),
(160,360,l)
);
},
{
closed = 1;
nodes = (
(739,360,l),
(739,394,l),
(609,394,l),
(609,470,l),
(728,470,l),
(728,504,l),
(609,504,l),
(609,577,l),
(739,577,l),
(739,612,l),
(573,612,l),
(573,360,l)
);
},
{
closed = 1;
nodes = (
(1032,700,l),
(1032,0,l),
(70,0,l),
(70,700,l)
);
}
);
width = 1102;
}
);
note = Atilde;
unicode = 195;
},
{
glyphname = Adieresis;
kernLeft = A;
layers = (
{
layerId = m01;
shapes = (
{
closed = 1;
nodes = (
(452,255,l),
(330,570,l),
(208,255,l)
);
},
{
closed = 1;
nodes = (
(655,0,l),
(550,0,l),
(488,160,l),
(172,160,l),
(110,0,l),
(5,0,l),
(275,700,l),
(385,700,l)
);
},
{
closed = 1;
nodes = (
(425,750,l),
(355,820,l),
(425,890,l),
(495,820,l)
);
},
{
closed = 1;
nodes = (
(235,750,l),
(165,820,l),
(235,890,l),
(305,820,l)
);
}
);
width = 660;
}
);
note = Adieresis;
unicode = 196;
},
{
glyphname = Aring;
kernLeft = A;
layers = (
{
layerId = m01;
shapes = (
{
closed = 1;
nodes = (
(872,264,o),
(893,243,qs),
(914,222,o),
(914,190,qs),
(914,158,o),
(893,137,qs),
(872,116,o),
(840,116,qs),
(808,116,o),
(787,137,qs),
(766,158,o),
(766,190,qs),
(766,222,o),
(787,243,qs),
(808,264,o),
(840,264,qs)
);
},
{
closed = 1;
nodes = (
(267,261,o),
(287,241,qs),
(306,221,o),
(306,190,qs),
(306,158,o),
(287,138,qs),
(267,118,o),
(236,118,qs),
(188,118,l),
(188,261,l),
(236,261,ls)
);
},
{
closed = 1;
nodes = (
(776,612,l),
(776,360,l),
(942,360,l),
(942,394,l),
(812,394,l),
(812,470,l),
(931,470,l),
(931,504,l),
(812,504,l),
(812,577,l),
(942,577,l),
(942,612,l)
);
},
{
closed = 1;
nodes = (
(942,146,o),
(942,190,qs),
(942,234,o),
(913,262,qs),
(884,291,o),
(840,291,qs),
(796,291,o),
(767,262,qs),
(738,234,o),
(738,190,qs),
(738,146,o),
(767,117,qs),
(796,89,o),
(840,89,qs),
(884,89,o),
(913,117,qs)
);
},
{
closed = 1;
nodes = (
(688,288,l),
(615,178,l),
(542,288,l),
(523,288,l),
(523,91,l),
(551,91,l),
(551,226,l),
(615,129,l),
(680,226,l),
(680,91,l),
(708,91,l),
(708,288,l)
);
},
{
closed = 1;
nodes = (
(537,360,l),
(473,455,l),
(501,461,o),
(518,482,qs),
(534,503,o),
(534,531,qs),
(534,567,o),
(511,589,qs),
(488,612,o),
(450,612,qs),
(354,612,l),
(354,360,l),
(390,360,l),
(390,577,l),
(450,577,ls),
(470,577,o),
(484,564,qs),
(498,551,o),
(498,530,qs),
(498,509,o),
(484,496,qs),
(470,482,o),
(450,482,qs),
(415,482,l),
(498,360,l)
);
},
{
closed = 1;
nodes = (
(364,288,l),
(364,91,l),
(493,91,l),
(493,118,l),
(392,118,l),
(392,177,l),
(485,177,l),
(485,204,l),
(392,204,l),
(392,261,l),
(493,261,l),
(493,288,l)
);
},
{
closed = 1;
nodes = (
(334,147,o),
(334,190,qs),
(334,233,o),
(307,260,qs),
(278,288,o),
(234,288,qs),
(160,288,l),
(160,91,l),
(234,91,ls),
(279,91,o),
(307,119,qs)
);
},
{
closed = 1;
nodes = (
(196,360,l),
(196,462,l),
(314,462,l),
(314,497,l),
(196,497,l),
(196,577,l),
(318,577,l),
(318,612,l),
(160,612,l),
(160,360,l)
);
},
{
closed = 1;
nodes = (
(739,360,l),
(739,394,l),
(609,394,l),
(609,470,l),
(728,470,l),
(728,504,l),
(609,504,l),
(609,577,l),
(739,577,l),
(739,612,l),
(573,612,l),
(573,360,l)
);
},
{
closed = 1;
nodes = (
(1032,700,l),
(1032,0,l),
(70,0,l),
(70,700,l)
);
}
);
width = 1102;
}
);
note = Aring;
unicode = 197;
},
{
glyphname = AE;
kernLeft = AE;
layers = (
{
layerId = m01;
shapes = (
{
closed = 1;
nodes = (
(872,264,o),
(893,243,qs),
(914,222,o),
(914,190,qs),
(914,158,o),
(893,137,qs),
(872,116,o),
(840,116,qs),
(808,116,o),
(787,137,qs),
(766,158,o),
(766,190,qs),
(766,222,o),
(787,243,qs),
(808,264,o),
(840,264,qs)
);
},
{
closed = 1;
nodes = (
(267,261,o),
(287,241,qs),
(306,221,o),
(306,190,qs),
(306,158,o),
(287,138,qs),
(267,118,o),
(236,118,qs),
(188,118,l),
(188,261,l),
(236,261,ls)
);
},
{
closed = 1;
nodes = (
(776,612,l),
(776,360,l),
(942,360,l),
(942,394,l),
(812,394,l),
(812,470,l),
(931,470,l),
(931,504,l),
(812,504,l),
(812,577,l),
(942,577,l),
(942,612,l)
);
},
{
closed = 1;
nodes = (
(942,146,o),
(942,190,qs),
(942,234,o),
(913,262,qs),
(884,291,o),
(840,291,qs),
(796,291,o),
(767,262,qs),
(738,234,o),
(738,190,qs),
(738,146,o),
(767,117,qs),
(796,89,o),
(840,89,qs),
(884,89,o),
(913,117,qs)
);
},
{
closed = 1;
nodes = (
(688,288,l),
(615,178,l),
(542,288,l),
(523,288,l),
(523,91,l),
(551,91,l),
(551,226,l),
(615,129,l),
(680,226,l),
(680,91,l),
(708,91,l),
(708,288,l)
);
},
{
closed = 1;
nodes = (
(537,360,l),
(473,455,l),
(501,461,o),
(518,482,qs),
(534,503,o),
(534,531,qs),
(534,567,o),
(511,589,qs),
(488,612,o),
(450,612,qs),
(354,612,l),
(354,360,l),
(390,360,l),
(390,577,l),
(450,577,ls),
(470,577,o),
(484,564,qs),
(498,551,o),
(498,530,qs),
(498,509,o),
(484,496,qs),
(470,482,o),
(450,482,qs),
(415,482,l),
(498,360,l)
);
},
{
closed = 1;
nodes = (
(364,288,l),
(364,91,l),
(493,91,l),
(493,118,l),
(392,118,l),
(392,177,l),
(485,177,l),
(485,204,l),
(392,204,l),
(392,261,l),
(493,261,l),
(493,288,l)
);
},
{
closed = 1;
nodes = (
(334,147,o),
(334,190,qs),
(334,233,o),
(307,260,qs),
(278,288,o),
(234,288,qs),
(160,288,l),
(160,91,l),
(234,91,ls),
(279,91,o),
(307,119,qs)
);
},
{
closed = 1;
nodes = (
(196,360,l),
(196,462,l),
(314,462,l),
(314,497,l),
(196,497,l),
(196,577,l),
(318,577,l),
(318,612,l),
(160,612,l),
(160,360,l)
);
},
{
closed = 1;
nodes = (
(739,360,l),
(739,394,l),
(609,394,l),
(609,470,l),
(728,470,l),
(728,504,l),
(609,504,l),
(609,577,l),
(739,577,l),
(739,612,l),
(573,612,l),
(573,360,l)
);
},
{
closed = 1;
nodes = (
(1032,700,l),
(1032,0,l),
(70,0,l),
(70,700,l)
);
}
);
width = 1102;
}
);
note = AE;
unicode = 198;
},
{
glyphname = Ccedilla;
kernLeft = C;
layers = (
{
layerId = m01;
shapes = (
{
closed = 1;
nodes = (
(872,264,o),
(893,243,qs),
(914,222,o),
(914,190,qs),
(914,158,o),
(893,137,qs),
(872,116,o),
(840,116,qs),
(808,116,o),
(787,137,qs),
(766,158,o),
(766,190,qs),
(766,222,o),
(787,243,qs),
(808,264,o),
(840,264,qs)
);
},
{
closed = 1;
nodes = (
(267,261,o),
(287,241,qs),
(306,221,o),
(306,190,qs),
(306,158,o),
(287,138,qs),
(267,118,o),
(236,118,qs),
(188,118,l),
(188,261,l),
(236,261,ls)
);
},
{
closed = 1;
nodes = (
(776,612,l),
(776,360,l),
(942,360,l),
(942,394,l),
(812,394,l),
(812,470,l),
(931,470,l),
(931,504,l),
(812,504,l),
(812,577,l),
(942,577,l),
(942,612,l)
);
},
{
closed = 1;
nodes = (
(942,146,o),
(942,190,qs),
(942,234,o),
(913,262,qs),
(884,291,o),
(840,291,qs),
(796,291,o),
(767,262,qs),
(738,234,o),
(738,190,qs),
(738,146,o),
(767,117,qs),
(796,89,o),
(840,89,qs),
(884,89,o),
(913,117,qs)
);
},
{
closed = 1;
nodes = (
(688,288,l),
(615,178,l),
(542,288,l),
(523,288,l),
(523,91,l),
(551,91,l),
(551,226,l),
(615,129,l),
(680,226,l),
(680,91,l),
(708,91,l),
(708,288,l)
);
},
{
closed = 1;
nodes = (
(537,360,l),
(473,455,l),
(501,461,o),
(518,482,qs),
(534,503,o),
(534,531,qs),
(534,567,o),
(511,589,qs),
(488,612,o),
(450,612,qs),
(354,612,l),
(354,360,l),
(390,360,l),
(390,577,l),
(450,577,ls),
(470,577,o),
(484,564,qs),
(498,551,o),
(498,530,qs),
(498,509,o),
(484,496,qs),
(470,482,o),
(450,482,qs),
(415,482,l),
(498,360,l)
);
},
{
closed = 1;
nodes = (
(364,288,l),
(364,91,l),
(493,91,l),
(493,118,l),
(392,118,l),
(392,177,l),
(485,177,l),
(485,204,l),
(392,204,l),
(392,261,l),
(493,261,l),
(493,288,l)
);
},
{
closed = 1;
nodes = (
(334,147,o),
(334,190,qs),
(334,233,o),
(307,260,qs),
(278,288,o),
(234,288,qs),
(160,288,l),
(160,91,l),
(234,91,ls),
(279,91,o),
(307,119,qs)
);
},
{
closed = 1;
nodes = (
(196,360,l),
(196,462,l),
(314,462,l),
(314,497,l),
(196,497,l),
(196,577,l),
(318,577,l),
(318,612,l),
(160,612,l),
(160,360,l)
);
},
{
closed = 1;
nodes = (
(739,360,l),
(739,394,l),
(609,394,l),
(609,470,l),
(728,470,l),
(728,504,l),
(609,504,l),
(609,577,l),
(739,577,l),
(739,612,l),
(573,612,l),
(573,360,l)
);
},
{
closed = 1;
nodes = (
(1032,700,l),
(1032,0,l),
(70,0,l),
(70,700,l)
);
}
);
width = 1102;
}
);
note = Ccedilla;
unicode = 199;
},
{
glyphname = Egrave;
layers = (
{
layerId = m01;
shapes = (
{
closed = 1;
nodes = (
(872,264,o),
(893,243,qs),
(914,222,o),
(914,190,qs),
(914,158,o),
(893,137,qs),
(872,116,o),
(840,116,qs),
(808,116,o),
(787,137,qs),
(766,158,o),
(766,190,qs),
(766,222,o),
(787,243,qs),
(808,264,o),
(840,264,qs)
);
},
{
closed = 1;
nodes = (
(267,261,o),
(287,241,qs),
(306,221,o),
(306,190,qs),
(306,158,o),
(287,138,qs),
(267,118,o),
(236,118,qs),
(188,118,l),
(188,261,l),
(236,261,ls)
);
},
{
closed = 1;
nodes = (
(776,612,l),
(776,360,l),
(942,360,l),
(942,394,l),
(812,394,l),
(812,470,l),
(931,470,l),
(931,504,l),
(812,504,l),
(812,577,l),
(942,577,l),
(942,612,l)
);
},
{
closed = 1;
nodes = (
(942,146,o),
(942,190,qs),
(942,234,o),
(913,262,qs),
(884,291,o),
(840,291,qs),
(796,291,o),
(767,262,qs),
(738,234,o),
(738,190,qs),
(738,146,o),
(767,117,qs),
(796,89,o),
(840,89,qs),
(884,89,o),
(913,117,qs)
);
},
{
closed = 1;
nodes = (
(688,288,l),
(615,178,l),
(542,288,l),
(523,288,l),
(523,91,l),
(551,91,l),
(551,226,l),
(615,129,l),
(680,226,l),
(680,91,l),
(708,91,l),
(708,288,l)
);
},
{
closed = 1;
nodes = (
(537,360,l),
(473,455,l),
(501,461,o),
(518,482,qs),
(534,503,o),
(534,531,qs),
(534,567,o),
(511,589,qs),
(488,612,o),
(450,612,qs),
(354,612,l),
(354,360,l),
(390,360,l),
(390,577,l),
(450,577,ls),
(470,577,o),
(484,564,qs),
(498,551,o),
(498,530,qs),
(498,509,o),
(484,496,qs),
(470,482,o),
(450,482,qs),
(415,482,l),
(498,360,l)
);
},
{
closed = 1;
nodes = (
(364,288,l),
(364,91,l),
(493,91,l),
(493,118,l),
(392,118,l),
(392,177,l),
(485,177,l),
(485,204,l),
(392,204,l),
(392,261,l),
(493,261,l),
(493,288,l)
);
},
{
closed = 1;
nodes = (
(334,147,o),
(334,190,qs),
(334,233,o),
(307,260,qs),
(278,288,o),
(234,288,qs),
(160,288,l),
(160,91,l),
(234,91,ls),
(279,91,o),
(307,119,qs)
);
},
{
closed = 1;
nodes = (
(196,360,l),
(196,462,l),
(314,462,l),
(314,497,l),
(196,497,l),
(196,577,l),
(318,577,l),
(318,612,l),
(160,612,l),
(160,360,l)
);
},
{
closed = 1;
nodes = (
(739,360,l),
(739,394,l),
(609,394,l),
(609,470,l),
(728,470,l),
(728,504,l),
(609,504,l),
(609,577,l),
(739,577,l),
(739,612,l),
(573,612,l),
(573,360,l)
);
},
{
closed = 1;
nodes = (
(1032,700,l),
(1032,0,l),
(70,0,l),
(70,700,l)
);
}
);
width = 1102;
}
);
note = Egrave;
unicode = 200;
},
{
glyphname = Eacute;
layers = (
{
layerId = m01;
shapes = (
{
closed = 1;
nodes = (
(872,264,o),
(893,243,qs),
(914,222,o),
(914,190,qs),
(914,158,o),
(893,137,qs),
(872,116,o),
(840,116,qs),
(808,116,o),
(787,137,qs),
(766,158,o),
(766,190,qs),
(766,222,o),
(787,243,qs),
(808,264,o),
(840,264,qs)
);
},
{
closed = 1;
nodes = (
(267,261,o),
(287,241,qs),
(306,221,o),
(306,190,qs),
(306,158,o),
(287,138,qs),
(267,118,o),
(236,118,qs),
(188,118,l),
(188,261,l),
(236,261,ls)
);
},
{
closed = 1;
nodes = (
(776,612,l),
(776,360,l),
(942,360,l),
(942,394,l),
(812,394,l),
(812,470,l),
(931,470,l),
(931,504,l),
(812,504,l),
(812,577,l),
(942,577,l),
(942,612,l)
);
},
{
closed = 1;
nodes = (
(942,146,o),
(942,190,qs),
(942,234,o),
(913,262,qs),
(884,291,o),
(840,291,qs),
(796,291,o),
(767,262,qs),
(738,234,o),
(738,190,qs),
(738,146,o),
(767,117,qs),
(796,89,o),
(840,89,qs),
(884,89,o),
(913,117,qs)
);
},
{
closed = 1;
nodes = (
(688,288,l),
(615,178,l),
(542,288,l),
(523,288,l),
(523,91,l),
(551,91,l),
(551,226,l),
(615,129,l),
(680,226,l),
(680,91,l),
(708,91,l),
(708,288,l)
);
},
{
closed = 1;
nodes = (
(537,360,l),
(473,455,l),
(501,461,o),
(518,482,qs),
(534,503,o),
(534,531,qs),
(534,567,o),
(511,589,qs),
(488,612,o),
(450,612,qs),
(354,612,l),
(354,360,l),
(390,360,l),
(390,577,l),
(450,577,ls),
(470,577,o),
(484,564,qs),
(498,551,o),
(498,530,qs),
(498,509,o),
(484,496,qs),
(470,482,o),
(450,482,qs),
(415,482,l),
(498,360,l)
);
},
{
closed = 1;
nodes = (
(364,288,l),
(364,91,l),
(493,91,l),
(493,118,l),
(392,118,l),
(392,177,l),
(485,177,l),
(485,204,l),
(392,204,l),
(392,261,l),
(493,261,l),
(493,288,l)
);
},
{
closed = 1;
nodes = (
(334,147,o),
(334,190,qs),
(334,233,o),
(307,260,qs),
(278,288,o),
(234,288,qs),
(160,288,l),
(160,91,l),
(234,91,ls),
(279,91,o),
(307,119,qs)
);
},
{
closed = 1;
nodes = (
(196,360,l),
(196,462,l),
(314,462,l),
(314,497,l),
(196,497,l),
(196,577,l),
(318,577,l),
(318,612,l),
(160,612,l),
(160,360,l)
);
},
{
closed = 1;
nodes = (
(739,360,l),
(739,394,l),
(609,394,l),
(609,470,l),
(728,470,l),
(728,504,l),
(609,504,l),
(609,577,l),
(739,577,l),
(739,612,l),
(573,612,l),
(573,360,l)
);
},
{
closed = 1;
nodes = (
(1032,700,l),
(1032,0,l),
(70,0,l),
(70,700,l)
);
}
);
width = 1102;
}
);
note = Eacute;
unicode = 201;
},
{
glyphname = Ecircumflex;
layers = (
{
layerId = m01;
shapes = (
{
closed = 1;
nodes = (
(872,264,o),
(893,243,qs),
(914,222,o),
(914,190,qs),
(914,158,o),
(893,137,qs),
(872,116,o),
(840,116,qs),
(808,116,o),
(787,137,qs),
(766,158,o),
(766,190,qs),
(766,222,o),
(787,243,qs),
(808,264,o),
(840,264,qs)
);
},
{
closed = 1;
nodes = (
(267,261,o),
(287,241,qs),
(306,221,o),
(306,190,qs),
(306,158,o),
(287,138,qs),
(267,118,o),
(236,118,qs),
(188,118,l),
(188,261,l),
(236,261,ls)
);
},
{
closed = 1;
nodes = (
(776,612,l),
(776,360,l),
(942,360,l),
(942,394,l),
(812,394,l),
(812,470,l),
(931,470,l),
(931,504,l),
(812,504,l),
(812,577,l),
(942,577,l),
(942,612,l)
);
},
{
closed = 1;
nodes = (
(942,146,o),
(942,190,qs),
(942,234,o),
(913,262,qs),
(884,291,o),
(840,291,qs),
(796,291,o),
(767,262,qs),
(738,234,o),
(738,190,qs),
(738,146,o),
(767,117,qs),
(796,89,o),
(840,89,qs),
(884,89,o),
(913,117,qs)
);
},
{
closed = 1;
nodes = (
(688,288,l),
(615,178,l),
(542,288,l),
(523,288,l),
(523,91,l),
(551,91,l),
(551,226,l),
(615,129,l),
(680,226,l),
(680,91,l),
(708,91,l),
(708,288,l)
);
},
{
closed = 1;
nodes = (
(537,360,l),
(473,455,l),
(501,461,o),
(518,482,qs),
(534,503,o),
(534,531,qs),
(534,567,o),
(511,589,qs),
(488,612,o),
(450,612,qs),
(354,612,l),
(354,360,l),
(390,360,l),
(390,577,l),
(450,577,ls),
(470,577,o),
(484,564,qs),
(498,551,o),
(498,530,qs),
(498,509,o),
(484,496,qs),
(470,482,o),
(450,482,qs),
(415,482,l),
(498,360,l)
);
},
{
closed = 1;
nodes = (
(364,288,l),
(364,91,l),
(493,91,l),
(493,118,l),
(392,118,l),
(392,177,l),
(485,177,l),
(485,204,l),
(392,204,l),
(392,261,l),
(493,261,l),
(493,288,l)
);
},
{
closed = 1;
nodes = (
(334,147,o),
(334,190,qs),
(334,233,o),
(307,260,qs),
(278,288,o),
(234,288,qs),
(160,288,l),
(160,91,l),
(234,91,ls),
(279,91,o),
(307,119,qs)
);
},
{
closed = 1;
nodes = (
(196,360,l),
(196,462,l),
(314,462,l),
(314,497,l),
(196,497,l),
(196,577,l),
(318,577,l),
(318,612,l),
(160,612,l),
(160,360,l)
);
},
{
closed = 1;
nodes = (
(739,360,l),
(739,394,l),
(609,394,l),
(609,470,l),
(728,470,l),
(728,504,l),
(609,504,l),
(609,577,l),
(739,577,l),
(739,612,l),
(573,612,l),
(573,360,l)
);
},
{
closed = 1;
nodes = (
(1032,700,l),
(1032,0,l),
(70,0,l),
(70,700,l)
);
}
);
width = 1102;
}
);
note = Ecircumflex;
unicode = 202;
},
{
glyphname = Edieresis;
layers = (
{
layerId = m01;
shapes = (
{
closed = 1;
nodes = (
(872,264,o),
(893,243,qs),
(914,222,o),
(914,190,qs),
(914,158,o),
(893,137,qs),
(872,116,o),
(840,116,qs),
(808,116,o),
(787,137,qs),
(766,158,o),
(766,190,qs),
(766,222,o),
(787,243,qs),
(808,264,o),
(840,264,qs)
);
},
{
closed = 1;
nodes = (
(267,261,o),
(287,241,qs),
(306,221,o),
(306,190,qs),
(306,158,o),
(287,138,qs),
(267,118,o),
(236,118,qs),
(188,118,l),
(188,261,l),
(236,261,ls)
);
},
{
closed = 1;
nodes = (
(776,612,l),
(776,360,l),
(942,360,l),
(942,394,l),
(812,394,l),
(812,470,l),
(931,470,l),
(931,504,l),
(812,504,l),
(812,577,l),
(942,577,l),
(942,612,l)
);
},
{
closed = 1;
nodes = (
(942,146,o),
(942,190,qs),
(942,234,o),
(913,262,qs),
(884,291,o),
(840,291,qs),
(796,291,o),
(767,262,qs),
(738,234,o),
(738,190,qs),
(738,146,o),
(767,117,qs),
(796,89,o),
(840,89,qs),
(884,89,o),
(913,117,qs)
);
},
{
closed = 1;
nodes = (
(688,288,l),
(615,178,l),
(542,288,l),
(523,288,l),
(523,91,l),
(551,91,l),
(551,226,l),
(615,129,l),
(680,226,l),
(680,91,l),
(708,91,l),
(708,288,l)
);
},
{
closed = 1;
nodes = (
(537,360,l),
(473,455,l),
(501,461,o),
(518,482,qs),
(534,503,o),
(534,531,qs),
(534,567,o),
(511,589,qs),
(488,612,o),
(450,612,qs),
(354,612,l),
(354,360,l),
(390,360,l),
(390,577,l),
(450,577,ls),
(470,577,o),
(484,564,qs),
(498,551,o),
(498,530,qs),
(498,509,o),
(484,496,qs),
(470,482,o),
(450,482,qs),
(415,482,l),
(498,360,l)
);
},
{
closed = 1;
nodes = (
(364,288,l),
(364,91,l),
(493,91,l),
(493,118,l),
(392,118,l),
(392,177,l),
(485,177,l),
(485,204,l),
(392,204,l),
(392,261,l),
(493,261,l),
(493,288,l)
);
},
{
closed = 1;
nodes = (
(334,147,o),
(334,190,qs),
(334,233,o),
(307,260,qs),
(278,288,o),
(234,288,qs),
(160,288,l),
(160,91,l),
(234,91,ls),
(279,91,o),
(307,119,qs)
);
},
{
closed = 1;
nodes = (
(196,360,l),
(196,462,l),
(314,462,l),
(314,497,l),
(196,497,l),
(196,577,l),
(318,577,l),
(318,612,l),
(160,612,l),
(160,360,l)
);
},
{
closed = 1;
nodes = (
(739,360,l),
(739,394,l),
(609,394,l),
(609,470,l),
(728,470,l),
(728,504,l),
(609,504,l),
(609,577,l),
(739,577,l),
(739,612,l),
(573,612,l),
(573,360,l)
);
},
{
closed = 1;
nodes = (
(1032,700,l),
(1032,0,l),
(70,0,l),
(70,700,l)
);
}
);
width = 1102;
}
);
note = Edieresis;
unicode = 203;
},
{
glyphname = Igrave;
layers = (
{
layerId = m01;
shapes = (
{
closed = 1;
nodes = (
(872,264,o),
(893,243,qs),
(914,222,o),
(914,190,qs),
(914,158,o),
(893,137,qs),
(872,116,o),
(840,116,qs),
(808,116,o),
(787,137,qs),
(766,158,o),
(766,190,qs),
(766,222,o),
(787,243,qs),
(808,264,o),
(840,264,qs)
);
},
{
closed = 1;
nodes = (
(267,261,o),
(287,241,qs),
(306,221,o),
(306,190,qs),
(306,158,o),
(287,138,qs),
(267,118,o),
(236,118,qs),
(188,118,l),
(188,261,l),
(236,261,ls)
);
},
{
closed = 1;
nodes = (
(776,612,l),
(776,360,l),
(942,360,l),
(942,394,l),
(812,394,l),
(812,470,l),
(931,470,l),
(931,504,l),
(812,504,l),
(812,577,l),
(942,577,l),
(942,612,l)
);
},
{
closed = 1;
nodes = (
(942,146,o),
(942,190,qs),
(942,234,o),
(913,262,qs),
(884,291,o),
(840,291,qs),
(796,291,o),
(767,262,qs),
(738,234,o),
(738,190,qs),
(738,146,o),
(767,117,qs),
(796,89,o),
(840,89,qs),
(884,89,o),
(913,117,qs)
);
},
{
closed = 1;
nodes = (
(688,288,l),
(615,178,l),
(542,288,l),
(523,288,l),
(523,91,l),
(551,91,l),
(551,226,l),
(615,129,l),
(680,226,l),
(680,91,l),
(708,91,l),
(708,288,l)
);
},
{
closed = 1;
nodes = (
(537,360,l),
(473,455,l),
(501,461,o),
(518,482,qs),
(534,503,o),
(534,531,qs),
(534,567,o),
(511,589,qs),
(488,612,o),
(450,612,qs),
(354,612,l),
(354,360,l),
(390,360,l),
(390,577,l),
(450,577,ls),
(470,577,o),
(484,564,qs),
(498,551,o),
(498,530,qs),
(498,509,o),
(484,496,qs),
(470,482,o),
(450,482,qs),
(415,482,l),
(498,360,l)
);
},
{
closed = 1;
nodes = (
(364,288,l),
(364,91,l),
(493,91,l),
(493,118,l),
(392,118,l),
(392,177,l),
(485,177,l),
(485,204,l),
(392,204,l),
(392,261,l),
(493,261,l),
(493,288,l)
);
},
{
closed = 1;
nodes = (
(334,147,o),
(334,190,qs),
(334,233,o),
(307,260,qs),
(278,288,o),
(234,288,qs),
(160,288,l),
(160,91,l),
(234,91,ls),
(279,91,o),
(307,119,qs)
);
},
{
closed = 1;
nodes = (
(196,360,l),
(196,462,l),
(314,462,l),
(314,497,l),
(196,497,l),
(196,577,l),
(318,577,l),
(318,612,l),
(160,612,l),
(160,360,l)
);
},
{
closed = 1;
nodes = (
(739,360,l),
(739,394,l),
(609,394,l),
(609,470,l),
(728,470,l),
(728,504,l),
(609,504,l),
(609,577,l),
(739,577,l),
(739,612,l),
(573,612,l),
(573,360,l)
);
},
{
closed = 1;
nodes = (
(1032,700,l),
(1032,0,l),
(70,0,l),
(70,700,l)
);
}
);
width = 1102;
}
);
note = Igrave;
unicode = 204;
},
{
glyphname = Iacute;
layers = (
{
layerId = m01;
shapes = (
{
closed = 1;
nodes = (
(872,264,o),
(893,243,qs),
(914,222,o),
(914,190,qs),
(914,158,o),
(893,137,qs),
(872,116,o),
(840,116,qs),
(808,116,o),
(787,137,qs),
(766,158,o),
(766,190,qs),
(766,222,o),
(787,243,qs),
(808,264,o),
(840,264,qs)
);
},
{
closed = 1;
nodes = (
(267,261,o),
(287,241,qs),
(306,221,o),
(306,190,qs),
(306,158,o),
(287,138,qs),
(267,118,o),
(236,118,qs),
(188,118,l),
(188,261,l),
(236,261,ls)
);
},
{
closed = 1;
nodes = (
(776,612,l),
(776,360,l),
(942,360,l),
(942,394,l),
(812,394,l),
(812,470,l),
(931,470,l),
(931,504,l),
(812,504,l),
(812,577,l),
(942,577,l),
(942,612,l)
);
},
{
closed = 1;
nodes = (
(942,146,o),
(942,190,qs),
(942,234,o),
(913,262,qs),
(884,291,o),
(840,291,qs),
(796,291,o),
(767,262,qs),
(738,234,o),
(738,190,qs),
(738,146,o),
(767,117,qs),
(796,89,o),
(840,89,qs),
(884,89,o),
(913,117,qs)
);
},
{
closed = 1;
nodes = (
(688,288,l),
(615,178,l),
(542,288,l),
(523,288,l),
(523,91,l),
(551,91,l),
(551,226,l),
(615,129,l),
(680,226,l),
(680,91,l),
(708,91,l),
(708,288,l)
);
},
{
closed = 1;
nodes = (
(537,360,l),
(473,455,l),
(501,461,o),
(518,482,qs),
(534,503,o),
(534,531,qs),
(534,567,o),
(511,589,qs),
(488,612,o),
(450,612,qs),
(354,612,l),
(354,360,l),
(390,360,l),
(390,577,l),
(450,577,ls),
(470,577,o),
(484,564,qs),
(498,551,o),
(498,530,qs),
(498,509,o),
(484,496,qs),
(470,482,o),
(450,482,qs),
(415,482,l),
(498,360,l)
);
},
{
closed = 1;
nodes = (
(364,288,l),
(364,91,l),
(493,91,l),
(493,118,l),
(392,118,l),
(392,177,l),
(485,177,l),
(485,204,l),
(392,204,l),
(392,261,l),
(493,261,l),
(493,288,l)
);
},
{
closed = 1;
nodes = (
(334,147,o),
(334,190,qs),
(334,233,o),
(307,260,qs),
(278,288,o),
(234,288,qs),
(160,288,l),
(160,91,l),
(234,91,ls),
(279,91,o),
(307,119,qs)
);
},
{
closed = 1;
nodes = (
(196,360,l),
(196,462,l),
(314,462,l),
(314,497,l),
(196,497,l),
(196,577,l),
(318,577,l),
(318,612,l),
(160,612,l),
(160,360,l)
);
},
{
closed = 1;
nodes = (
(739,360,l),
(739,394,l),
(609,394,l),
(609,470,l),
(728,470,l),
(728,504,l),
(609,504,l),
(609,577,l),
(739,577,l),
(739,612,l),
(573,612,l),
(573,360,l)
);
},
{
closed = 1;
nodes = (
(1032,700,l),
(1032,0,l),
(70,0,l),
(70,700,l)
);
}
);
width = 1102;
}
);
note = Iacute;
unicode = 205;
},
{
glyphname = Icircumflex;
layers = (
{
layerId = m01;
shapes = (
{
closed = 1;
nodes = (
(872,264,o),
(893,243,qs),
(914,222,o),
(914,190,qs),
(914,158,o),
(893,137,qs),
(872,116,o),
(840,116,qs),
(808,116,o),
(787,137,qs),
(766,158,o),
(766,190,qs),
(766,222,o),
(787,243,qs),
(808,264,o),
(840,264,qs)
);
},
{
closed = 1;
nodes = (
(267,261,o),
(287,241,qs),
(306,221,o),
(306,190,qs),
(306,158,o),
(287,138,qs),
(267,118,o),
(236,118,qs),
(188,118,l),
(188,261,l),
(236,261,ls)
);
},
{
closed = 1;
nodes = (
(776,612,l),
(776,360,l),
(942,360,l),
(942,394,l),
(812,394,l),
(812,470,l),
(931,470,l),
(931,504,l),
(812,504,l),
(812,577,l),
(942,577,l),
(942,612,l)
);
},
{
closed = 1;
nodes = (
(942,146,o),
(942,190,qs),
(942,234,o),
(913,262,qs),
(884,291,o),
(840,291,qs),
(796,291,o),
(767,262,qs),
(738,234,o),
(738,190,qs),
(738,146,o),
(767,117,qs),
(796,89,o),
(840,89,qs),
(884,89,o),
(913,117,qs)
);
},
{
closed = 1;
nodes = (
(688,288,l),
(615,178,l),
(542,288,l),
(523,288,l),
(523,91,l),
(551,91,l),
(551,226,l),
(615,129,l),
(680,226,l),
(680,91,l),
(708,91,l),
(708,288,l)
);
},
{
closed = 1;
nodes = (
(537,360,l),
(473,455,l),
(501,461,o),
(518,482,qs),
(534,503,o),
(534,531,qs),
(534,567,o),
(511,589,qs),
(488,612,o),
(450,612,qs),
(354,612,l),
(354,360,l),
(390,360,l),
(390,577,l),
(450,577,ls),
(470,577,o),
(484,564,qs),
(498,551,o),
(498,530,qs),
(498,509,o),
(484,496,qs),
(470,482,o),
(450,482,qs),
(415,482,l),
(498,360,l)
);
},
{
closed = 1;
nodes = (
(364,288,l),
(364,91,l),
(493,91,l),
(493,118,l),
(392,118,l),
(392,177,l),
(485,177,l),
(485,204,l),
(392,204,l),
(392,261,l),
(493,261,l),
(493,288,l)
);
},
{
closed = 1;
nodes = (
(334,147,o),
(334,190,qs),
(334,233,o),
(307,260,qs),
(278,288,o),
(234,288,qs),
(160,288,l),
(160,91,l),
(234,91,ls),
(279,91,o),
(307,119,qs)
);
},
{
closed = 1;
nodes = (
(196,360,l),
(196,462,l),
(314,462,l),
(314,497,l),
(196,497,l),
(196,577,l),
(318,577,l),
(318,612,l),
(160,612,l),
(160,360,l)
);
},
{
closed = 1;
nodes = (
(739,360,l),
(739,394,l),
(609,394,l),
(609,470,l),
(728,470,l),
(728,504,l),
(609,504,l),
(609,577,l),
(739,577,l),
(739,612,l),
(573,612,l),
(573,360,l)
);
},
{
closed = 1;
nodes = (
(1032,700,l),
(1032,0,l),
(70,0,l),
(70,700,l)
);
}
);
width = 1102;
}
);
note = Icircumflex;
unicode = 206;
},
{
glyphname = Idieresis;
layers = (
{
layerId = m01;
shapes = (
{
closed = 1;
nodes = (
(872,264,o),
(893,243,qs),
(914,222,o),
(914,190,qs),
(914,158,o),
(893,137,qs),
(872,116,o),
(840,116,qs),
(808,116,o),
(787,137,qs),
(766,158,o),
(766,190,qs),
(766,222,o),
(787,243,qs),
(808,264,o),
(840,264,qs)
);
},
{
closed = 1;
nodes = (
(267,261,o),
(287,241,qs),
(306,221,o),
(306,190,qs),
(306,158,o),
(287,138,qs),
(267,118,o),
(236,118,qs),
(188,118,l),
(188,261,l),
(236,261,ls)
);
},
{
closed = 1;
nodes = (
(776,612,l),
(776,360,l),
(942,360,l),
(942,394,l),
(812,394,l),
(812,470,l),
(931,470,l),
(931,504,l),
(812,504,l),
(812,577,l),
(942,577,l),
(942,612,l)
);
},
{
closed = 1;
nodes = (
(942,146,o),
(942,190,qs),
(942,234,o),
(913,262,qs),
(884,291,o),
(840,291,qs),
(796,291,o),
(767,262,qs),
(738,234,o),
(738,190,qs),
(738,146,o),
(767,117,qs),
(796,89,o),
(840,89,qs),
(884,89,o),
(913,117,qs)
);
},
{
closed = 1;
nodes = (
(688,288,l),
(615,178,l),
(542,288,l),
(523,288,l),
(523,91,l),
(551,91,l),
(551,226,l),
(615,129,l),
(680,226,l),
(680,91,l),
(708,91,l),
(708,288,l)
);
},
{
closed = 1;
nodes = (
(537,360,l),
(473,455,l),
(501,461,o),
(518,482,qs),
(534,503,o),
(534,531,qs),
(534,567,o),
(511,589,qs),
(488,612,o),
(450,612,qs),
(354,612,l),
(354,360,l),
(390,360,l),
(390,577,l),
(450,577,ls),
(470,577,o),
(484,564,qs),
(498,551,o),
(498,530,qs),
(498,509,o),
(484,496,qs),
(470,482,o),
(450,482,qs),
(415,482,l),
(498,360,l)
);
},
{
closed = 1;
nodes = (
(364,288,l),
(364,91,l),
(493,91,l),
(493,118,l),
(392,118,l),
(392,177,l),
(485,177,l),
(485,204,l),
(392,204,l),
(392,261,l),
(493,261,l),
(493,288,l)
);
},
{
closed = 1;
nodes = (
(334,147,o),
(334,190,qs),
(334,233,o),
(307,260,qs),
(278,288,o),
(234,288,qs),
(160,288,l),
(160,91,l),
(234,91,ls),
(279,91,o),
(307,119,qs)
);
},
{
closed = 1;
nodes = (
(196,360,l),
(196,462,l),
(314,462,l),
(314,497,l),
(196,497,l),
(196,577,l),
(318,577,l),
(318,612,l),
(160,612,l),
(160,360,l)
);
},
{
closed = 1;
nodes = (
(739,360,l),
(739,394,l),
(609,394,l),
(609,470,l),
(728,470,l),
(728,504,l),
(609,504,l),
(609,577,l),
(739,577,l),
(739,612,l),
(573,612,l),
(573,360,l)
);
},
{
closed = 1;
nodes = (
(1032,700,l),
(1032,0,l),
(70,0,l),
(70,700,l)
);
}
);
width = 1102;
}
);
note = Idieresis;
unicode = 207;
},
{
glyphname = Eth;
layers = (
{
layerId = m01;
shapes = (
{
closed = 1;
nodes = (
(872,264,o),
(893,243,qs),
(914,222,o),
(914,190,qs),
(914,158,o),
(893,137,qs),
(872,116,o),
(840,116,qs),
(808,116,o),
(787,137,qs),
(766,158,o),
(766,190,qs),
(766,222,o),
(787,243,qs),
(808,264,o),
(840,264,qs)
);
},
{
closed = 1;
nodes = (
(267,261,o),
(287,241,qs),
(306,221,o),
(306,190,qs),
(306,158,o),
(287,138,qs),
(267,118,o),
(236,118,qs),
(188,118,l),
(188,261,l),
(236,261,ls)
);
},
{
closed = 1;
nodes = (
(776,612,l),
(776,360,l),
(942,360,l),
(942,394,l),
(812,394,l),
(812,470,l),
(931,470,l),
(931,504,l),
(812,504,l),
(812,577,l),
(942,577,l),
(942,612,l)
);
},
{
closed = 1;
nodes = (
(942,146,o),
(942,190,qs),
(942,234,o),
(913,262,qs),
(884,291,o),
(840,291,qs),
(796,291,o),
(767,262,qs),
(738,234,o),
(738,190,qs),
(738,146,o),
(767,117,qs),
(796,89,o),
(840,89,qs),
(884,89,o),
(913,117,qs)
);
},
{
closed = 1;
nodes = (
(688,288,l),
(615,178,l),
(542,288,l),
(523,288,l),
(523,91,l),
(551,91,l),
(551,226,l),
(615,129,l),
(680,226,l),
(680,91,l),
(708,91,l),
(708,288,l)
);
},
{
closed = 1;
nodes = (
(537,360,l),
(473,455,l),
(501,461,o),
(518,482,qs),
(534,503,o),
(534,531,qs),
(534,567,o),
(511,589,qs),
(488,612,o),
(450,612,qs),
(354,612,l),
(354,360,l),
(390,360,l),
(390,577,l),
(450,577,ls),
(470,577,o),
(484,564,qs),
(498,551,o),
(498,530,qs),
(498,509,o),
(484,496,qs),
(470,482,o),
(450,482,qs),
(415,482,l),
(498,360,l)
);
},
{
closed = 1;
nodes = (
(364,288,l),
(364,91,l),
(493,91,l),
(493,118,l),
(392,118,l),
(392,177,l),
(485,177,l),
(485,204,l),
(392,204,l),
(392,261,l),
(493,261,l),
(493,288,l)
);
},
{
closed = 1;
nodes = (
(334,147,o),
(334,190,qs),
(334,233,o),
(307,260,qs),
(278,288,o),
(234,288,qs),
(160,288,l),
(160,91,l),
(234,91,ls),
(279,91,o),
(307,119,qs)
);
},
{
closed = 1;
nodes = (
(196,360,l),
(196,462,l),
(314,462,l),
(314,497,l),
(196,497,l),
(196,577,l),
(318,577,l),
(318,612,l),
(160,612,l),
(160,360,l)
);
},
{
closed = 1;
nodes = (
(739,360,l),
(739,394,l),
(609,394,l),
(609,470,l),
(728,470,l),
(728,504,l),
(609,504,l),
(609,577,l),
(739,577,l),
(739,612,l),
(573,612,l),
(573,360,l)
);
},
{
closed = 1;
nodes = (
(1032,700,l),
(1032,0,l),
(70,0,l),
(70,700,l)
);
}
);
width = 1102;
}
);
note = Eth;
unicode = 208;
},
{
glyphname = Ntilde;
layers = (
{
layerId = m01;
shapes = (
{
closed = 1;
nodes = (
(872,264,o),
(893,243,qs),
(914,222,o),
(914,190,qs),
(914,158,o),
(893,137,qs),
(872,116,o),
(840,116,qs),
(808,116,o),
(787,137,qs),
(766,158,o),
(766,190,qs),
(766,222,o),
(787,243,qs),
(808,264,o),
(840,264,qs)
);
},
{
closed = 1;
nodes = (
(267,261,o),
(287,241,qs),
(306,221,o),
(306,190,qs),
(306,158,o),
(287,138,qs),
(267,118,o),
(236,118,qs),
(188,118,l),
(188,261,l),
(236,261,ls)
);
},
{
closed = 1;
nodes = (
(776,612,l),
(776,360,l),
(942,360,l),
(942,394,l),
(812,394,l),
(812,470,l),
(931,470,l),
(931,504,l),
(812,504,l),
(812,577,l),
(942,577,l),
(942,612,l)
);
},
{
closed = 1;
nodes = (
(942,146,o),
(942,190,qs),
(942,234,o),
(913,262,qs),
(884,291,o),
(840,291,qs),
(796,291,o),
(767,262,qs),
(738,234,o),
(738,190,qs),
(738,146,o),
(767,117,qs),
(796,89,o),
(840,89,qs),
(884,89,o),
(913,117,qs)
);
},
{
closed = 1;
nodes = (
(688,288,l),
(615,178,l),
(542,288,l),
(523,288,l),
(523,91,l),
(551,91,l),
(551,226,l),
(615,129,l),
(680,226,l),
(680,91,l),
(708,91,l),
(708,288,l)
);
},
{
closed = 1;
nodes = (
(537,360,l),
(473,455,l),
(501,461,o),
(518,482,qs),
(534,503,o),
(534,531,qs),
(534,567,o),
(511,589,qs),
(488,612,o),
(450,612,qs),
(354,612,l),
(354,360,l),
(390,360,l),
(390,577,l),
(450,577,ls),
(470,577,o),
(484,564,qs),
(498,551,o),
(498,530,qs),
(498,509,o),
(484,496,qs),
(470,482,o),
(450,482,qs),
(415,482,l),
(498,360,l)
);
},
{
closed = 1;
nodes = (
(364,288,l),
(364,91,l),
(493,91,l),
(493,118,l),
(392,118,l),
(392,177,l),
(485,177,l),
(485,204,l),
(392,204,l),
(392,261,l),
(493,261,l),
(493,288,l)
);
},
{
closed = 1;
nodes = (
(334,147,o),
(334,190,qs),
(334,233,o),
(307,260,qs),
(278,288,o),
(234,288,qs),
(160,288,l),
(160,91,l),
(234,91,ls),
(279,91,o),
(307,119,qs)
);
},
{
closed = 1;
nodes = (
(196,360,l),
(196,462,l),
(314,462,l),
(314,497,l),
(196,497,l),
(196,577,l),
(318,577,l),
(318,612,l),
(160,612,l),
(160,360,l)
);
},
{
closed = 1;
nodes = (
(739,360,l),
(739,394,l),
(609,394,l),
(609,470,l),
(728,470,l),
(728,504,l),
(609,504,l),
(609,577,l),
(739,577,l),
(739,612,l),
(573,612,l),
(573,360,l)
);
},
{
closed = 1;
nodes = (
(1032,700,l),
(1032,0,l),
(70,0,l),
(70,700,l)
);
}
);
width = 1102;
}
);
note = Ntilde;
unicode = 209;
},
{
glyphname = Ograve;
kernLeft = C;
layers = (
{
layerId = m01;
shapes = (
{
closed = 1;
nodes = (
(872,264,o),
(893,243,qs),
(914,222,o),
(914,190,qs),
(914,158,o),
(893,137,qs),
(872,116,o),
(840,116,qs),
(808,116,o),
(787,137,qs),
(766,158,o),
(766,190,qs),
(766,222,o),
(787,243,qs),
(808,264,o),
(840,264,qs)
);
},
{
closed = 1;
nodes = (
(267,261,o),
(287,241,qs),
(306,221,o),
(306,190,qs),
(306,158,o),
(287,138,qs),
(267,118,o),
(236,118,qs),
(188,118,l),
(188,261,l),
(236,261,ls)
);
},
{
closed = 1;
nodes = (
(776,612,l),
(776,360,l),
(942,360,l),
(942,394,l),
(812,394,l),
(812,470,l),
(931,470,l),
(931,504,l),
(812,504,l),
(812,577,l),
(942,577,l),
(942,612,l)
);
},
{
closed = 1;
nodes = (
(942,146,o),
(942,190,qs),
(942,234,o),
(913,262,qs),
(884,291,o),
(840,291,qs),
(796,291,o),
(767,262,qs),
(738,234,o),
(738,190,qs),
(738,146,o),
(767,117,qs),
(796,89,o),
(840,89,qs),
(884,89,o),
(913,117,qs)
);
},
{
closed = 1;
nodes = (
(688,288,l),
(615,178,l),
(542,288,l),
(523,288,l),
(523,91,l),
(551,91,l),
(551,226,l),
(615,129,l),
(680,226,l),
(680,91,l),
(708,91,l),
(708,288,l)
);
},
{
closed = 1;
nodes = (
(537,360,l),
(473,455,l),
(501,461,o),
(518,482,qs),
(534,503,o),
(534,531,qs),
(534,567,o),
(511,589,qs),
(488,612,o),
(450,612,qs),
(354,612,l),
(354,360,l),
(390,360,l),
(390,577,l),
(450,577,ls),
(470,577,o),
(484,564,qs),
(498,551,o),
(498,530,qs),
(498,509,o),
(484,496,qs),
(470,482,o),
(450,482,qs),
(415,482,l),
(498,360,l)
);
},
{
closed = 1;
nodes = (
(364,288,l),
(364,91,l),
(493,91,l),
(493,118,l),
(392,118,l),
(392,177,l),
(485,177,l),
(485,204,l),
(392,204,l),
(392,261,l),
(493,261,l),
(493,288,l)
);
},
{
closed = 1;
nodes = (
(334,147,o),
(334,190,qs),
(334,233,o),
(307,260,qs),
(278,288,o),
(234,288,qs),
(160,288,l),
(160,91,l),
(234,91,ls),
(279,91,o),
(307,119,qs)
);
},
{
closed = 1;
nodes = (
(196,360,l),
(196,462,l),
(314,462,l),
(314,497,l),
(196,497,l),
(196,577,l),
(318,577,l),
(318,612,l),
(160,612,l),
(160,360,l)
);
},
{
closed = 1;
nodes = (
(739,360,l),
(739,394,l),
(609,394,l),
(609,470,l),
(728,470,l),
(728,504,l),
(609,504,l),
(609,577,l),
(739,577,l),
(739,612,l),
(573,612,l),
(573,360,l)
);
},
{
closed = 1;
nodes = (
(1032,700,l),
(1032,0,l),
(70,0,l),
(70,700,l)
);
}
);
width = 1102;
}
);
note = Ograve;
unicode = 210;
},
{
glyphname = Oacute;
kernLeft = C;
layers = (
{
layerId = m01;
shapes = (
{
closed = 1;
nodes = (
(872,264,o),
(893,243,qs),
(914,222,o),
(914,190,qs),
(914,158,o),
(893,137,qs),
(872,116,o),
(840,116,qs),
(808,116,o),
(787,137,qs),
(766,158,o),
(766,190,qs),
(766,222,o),
(787,243,qs),
(808,264,o),
(840,264,qs)
);
},
{
closed = 1;
nodes = (
(267,261,o),
(287,241,qs),
(306,221,o),
(306,190,qs),
(306,158,o),
(287,138,qs),
(267,118,o),
(236,118,qs),
(188,118,l),
(188,261,l),
(236,261,ls)
);
},
{
closed = 1;
nodes = (
(776,612,l),
(776,360,l),
(942,360,l),
(942,394,l),
(812,394,l),
(812,470,l),
(931,470,l),
(931,504,l),
(812,504,l),
(812,577,l),
(942,577,l),
(942,612,l)
);
},
{
closed = 1;
nodes = (
(942,146,o),
(942,190,qs),
(942,234,o),
(913,262,qs),
(884,291,o),
(840,291,qs),
(796,291,o),
(767,262,qs),
(738,234,o),
(738,190,qs),
(738,146,o),
(767,117,qs),
(796,89,o),
(840,89,qs),
(884,89,o),
(913,117,qs)
);
},
{
closed = 1;
nodes = (
(688,288,l),
(615,178,l),
(542,288,l),
(523,288,l),
(523,91,l),
(551,91,l),
(551,226,l),
(615,129,l),
(680,226,l),
(680,91,l),
(708,91,l),
(708,288,l)
);
},
{
closed = 1;
nodes = (
(537,360,l),
(473,455,l),
(501,461,o),
(518,482,qs),
(534,503,o),
(534,531,qs),
(534,567,o),
(511,589,qs),
(488,612,o),
(450,612,qs),
(354,612,l),
(354,360,l),
(390,360,l),
(390,577,l),
(450,577,ls),
(470,577,o),
(484,564,qs),
(498,551,o),
(498,530,qs),
(498,509,o),
(484,496,qs),
(470,482,o),
(450,482,qs),
(415,482,l),
(498,360,l)
);
},
{
closed = 1;
nodes = (
(364,288,l),
(364,91,l),
(493,91,l),
(493,118,l),
(392,118,l),
(392,177,l),
(485,177,l),
(485,204,l),
(392,204,l),
(392,261,l),
(493,261,l),
(493,288,l)
);
},
{
closed = 1;
nodes = (
(334,147,o),
(334,190,qs),
(334,233,o),
(307,260,qs),
(278,288,o),
(234,288,qs),
(160,288,l),
(160,91,l),
(234,91,ls),
(279,91,o),
(307,119,qs)
);
},
{
closed = 1;
nodes = (
(196,360,l),
(196,462,l),
(314,462,l),
(314,497,l),
(196,497,l),
(196,577,l),
(318,577,l),
(318,612,l),
(160,612,l),
(160,360,l)
);
},
{
closed = 1;
nodes = (
(739,360,l),
(739,394,l),
(609,394,l),
(609,470,l),
(728,470,l),
(728,504,l),
(609,504,l),
(609,577,l),
(739,577,l),
(739,612,l),
(573,612,l),
(573,360,l)
);
},
{
closed = 1;
nodes = (
(1032,700,l),
(1032,0,l),
(70,0,l),
(70,700,l)
);
}
);
width = 1102;
}
);
note = Oacute;
unicode = 211;
},
{
glyphname = Ocircumflex;
kernLeft = C;
layers = (
{
layerId = m01;
shapes = (
{
closed = 1;
nodes = (
(872,264,o),
(893,243,qs),
(914,222,o),
(914,190,qs),
(914,158,o),
(893,137,qs),
(872,116,o),
(840,116,qs),
(808,116,o),
(787,137,qs),
(766,158,o),
(766,190,qs),
(766,222,o),
(787,243,qs),
(808,264,o),
(840,264,qs)
);
},
{
closed = 1;
nodes = (
(267,261,o),
(287,241,qs),
(306,221,o),
(306,190,qs),
(306,158,o),
(287,138,qs),
(267,118,o),
(236,118,qs),
(188,118,l),
(188,261,l),
(236,261,ls)
);
},
{
closed = 1;
nodes = (
(776,612,l),
(776,360,l),
(942,360,l),
(942,394,l),
(812,394,l),
(812,470,l),
(931,470,l),
(931,504,l),
(812,504,l),
(812,577,l),
(942,577,l),
(942,612,l)
);
},
{
closed = 1;
nodes = (
(942,146,o),
(942,190,qs),
(942,234,o),
(913,262,qs),
(884,291,o),
(840,291,qs),
(796,291,o),
(767,262,qs),
(738,234,o),
(738,190,qs),
(738,146,o),
(767,117,qs),
(796,89,o),
(840,89,qs),
(884,89,o),
(913,117,qs)
);
},
{
closed = 1;
nodes = (
(688,288,l),
(615,178,l),
(542,288,l),
(523,288,l),
(523,91,l),
(551,91,l),
(551,226,l),
(615,129,l),
(680,226,l),
(680,91,l),
(708,91,l),
(708,288,l)
);
},
{
closed = 1;
nodes = (
(537,360,l),
(473,455,l),
(501,461,o),
(518,482,qs),
(534,503,o),
(534,531,qs),
(534,567,o),
(511,589,qs),
(488,612,o),
(450,612,qs),
(354,612,l),
(354,360,l),
(390,360,l),
(390,577,l),
(450,577,ls),
(470,577,o),
(484,564,qs),
(498,551,o),
(498,530,qs),
(498,509,o),
(484,496,qs),
(470,482,o),
(450,482,qs),
(415,482,l),
(498,360,l)
);
},
{
closed = 1;
nodes = (
(364,288,l),
(364,91,l),
(493,91,l),
(493,118,l),
(392,118,l),
(392,177,l),
(485,177,l),
(485,204,l),
(392,204,l),
(392,261,l),
(493,261,l),
(493,288,l)
);
},
{
closed = 1;
nodes = (
(334,147,o),
(334,190,qs),
(334,233,o),
(307,260,qs),
(278,288,o),
(234,288,qs),
(160,288,l),
(160,91,l),
(234,91,ls),
(279,91,o),
(307,119,qs)
);
},
{
closed = 1;
nodes = (
(196,360,l),
(196,462,l),
(314,462,l),
(314,497,l),
(196,497,l),
(196,577,l),
(318,577,l),
(318,612,l),
(160,612,l),
(160,360,l)
);
},
{
closed = 1;
nodes = (
(739,360,l),
(739,394,l),
(609,394,l),
(609,470,l),
(728,470,l),
(728,504,l),
(609,504,l),
(609,577,l),
(739,577,l),
(739,612,l),
(573,612,l),
(573,360,l)
);
},
{
closed = 1;
nodes = (
(1032,700,l),
(1032,0,l),
(70,0,l),
(70,700,l)
);
}
);
width = 1102;
}
);
note = Ocircumflex;
unicode = 212;
},
{
glyphname = Otilde;
kernLeft = C;
layers = (
{
layerId = m01;
shapes = (
{
closed = 1;
nodes = (
(872,264,o),
(893,243,qs),
(914,222,o),
(914,190,qs),
(914,158,o),
(893,137,qs),
(872,116,o),
(840,116,qs),
(808,116,o),
(787,137,qs),
(766,158,o),
(766,190,qs),
(766,222,o),
(787,243,qs),
(808,264,o),
(840,264,qs)
);
},
{
closed = 1;
nodes = (
(267,261,o),
(287,241,qs),
(306,221,o),
(306,190,qs),
(306,158,o),
(287,138,qs),
(267,118,o),
(236,118,qs),
(188,118,l),
(188,261,l),
(236,261,ls)
);
},
{
closed = 1;
nodes = (
(776,612,l),
(776,360,l),
(942,360,l),
(942,394,l),
(812,394,l),
(812,470,l),
(931,470,l),
(931,504,l),
(812,504,l),
(812,577,l),
(942,577,l),
(942,612,l)
);
},
{
closed = 1;
nodes = (
(942,146,o),
(942,190,qs),
(942,234,o),
(913,262,qs),
(884,291,o),
(840,291,qs),
(796,291,o),
(767,262,qs),
(738,234,o),
(738,190,qs),
(738,146,o),
(767,117,qs),
(796,89,o),
(840,89,qs),
(884,89,o),
(913,117,qs)
);
},
{
closed = 1;
nodes = (
(688,288,l),
(615,178,l),
(542,288,l),
(523,288,l),
(523,91,l),
(551,91,l),
(551,226,l),
(615,129,l),
(680,226,l),
(680,91,l),
(708,91,l),
(708,288,l)
);
},
{
closed = 1;
nodes = (
(537,360,l),
(473,455,l),
(501,461,o),
(518,482,qs),
(534,503,o),
(534,531,qs),
(534,567,o),
(511,589,qs),
(488,612,o),
(450,612,qs),
(354,612,l),
(354,360,l),
(390,360,l),
(390,577,l),
(450,577,ls),
(470,577,o),
(484,564,qs),
(498,551,o),
(498,530,qs),
(498,509,o),
(484,496,qs),
(470,482,o),
(450,482,qs),
(415,482,l),
(498,360,l)
);
},
{
closed = 1;
nodes = (
(364,288,l),
(364,91,l),
(493,91,l),
(493,118,l),
(392,118,l),
(392,177,l),
(485,177,l),
(485,204,l),
(392,204,l),
(392,261,l),
(493,261,l),
(493,288,l)
);
},
{
closed = 1;
nodes = (
(334,147,o),
(334,190,qs),
(334,233,o),
(307,260,qs),
(278,288,o),
(234,288,qs),
(160,288,l),
(160,91,l),
(234,91,ls),
(279,91,o),
(307,119,qs)
);
},
{
closed = 1;
nodes = (
(196,360,l),
(196,462,l),
(314,462,l),
(314,497,l),
(196,497,l),
(196,577,l),
(318,577,l),
(318,612,l),
(160,612,l),
(160,360,l)
);
},
{
closed = 1;
nodes = (
(739,360,l),
(739,394,l),
(609,394,l),
(609,470,l),
(728,470,l),
(728,504,l),
(609,504,l),
(609,577,l),
(739,577,l),
(739,612,l),
(573,612,l),
(573,360,l)
);
},
{
closed = 1;
nodes = (
(1032,700,l),
(1032,0,l),
(70,0,l),
(70,700,l)
);
}
);
width = 1102;
}
);
note = Otilde;
unicode = 213;
},
{
glyphname = Odieresis;
kernLeft = C;
layers = (
{
layerId = m01;
shapes = (
{
closed = 1;
nodes = (
(398,87,qs),
(512,87,o),
(587,162,qs),
(661,236,o),
(661,350,qs),
(661,464,o),
(587,538,qs),
(512,613,o),
(398,613,qs),
(284,613,o),
(210,538,qs),
(135,464,o),
(135,350,qs),
(135,236,o),
(210,162,qs),
(284,87,o)
);
},
{
closed = 1;
nodes = (
(398,710,qs),
(555,710,o),
(658,608,qs),
(761,506,o),
(761,350,qs),
(761,194,o),
(658,92,qs),
(555,-10,o),
(398,-10,qs),
(241,-10,o),
(138,92,qs),
(35,194,o),
(35,350,qs),
(35,506,o),
(138,608,qs),
(241,710,o)
);
},
{
closed = 1;
nodes = (
(493,750,l),
(423,820,l),
(493,890,l),
(563,820,l)
);
},
{
closed = 1;
nodes = (
(303,750,l),
(233,820,l),
(303,890,l),
(373,820,l)
);
}
);
width = 796;
}
);
note = Odieresis;
unicode = 214;
},
{
glyphname = multiply;
kernRight = plus;
layers = (
{
layerId = m01;
shapes = (
{
closed = 1;
nodes = (
(872,264,o),
(893,243,qs),
(914,222,o),
(914,190,qs),
(914,158,o),
(893,137,qs),
(872,116,o),
(840,116,qs),
(808,116,o),
(787,137,qs),
(766,158,o),
(766,190,qs),
(766,222,o),
(787,243,qs),
(808,264,o),
(840,264,qs)
);
},
{
closed = 1;
nodes = (
(267,261,o),
(287,241,qs),
(306,221,o),
(306,190,qs),
(306,158,o),
(287,138,qs),
(267,118,o),
(236,118,qs),
(188,118,l),
(188,261,l),
(236,261,ls)
);
},
{
closed = 1;
nodes = (
(776,612,l),
(776,360,l),
(942,360,l),
(942,394,l),
(812,394,l),
(812,470,l),
(931,470,l),
(931,504,l),
(812,504,l),
(812,577,l),
(942,577,l),
(942,612,l)
);
},
{
closed = 1;
nodes = (
(942,146,o),
(942,190,qs),
(942,234,o),
(913,262,qs),
(884,291,o),
(840,291,qs),
(796,291,o),
(767,262,qs),
(738,234,o),
(738,190,qs),
(738,146,o),
(767,117,qs),
(796,89,o),
(840,89,qs),
(884,89,o),
(913,117,qs)
);
},
{
closed = 1;
nodes = (
(688,288,l),
(615,178,l),
(542,288,l),
(523,288,l),
(523,91,l),
(551,91,l),
(551,226,l),
(615,129,l),
(680,226,l),
(680,91,l),
(708,91,l),
(708,288,l)
);
},
{
closed = 1;
nodes = (
(537,360,l),
(473,455,l),
(501,461,o),
(518,482,qs),
(534,503,o),
(534,531,qs),
(534,567,o),
(511,589,qs),
(488,612,o),
(450,612,qs),
(354,612,l),
(354,360,l),
(390,360,l),
(390,577,l),
(450,577,ls),
(470,577,o),
(484,564,qs),
(498,551,o),
(498,530,qs),
(498,509,o),
(484,496,qs),
(470,482,o),
(450,482,qs),
(415,482,l),
(498,360,l)
);
},
{
closed = 1;
nodes = (
(364,288,l),
(364,91,l),
(493,91,l),
(493,118,l),
(392,118,l),
(392,177,l),
(485,177,l),
(485,204,l),
(392,204,l),
(392,261,l),
(493,261,l),
(493,288,l)
);
},
{
closed = 1;
nodes = (
(334,147,o),
(334,190,qs),
(334,233,o),
(307,260,qs),
(278,288,o),
(234,288,qs),
(160,288,l),
(160,91,l),
(234,91,ls),
(279,91,o),
(307,119,qs)
);
},
{
closed = 1;
nodes = (
(196,360,l),
(196,462,l),
(314,462,l),
(314,497,l),
(196,497,l),
(196,577,l),
(318,577,l),
(318,612,l),
(160,612,l),
(160,360,l)
);
},
{
closed = 1;
nodes = (
(739,360,l),
(739,394,l),
(609,394,l),
(609,470,l),
(728,470,l),
(728,504,l),
(609,504,l),
(609,577,l),
(739,577,l),
(739,612,l),
(573,612,l),
(573,360,l)
);
},
{
closed = 1;
nodes = (
(1032,700,l),
(1032,0,l),
(70,0,l),
(70,700,l)
);
}
);
width = 1102;
}
);
note = multiply;
unicode = 215;
},
{
glyphname = Oslash;
kernLeft = C;
layers = (
{
layerId = m01;
shapes = (
{
closed = 1;
nodes = (
(872,264,o),
(893,243,qs),
(914,222,o),
(914,190,qs),
(914,158,o),
(893,137,qs),
(872,116,o),
(840,116,qs),
(808,116,o),
(787,137,qs),
(766,158,o),
(766,190,qs),
(766,222,o),
(787,243,qs),
(808,264,o),
(840,264,qs)
);
},
{
closed = 1;
nodes = (
(267,261,o),
(287,241,qs),
(306,221,o),
(306,190,qs),
(306,158,o),
(287,138,qs),
(267,118,o),
(236,118,qs),
(188,118,l),
(188,261,l),
(236,261,ls)
);
},
{
closed = 1;
nodes = (
(776,612,l),
(776,360,l),
(942,360,l),
(942,394,l),
(812,394,l),
(812,470,l),
(931,470,l),
(931,504,l),
(812,504,l),
(812,577,l),
(942,577,l),
(942,612,l)
);
},
{
closed = 1;
nodes = (
(942,146,o),
(942,190,qs),
(942,234,o),
(913,262,qs),
(884,291,o),
(840,291,qs),
(796,291,o),
(767,262,qs),
(738,234,o),
(738,190,qs),
(738,146,o),
(767,117,qs),
(796,89,o),
(840,89,qs),
(884,89,o),
(913,117,qs)
);
},
{
closed = 1;
nodes = (
(688,288,l),
(615,178,l),
(542,288,l),
(523,288,l),
(523,91,l),
(551,91,l),
(551,226,l),
(615,129,l),
(680,226,l),
(680,91,l),
(708,91,l),
(708,288,l)
);
},
{
closed = 1;
nodes = (
(537,360,l),
(473,455,l),
(501,461,o),
(518,482,qs),
(534,503,o),
(534,531,qs),
(534,567,o),
(511,589,qs),
(488,612,o),
(450,612,qs),
(354,612,l),
(354,360,l),
(390,360,l),
(390,577,l),
(450,577,ls),
(470,577,o),
(484,564,qs),
(498,551,o),
(498,530,qs),
(498,509,o),
(484,496,qs),
(470,482,o),
(450,482,qs),
(415,482,l),
(498,360,l)
);
},
{
closed = 1;
nodes = (
(364,288,l),
(364,91,l),
(493,91,l),
(493,118,l),
(392,118,l),
(392,177,l),
(485,177,l),
(485,204,l),
(392,204,l),
(392,261,l),
(493,261,l),
(493,288,l)
);
},
{
closed = 1;
nodes = (
(334,147,o),
(334,190,qs),
(334,233,o),
(307,260,qs),
(278,288,o),
(234,288,qs),
(160,288,l),
(160,91,l),
(234,91,ls),
(279,91,o),
(307,119,qs)
);
},
{
closed = 1;
nodes = (
(196,360,l),
(196,462,l),
(314,462,l),
(314,497,l),
(196,497,l),
(196,577,l),
(318,577,l),
(318,612,l),
(160,612,l),
(160,360,l)
);
},
{
closed = 1;
nodes = (
(739,360,l),
(739,394,l),
(609,394,l),
(609,470,l),
(728,470,l),
(728,504,l),
(609,504,l),
(609,577,l),
(739,577,l),
(739,612,l),
(573,612,l),
(573,360,l)
);
},
{
closed = 1;
nodes = (
(1032,700,l),
(1032,0,l),
(70,0,l),
(70,700,l)
);
}
);
width = 1102;
}
);
note = Oslash;
unicode = 216;
},
